OutlineCutoutDetail-Thin.ufo
<glyph name="exclamation" format="2">
  <advance width="323.8775510204082"/>
  <unicode hex="0021"/>
  <outline>
    <contour>
      <point x="176.2036452001455" y="178.02754974365234" type="line"/>
      <point x="177.49670550287988" y="865" type="line"/>
      <point x="146.38084551752831" y="865" type="line"/>
      <point x="147.6739058202627" y="178.02754974365234" type="line"/>
    </contour>
    <contour>
      <point x="209.02755102040817" y="32.08877551020408" type="curve" smooth="yes"/>
      <point x="209.02755102040817" y="58.07777798769388"/>
      <point x="187.9277779876939" y="79.17755102040816"/>
      <point x="161.9387755102041" y="79.17755102040816" type="curve" smooth="yes"/>
      <point x="135.9497730327143" y="79.17755102040816"/>
      <point x="114.85000000000001" y="58.07777798769388"/>
      <point x="114.85000000000001" y="32.08877551020408" type="curve" smooth="yes"/>
      <point x="114.85000000000001" y="6.099773032714289"/>
      <point x="135.9497730327143" y="-15.0"/>
      <point x="161.9387755102041" y="-15.0" type="curve" smooth="yes"/>
      <point x="187.92777798769384" y="-15.000000000000007"/>
      <point x="209.02755102040817" y="6.099773032714275"/>
    </contour>
  </outline>
</glyph>
<glyph name="numbersign" format="2">
  <advance width="731.96220703125"/>
  <unicode hex="0023"/>
  <outline>
    <contour>
      <point x="453.4660583496094" y="263.8456802368164" type="line"/>
      <point x="626.3678604125977" y="263.8456802368164" type="line"/>
      <point x="626.3678604125977" y="292.6975326538086" type="line"/>
      <point x="458.55342254638674" y="292.6975326538086" type="line"/>
      <point x="505.2104125976563" y="557.3024673461914" type="line"/>
      <point x="678.11220703125" y="557.3024673461914" type="line"/>
      <point x="678.11220703125" y="586.1543197631836" type="line"/>
      <point x="510.2977691650391" y="586.1543197631836" type="line"/>
      <point x="556.8208862304688" y="850" type="line"/>
      <point x="525.9819961547852" y="850" type="line"/>
      <point x="479.45888671875" y="586.1543197631836" type="line"/>
      <point x="309.3350311279297" y="586.1543197631836" type="line"/>
      <point x="355.85814056396487" y="850" type="line"/>
      <point x="325.0192581176758" y="850" type="line"/>
      <point x="278.49614868164065" y="586.1543197631836" type="line"/>
      <point x="105.59434661865235" y="586.1543197631836" type="line"/>
      <point x="105.59434661865235" y="557.3024673461914" type="line"/>
      <point x="273.4087844848633" y="557.3024673461914" type="line"/>
      <point x="226.75179443359377" y="292.6975326538086" type="line"/>
      <point x="53.85000000000001" y="292.6975326538086" type="line"/>
      <point x="53.85000000000001" y="263.8456802368164" type="line"/>
      <point x="221.66443786621096" y="263.8456802368164" type="line"/>
      <point x="175.14132080078127" y="0" type="line"/>
      <point x="205.98021087646487" y="0" type="line"/>
      <point x="252.50332031250002" y="263.8456802368164" type="line"/>
      <point x="422.62717590332034" y="263.8456802368164" type="line"/>
      <point x="376.1040664672852" y="0" type="line"/>
      <point x="406.94294891357424" y="0" type="line"/>
    </contour>
    <contour>
      <point x="257.59067687988284" y="292.6975326538086" type="line"/>
      <point x="304.24766693115237" y="557.3024673461914" type="line"/>
      <point x="474.3715301513672" y="557.3024673461914" type="line"/>
      <point x="427.7145401000977" y="292.6975326538086" type="line"/>
    </contour>
  </outline>
</glyph>
<glyph name="dollar" format="2">
  <advance width="606.9529761904763"/>
  <unicode hex="0024"/>
  <outline>
    <contour>
      <point x="287.896130952381" y="45.21249999999998" type="curve"/>
      <point x="191.8245589982145" y="45.212500599383525"/>
      <point x="106.81306966467262" y="72.58995968450708"/>
      <point x="54.85000000000004" y="124.79546356201172" type="curve"/>
      <point x="54.85000000000004" y="87.80209350585938" type="line"/>
      <point x="108.30427645044948" y="40.090421353341675"/>
      <point x="189.9805577382051" y="16.04452704068391"/>
      <point x="281.8380981445313" y="15.035972595214844" type="curve"/>
      <point x="281.8380981445313" y="-100" type="line"/>
      <point x="312.5880981445313" y="-100" type="line"/>
      <point x="312.5880981445313" y="15.375" type="line"/>
      <point x="304.0265289306641" y="15.375" type="line"/>
      <point x="443.5722870689677" y="21.66416054588831"/>
      <point x="554.1029761904763" y="109.40294746139931"/>
      <point x="554.1029761904763" y="228.3419642857143" type="curve"/>
      <point x="554.1029761904763" y="354.90345140648157"/>
      <point x="434.8820893353814" y="403.8917362326789"/>
      <point x="359.74190268516963" y="431.1470149352281" type="curve"/>
      <point x="253.22028908729135" y="469.7851444886" type="line"/>
      <point x="176.57138516970065" y="497.5876737562454"/>
      <point x="84.83125000000008" y="535.7839720133775"/>
      <point x="84.83125000000003" y="632.4696428571428" type="curve"/>
      <point x="84.83125000000003" y="731.554319290226"/>
      <point x="184.0318255094973" y="804.7875"/>
      <point x="306.53005952380954" y="804.7875" type="curve"/>
      <point x="394.3187893533369" y="804.7874993392929"/>
      <point x="472.662815146321" y="782.8480571480059"/>
      <point x="524.0494018554688" y="739.7041244506836" type="curve"/>
      <point x="524.0494018554688" y="774.519645690918" type="line"/>
      <point x="472.545653867895" y="814.6187234976767"/>
      <point x="397.0371816091301" y="834.0797881955926"/>
      <point x="312.5880981445313" y="834.9608459472656" type="curve"/>
      <point x="312.5880981445313" y="950" type="line"/>
      <point x="281.8380981445313" y="950" type="line"/>
      <point x="281.8380981445313" y="834.625" type="line"/>
      <point x="291.03647766113284" y="834.625" type="line"/>
      <point x="159.22041496369872" y="828.4731674268826"/>
      <point x="54.85000000000001" y="743.990247987387"/>
      <point x="54.85000000000001" y="631.7008928571429" type="curve"/>
      <point x="54.850000000000065" y="513.9392852035123"/>
      <point x="165.69823843825964" y="468.05507866735445"/>
      <point x="243.7145737590003" y="439.73154281195764" type="curve"/>
      <point x="350.14985495193724" y="401.0906160015189" type="line"/>
      <point x="425.0847950852972" y="373.88576902987467"/>
      <point x="524.1217261904762" y="332.1965859608911"/>
      <point x="524.1217261904762" y="227.57321428571424" type="curve"/>
      <point x="524.1217261904764" y="121.83698723096437"/>
      <point x="418.420192385988" y="45.21249999999998"/>
    </contour>
  </outline>
</glyph>
<glyph name="ampersand" format="2">
  <advance width="810.8780883789061"/>
  <unicode hex="0026"/>
  <outline>
    <contour>
      <point x="255.493576632138" y="494.42934971801253" type="curve"/>
      <point x="266.5805175781249" y="482.9398880004883" type="line"/>
      <point x="151.07893349280153" y="460.2255100077252"/>
      <point x="63.849999999999895" y="358.4037546916256"/>
      <point x="63.85000000000001" y="236.34375000000006" type="curve" smooth="yes"/>
      <point x="63.849999999999895" y="97.59684139989838"/>
      <point x="176.55947552396856" y="-14.999999999999982"/>
      <point x="315.3859374999999" y="-15.0" type="curve"/>
      <point x="458.67341819672436" y="-15.0"/>
      <point x="518.1274819783861" y="82.2659152156007"/>
      <point x="560.7960820524124" y="162.53858856879043" type="curve"/>
      <point x="566.1100357055662" y="172.53575897216797" type="line"/>
      <point x="732.6012237548827" y="0" type="line"/>
      <point x="775.0280883789061" y="0" type="line"/>
      <point x="581.1782348632811" y="200.88770294189453" type="line"/>
      <point x="732.4797637939452" y="485.57291412353516" type="line"/>
      <point x="699.3978469848631" y="485.57291412353516" type="line"/>
      <point x="559.8455856323241" y="222.99484252929688" type="line"/>
      <point x="272.9602724788836" y="520.3281315558315" type="line"/>
      <point x="234.93987135814348" y="559.7331843662258"/>
      <point x="195.97254464285697" y="600.6266124760403"/>
      <point x="195.97254464285703" y="668.08125" type="curve"/>
      <point x="195.97254464285697" y="760.6650932799076"/>
      <point x="270.6636134097211" y="835.7874999999999"/>
      <point x="362.8984374999999" y="835.7874999999999" type="curve"/>
      <point x="456.19207737248377" y="835.7875"/>
      <point x="531.8609374999999" y="760.3624261304185"/>
      <point x="531.8609374999999" y="667.3125" type="curve"/>
      <point x="561.0734374999998" y="667.3125" type="line"/>
      <point x="561.0734374999998" y="776.41920051625"/>
      <point x="472.49263801624994" y="865.0"/>
      <point x="363.3859374999999" y="865.0" type="curve" smooth="yes"/>
      <point x="254.27923698374985" y="865.0"/>
      <point x="165.6984374999999" y="776.41920051625"/>
      <point x="165.6984374999999" y="667.3125" type="curve"/>
      <point x="165.6984374999999" y="587.4753595898712"/>
      <point x="210.55407820206784" y="541.0004146612172"/>
    </contour>
    <contour>
      <point x="315.89843749999994" y="14.596875000000011" type="curve"/>
      <point x="193.48737481014712" y="14.596875000000026"/>
      <point x="94.21562499999992" y="114.13588166020361"/>
      <point x="94.21562499999992" y="236.728125" type="curve" smooth="yes"/>
      <point x="94.21562499999992" y="350.9439550344175"/>
      <point x="180.38487099721226" y="445.14925814375476"/>
      <point x="291.1545608520507" y="457.47367095947266" type="curve"/>
      <point x="544.7773941040037" y="194.6428985595703" type="line"/>
      <point x="535.9080313713915" y="177.96101051140437" type="line"/>
      <point x="497.8304888517899" y="106.34309154574322"/>
      <point x="440.371958402269" y="14.596875000000011"/>
    </contour>
  </outline>
</glyph>
<glyph name="quote" format="2">
  <advance width="243.79109497070317"/>
  <unicode hex="0027"/>
  <outline>
    <contour>
      <point x="137.77639923095705" y="609.8125" type="line"/>
      <point x="137.94109497070315" y="850" type="line"/>
      <point x="107.85000000000001" y="850" type="line"/>
      <point x="108.0146957397461" y="609.8125" type="line"/>
    </contour>
  </outline>
</glyph>
<glyph name="parenleft" format="2">
  <advance width="308.3101620760833"/>
  <unicode hex="0028"/>
  <outline>
    <contour>
      <point x="114.60000000000024" y="425.0000000000001" type="curve" smooth="yes"/>
      <point x="114.60000000000024" y="612.0146160433303"/>
      <point x="169.25839971651862" y="786.3084497062814"/>
      <point x="263.4601620760833" y="932.6875" type="curve"/>
      <point x="227.75043002041923" y="932.6875" type="line"/>
      <point x="136.51740512508331" y="785.0674233689454"/>
      <point x="83.85000000000024" y="611.1357448086733"/>
      <point x="83.85000000000001" y="424.9999999999998" type="curve" smooth="yes"/>
      <point x="83.85000000000024" y="238.8653233500955"/>
      <point x="136.51680065237167" y="64.9345728804609"/>
      <point x="227.748789700595" y="-82.6875" type="curve"/>
      <point x="263.45905581387626" y="-82.6875" type="line"/>
      <point x="169.2580969036743" y="63.69251589992413"/>
      <point x="114.60000000000024" y="237.98590199695772"/>
    </contour>
  </outline>
</glyph>
<glyph name="parenright" format="2">
  <advance width="307.3101620760831"/>
  <unicode hex="0029"/>
  <outline>
    <contour>
      <point x="224.46016207608307" y="425.00000000000006" type="curve" smooth="yes"/>
      <point x="224.46016207608307" y="611.1346766499047"/>
      <point x="171.79336142371153" y="785.0654271195393"/>
      <point x="80.56137237548829" y="932.6875" type="curve"/>
      <point x="44.85110626220704" y="932.6875" type="line"/>
      <point x="139.0520651724089" y="786.3074841000761"/>
      <point x="193.71016207608295" y="612.0140980030425"/>
      <point x="193.71016207608307" y="425.0" type="curve" smooth="yes"/>
      <point x="193.71016207608307" y="237.98538395666986"/>
      <point x="139.0517623595648" y="63.69155029371868"/>
      <point x="44.85000000000001" y="-82.6875" type="curve"/>
      <point x="80.55973205566407" y="-82.6875" type="line"/>
      <point x="171.792756951" y="64.93257663105467"/>
      <point x="224.46016207608307" y="238.86425519132672"/>
    </contour>
  </outline>
</glyph>
<glyph name="asterisk" format="2">
  <advance width="456.4644195556641"/>
  <unicode hex="002A"/>
  <outline>
    <contour>
      <point x="228.23449859619143" y="672.3628845214844" type="line"/>
      <point x="313.46569976806643" y="553.5285949707031" type="line"/>
      <point x="322.5260961240342" y="558.8833147402954"/>
      <point x="331.0372119978183" y="565.0882837627311"/>
      <point x="338.8939682006836" y="572.0382385253906" type="curve"/>
      <point x="252.23047790527346" y="689.7969818115234" type="line"/>
      <point x="391.6144195556641" y="734.1437377929688" type="line"/>
      <point x="389.2998945512877" y="744.574667482902"/>
      <point x="386.02518027588314" y="754.5673491108822"/>
      <point x="381.88882598876955" y="764.0543899536133" type="curve"/>
      <point x="243.06482849121096" y="718.0059509277344" type="line"/>
      <point x="243.9604431152344" y="864.2515335083008" type="line"/>
      <point x="238.7829669224675" y="864.7529043833817"/>
      <point x="233.53736119913708" y="864.9999999999999"/>
      <point x="228.23449859619137" y="864.9999999999999" type="curve" smooth="yes"/>
      <point x="222.93163599324566" y="865.0"/>
      <point x="217.68603026991525" y="864.7529043833819"/>
      <point x="212.5085159301758" y="864.2578125" type="curve"/>
      <point x="213.4041687011719" y="718.0059509277344" type="line"/>
      <point x="74.56972656250001" y="764.0578536987305" type="line"/>
      <point x="70.43558756342792" y="754.54424660719"/>
      <point x="67.16287623377735" y="744.5528831983045"/>
      <point x="64.85000000000001" y="734.1451950073242" type="curve"/>
      <point x="204.2385192871094" y="689.7969818115234" type="line"/>
      <point x="117.57332000732423" y="572.0359191894531" type="line"/>
      <point x="125.42918112689749" y="565.0903888824353"/>
      <point x="133.93930822150628" y="558.8858435031823"/>
      <point x="142.99851379394534" y="553.5219268798828" type="curve"/>
    </contour>
  </outline>
</glyph>
<glyph name="plus" format="2">
  <advance width="793.075"/>
  <unicode hex="002B"/>
  <outline>
    <contour>
      <point x="381.5375" y="142.3125" type="line"/>
      <point x="411.5375" y="142.3125" type="line"/>
      <point x="411.5375" y="410" type="line"/>
      <point x="679.225" y="410" type="line"/>
      <point x="679.225" y="440" type="line"/>
      <point x="411.5375" y="440" type="line"/>
      <point x="411.5375" y="707.6875" type="line"/>
      <point x="381.5375" y="707.6875" type="line"/>
      <point x="381.5375" y="440" type="line"/>
      <point x="113.85000000000001" y="440" type="line"/>
      <point x="113.85000000000001" y="410" type="line"/>
      <point x="381.5375" y="410" type="line"/>
    </contour>
  </outline>
</glyph>
<glyph name="hyphen" format="2">
  <advance width="527.5095238095238"/>
  <unicode hex="002D"/>
  <outline>
    <contour>
      <point x="113.85000000000001" y="276.34375" type="line"/>
      <point x="413.65952380952376" y="276.34375" type="line"/>
      <point x="413.65952380952376" y="306.34375" type="line"/>
      <point x="113.85000000000001" y="306.34375" type="line"/>
    </contour>
  </outline>
</glyph>
<glyph name="period" format="2">
  <advance width="287.8775510204082"/>
  <unicode hex="002E"/>
  <outline>
    <contour>
      <point x="191.02755102040817" y="32.08877551020408" type="curve" smooth="yes"/>
      <point x="191.02755102040817" y="58.07777798769388"/>
      <point x="169.9277779876939" y="79.17755102040816"/>
      <point x="143.9387755102041" y="79.17755102040816" type="curve" smooth="yes"/>
      <point x="117.94977303271428" y="79.17755102040816"/>
      <point x="96.85000000000001" y="58.07777798769388"/>
      <point x="96.85000000000001" y="32.08877551020408" type="curve" smooth="yes"/>
      <point x="96.85000000000001" y="6.099773032714289"/>
      <point x="117.94977303271428" y="-15.0"/>
      <point x="143.9387755102041" y="-15.0" type="curve" smooth="yes"/>
      <point x="169.92777798769384" y="-15.000000000000007"/>
      <point x="191.02755102040817" y="6.099773032714275"/>
    </contour>
  </outline>
</glyph>
<glyph name="slash" format="2">
  <advance width="353.67114562988286"/>
  <unicode hex="002F"/>
  <outline>
    <contour>
      <point x="297.7628646850586" y="932.6875114440918" type="line"/>
      <point x="47.85000000000001" y="0" type="line"/>
      <point x="78.90828857421876" y="0" type="line"/>
      <point x="328.82114562988284" y="932.6875" type="line"/>
    </contour>
  </outline>
</glyph>
<glyph name="zero" format="2">
  <advance width="777.292261904762"/>
  <unicode hex="0030"/>
  <outline>
    <contour>
      <point x="688.442261904762" y="425.0" type="curve" smooth="yes"/>
      <point x="688.442261904762" y="668.2648708451288"/>
      <point x="572.550009093624" y="865.0"/>
      <point x="388.646130952381" y="865.0" type="curve" smooth="yes"/>
      <point x="204.74225281113792" y="865.0"/>
      <point x="88.85000000000001" y="668.2648708451288"/>
      <point x="88.85000000000001" y="425.0" type="curve" smooth="yes"/>
      <point x="88.85000000000001" y="181.73512915487117"/>
      <point x="204.74225281113792" y="-15.0"/>
      <point x="388.646130952381" y="-15.0" type="curve" smooth="yes"/>
      <point x="572.550009093624" y="-15.0"/>
      <point x="688.442261904762" y="181.73512915487117"/>
    </contour>
    <contour>
      <point x="657.692261904762" y="425.0" type="curve" smooth="yes"/>
      <point x="657.692261904762" y="197.88422125518235"/>
      <point x="553.7512929557563" y="14.212499999999977"/>
      <point x="388.646130952381" y="14.212499999999977" type="curve" smooth="yes"/>
      <point x="223.54096894900567" y="14.212499999999977"/>
      <point x="119.60000000000001" y="197.88422125518235"/>
      <point x="119.60000000000001" y="425.0" type="curve" smooth="yes"/>
      <point x="119.60000000000001" y="652.1157787448176"/>
      <point x="223.54096894900567" y="835.7875"/>
      <point x="388.646130952381" y="835.7875" type="curve" smooth="yes"/>
      <point x="553.7512929557563" y="835.7875"/>
      <point x="657.692261904762" y="652.1157787448176"/>
    </contour>
  </outline>
</glyph>
<glyph name="one" format="2">
  <advance width="524.5593521118165"/>
  <unicode hex="0031"/>
  <outline>
    <contour>
      <point x="299.9225021362305" y="0" type="line"/>
      <point x="330.70935211181643" y="0" type="line"/>
      <point x="330.70935211181643" y="850" type="line"/>
      <point x="169.5350051879883" y="850" type="line"/>
      <point x="138.85000000000002" y="820.7874984741211" type="line"/>
      <point x="299.9225021362305" y="820.7874984741211" type="line"/>
    </contour>
  </outline>
</glyph>
<glyph name="two" format="2">
  <advance width="704.0774032592774"/>
  <unicode hex="0032"/>
  <outline>
    <contour>
      <point x="150.25604400634768" y="29.212501525878906" type="line"/>
      <point x="483.3671600493914" y="401.80362287443256" type="line"/>
      <point x="539.9348241682463" y="465.07563149569114"/>
      <point x="588.2274010898306" y="529.7321921101409"/>
      <point x="588.2274010898306" y="626.4200680272108" type="curve"/>
      <point x="588.2274010898306" y="758.0917300792078"/>
      <point x="480.6371122296816" y="865.0"/>
      <point x="348.13139768847" y="865.0" type="curve"/>
      <point x="260.0026715200525" y="865.0"/>
      <point x="181.80273102349815" y="834.0997029430373"/>
      <point x="133.14253387451174" y="778.8964691162109" type="curve"/>
      <point x="133.14253387451174" y="738.8052368164062" type="line"/>
      <point x="177.93588543888967" y="799.4237620918163"/>
      <point x="257.02062926508273" y="835.7875"/>
      <point x="347.07782625989853" y="835.7875000000001" type="curve"/>
      <point x="463.39070252003563" y="835.7875"/>
      <point x="557.8969613554493" y="742.6669355177496"/>
      <point x="557.8969613554493" y="626.9325680272109" type="curve"/>
      <point x="557.8969613554493" y="532.0648991074457"/>
      <point x="505.69862052707447" y="473.02678319164147"/>
      <point x="494.2322174072266" y="460.2041549682617" type="curve"/>
      <point x="493.212361907959" y="459.0535697937012" type="line"/>
      <point x="82.85000000000001" y="0" type="line"/>
      <point x="608.2274032592774" y="0" type="line"/>
      <point x="608.2274032592774" y="29.212501525878906" type="line"/>
    </contour>
  </outline>
</glyph>
<glyph name="three" format="2">
  <advance width="681.9351226806641"/>
  <unicode hex="0033"/>
  <outline>
    <contour>
      <point x="308.46755952380954" y="14.359449976084193" type="curve"/>
      <point x="224.2259399193303" y="14.359449976084203"/>
      <point x="148.14355508945016" y="44.040619835847615"/>
      <point x="93.85000000000001" y="91.72940063476562" type="curve"/>
      <point x="93.85000000000001" y="54.39246368408203" type="line"/>
      <point x="148.92049380360692" y="9.903206515943182"/>
      <point x="224.76200672860307" y="-14.999999999999975"/>
      <point x="308.4675595238094" y="-14.999999999999986" type="curve"/>
      <point x="471.1357598517218" y="-15.0"/>
      <point x="603.0851190476191" y="107.54787499168336"/>
      <point x="603.0851190476191" y="258.3675595238095" type="curve"/>
      <point x="603.0851190476191" y="416.0902670529064"/>
      <point x="466.6222301772177" y="531.735119047619"/>
      <point x="298.46755952380954" y="531.735119047619" type="curve"/>
      <point x="292.3856656622984" y="531.735119047619"/>
      <point x="287.5170111266285" y="531.6041862496261"/>
      <point x="284.5329833984375" y="531.5028991699219" type="curve"/>
      <point x="608.0851226806641" y="850" type="line"/>
      <point x="123.46666870117188" y="850" type="line"/>
      <point x="123.46666870117188" y="820.7874984741211" type="line"/>
      <point x="534.7047515869141" y="820.7874984741211" type="line"/>
      <point x="202.91233215332034" y="494.2137145996094" type="line"/>
      <point x="241.92763930492788" y="501.19792275988203"/>
      <point x="277.65419500895456" y="502.37566907153484"/>
      <point x="296.4354166666667" y="502.37566907153484" type="curve"/>
      <point x="448.76330204207756" y="502.37566907153484"/>
      <point x="572.3351190476191" y="400.9040329542376"/>
      <point x="572.3351190476191" y="258.3675595238095" type="curve"/>
      <point x="572.3351190476191" y="123.75160788442531"/>
      <point x="454.16030092055894" y="14.359449976084193"/>
    </contour>
  </outline>
</glyph>
<glyph name="four" format="2">
  <advance width="715.725001525879"/>
  <unicode hex="0034"/>
  <outline>
    <contour>
      <point x="42.85000000000001" y="254.625" type="line"/>
      <point x="521.1250015258789" y="254.625" type="line"/>
      <point x="521.1250015258789" y="0" type="line"/>
      <point x="551.8750015258789" y="0" type="line"/>
      <point x="551.8750015258789" y="254.625" type="line"/>
      <point x="651.8750015258789" y="254.625" type="line"/>
      <point x="651.8750015258789" y="283.82994842529297" type="line"/>
      <point x="551.8750015258789" y="283.82994842529297" type="line"/>
      <point x="551.8750015258789" y="607.1428604125977" type="line"/>
      <point x="521.1250015258789" y="607.1428604125977" type="line"/>
      <point x="521.1250015258789" y="283.82994842529297" type="line"/>
      <point x="99.91121826171876" y="283.82994842529297" type="line"/>
      <point x="488.256120300293" y="850" type="line"/>
      <point x="451.2011657714844" y="850" type="line"/>
    </contour>
  </outline>
</glyph>
<glyph name="five" format="2">
  <advance width="680.1077402750652"/>
  <unicode hex="0035"/>
  <outline>
    <contour>
      <point x="302.47351408458894" y="14.289375000000007" type="curve"/>
      <point x="217.93637664207193" y="14.289374999999996"/>
      <point x="141.71270071774808" y="43.6437590798491"/>
      <point x="87.85000000000001" y="90.65056610107422" type="curve"/>
      <point x="87.85000000000001" y="55.45972442626953" type="line"/>
      <point x="144.0585271215724" y="11.767023219112652"/>
      <point x="219.52980097983516" y="-15.000000000000018"/>
      <point x="302.5270855131603" y="-15.000000000000028" type="curve"/>
      <point x="465.14003499992555" y="-15.0"/>
      <point x="597.2577402750652" y="109.02523619440316"/>
      <point x="597.2577402750652" y="261.67708333333337" type="curve"/>
      <point x="597.2577402750652" y="417.9483762173812"/>
      <point x="467.4770818570824" y="538.3541666666667"/>
      <point x="307.58065694173183" y="538.3541666666667" type="curve"/>
      <point x="269.53174312820084" y="538.3541666666667"/>
      <point x="223.3489021888518" y="531.7271070065724"/>
      <point x="177.74930725097659" y="510.733642578125" type="curve"/>
      <point x="204.8170867919922" y="820.7874984741211" type="line"/>
      <point x="562.2041717529297" y="820.7874984741211" type="line"/>
      <point x="562.2041717529297" y="850" type="line"/>
      <point x="176.52624664306643" y="850" type="line"/>
      <point x="142.4254852294922" y="459.38516998291016" type="line"/>
      <point x="187.69350285096658" y="490.7784844375688"/>
      <point x="244.66397313276514" y="509.0647916666667"/>
      <point x="306.53779979887463" y="509.0647916666668" type="curve"/>
      <point x="450.03221962549384" y="509.06479166666674"/>
      <point x="566.5077402750652" y="402.71543133690733"/>
      <point x="566.5077402750652" y="261.67708333333337" type="curve"/>
      <point x="566.5077402750652" y="125.1721880565519"/>
      <point x="448.24798557866546" y="14.289375000000007"/>
    </contour>
  </outline>
</glyph>
<glyph name="six" format="2">
  <advance width="731.3350574712645"/>
  <unicode hex="0036"/>
  <outline>
    <contour>
      <point x="157.55688516615612" y="475.39484672602873" type="line"/>
      <point x="110.57178929399846" y="406.99001233571613"/>
      <point x="78.85000000000001" y="351.88992021454044"/>
      <point x="78.85000000000001" y="271.79166666666674" type="curve"/>
      <point x="78.85000000000002" y="113.49276455818966"/>
      <point x="207.36862662715504" y="-14.99999999999998"/>
      <point x="365.6675287356321" y="-15.0" type="curve" smooth="yes"/>
      <point x="523.9664308441093" y="-15.0"/>
      <point x="652.4850574712644" y="113.49276455818963"/>
      <point x="652.4850574712644" y="271.79166666666663" type="curve"/>
      <point x="652.4850574712644" y="430.07010093525867"/>
      <point x="523.9830481335346" y="558.546248204023"/>
      <point x="365.70461386494253" y="558.546248204023" type="curve" smooth="yes"/>
      <point x="315.2535212202631" y="558.546248204023"/>
      <point x="267.8277408917821" y="545.4929528009518"/>
      <point x="226.6246505737305" y="522.5787124633789" type="curve"/>
      <point x="451.55327758789065" y="850" type="line"/>
      <point x="414.8611999511719" y="850" type="line"/>
    </contour>
    <contour>
      <point x="621.7350574712644" y="271.7916666666667" type="curve" smooth="yes"/>
      <point x="621.7350574712644" y="129.59037639338817"/>
      <point x="507.24218779735793" y="14.212499999999977"/>
      <point x="365.66752873563223" y="14.212499999999977" type="curve" smooth="yes"/>
      <point x="224.09286967390653" y="14.212499999999977"/>
      <point x="109.60000000000001" y="129.59037639338817"/>
      <point x="109.60000000000001" y="271.7916666666667" type="curve" smooth="yes"/>
      <point x="109.60000000000001" y="413.9929569399452"/>
      <point x="224.09286967390653" y="529.3708333333334"/>
      <point x="365.66752873563223" y="529.3708333333334" type="curve" smooth="yes"/>
      <point x="507.24218779735793" y="529.3708333333334"/>
      <point x="621.7350574712644" y="413.9929569399452"/>
    </contour>
  </outline>
</glyph>
<glyph name="seven" format="2">
  <advance width="717.1327392578125"/>
  <unicode hex="0037"/>
  <outline>
    <contour>
      <point x="602.5685592651367" y="820.7874984741211" type="line"/>
      <point x="158.72615203857424" y="0" type="line"/>
      <point x="193.67606506347659" y="0" type="line"/>
      <point x="653.2827392578125" y="850" type="line"/>
      <point x="103.85000000000001" y="850" type="line"/>
      <point x="103.85000000000001" y="820.7874984741211" type="line"/>
    </contour>
  </outline>
</glyph>
<glyph name="eight" format="2">
  <advance width="737.0541666666668"/>
  <unicode hex="0038"/>
  <outline>
    <contour>
      <point x="78.85000000000001" y="222.63392857142858" type="curve"/>
      <point x="78.85000000000001" y="91.61839649331384"/>
      <point x="208.43461736850702" y="-14.999999999999972"/>
      <point x="368.5270833333333" y="-15.0" type="curve" smooth="yes"/>
      <point x="528.6195492981597" y="-15.000000000000028"/>
      <point x="658.2041666666668" y="91.61839649331378"/>
      <point x="658.2041666666668" y="222.63392857142856" type="curve"/>
      <point x="658.2041666666668" y="324.73611576714524"/>
      <point x="579.6883066658836" y="411.868745421883"/>
      <point x="469.38574371337893" y="445.46885681152344" type="curve"/>
      <point x="568.4022851346389" y="477.6933305442259"/>
      <point x="638.2041666666668" y="555.981607097167"/>
      <point x="638.2041666666669" y="647.3660714285714" type="curve"/>
      <point x="638.2041666666668" y="767.3444778148563"/>
      <point x="517.5775726045831" y="865.0"/>
      <point x="368.5270833333334" y="865.0" type="curve" smooth="yes"/>
      <point x="219.47659406208368" y="865.0"/>
      <point x="98.85000000000001" y="767.3444778148563"/>
      <point x="98.85000000000001" y="647.3660714285714" type="curve"/>
      <point x="98.85000000000001" y="555.9825681612936"/>
      <point x="168.65041336712602" y="477.6949772162474"/>
      <point x="267.66521606445315" y="445.46014404296875" type="curve"/>
      <point x="157.3642461064179" y="411.866954398938"/>
      <point x="78.85000000000004" y="324.73506640596287"/>
    </contour>
    <contour>
      <point x="607.4541666666668" y="647.7075415640394" type="curve" smooth="yes"/>
      <point x="607.4541666666668" y="535.576636672821"/>
      <point x="500.49803572433586" y="459.62758312807875"/>
      <point x="368.5270833333334" y="459.62758312807875" type="curve" smooth="yes"/>
      <point x="236.55613094233092" y="459.62758312807875"/>
      <point x="129.60000000000002" y="535.576636672821"/>
      <point x="129.60000000000002" y="647.7075415640394" type="curve" smooth="yes"/>
      <point x="129.60000000000002" y="759.8384464552578"/>
      <point x="236.55613094233092" y="835.7875"/>
      <point x="368.5270833333334" y="835.7875" type="curve" smooth="yes"/>
      <point x="500.49803572433586" y="835.7875"/>
      <point x="607.4541666666668" y="759.8384464552578"/>
    </contour>
    <contour>
      <point x="627.4541666666668" y="222.2924584359606" type="curve" smooth="yes"/>
      <point x="627.4541666666668" y="99.12438820232569"/>
      <point x="511.5490446122607" y="14.212500000000006"/>
      <point x="368.5270833333334" y="14.212500000000006" type="curve" smooth="yes"/>
      <point x="225.505122054406" y="14.212500000000006"/>
      <point x="109.60000000000001" y="99.12438820232569"/>
      <point x="109.60000000000001" y="222.2924584359606" type="curve" smooth="yes"/>
      <point x="109.60000000000001" y="345.46052866959553"/>
      <point x="225.505122054406" y="430.37241687192125"/>
      <point x="368.5270833333334" y="430.37241687192125" type="curve" smooth="yes"/>
      <point x="511.5490446122607" y="430.37241687192125"/>
      <point x="627.4541666666668" y="345.46052866959553"/>
    </contour>
  </outline>
</glyph>
<glyph name="nine" format="2">
  <advance width="731.3350574712645"/>
  <unicode hex="0039"/>
  <outline>
    <contour>
      <point x="573.7781708896283" y="374.6051529210638" type="line"/>
      <point x="620.7632659090258" y="443.00998789711014"/>
      <point x="652.4850574712644" y="498.11007978545956"/>
      <point x="652.4850574712644" y="578.2083333333333" type="curve"/>
      <point x="652.4850574712644" y="736.5072354418103"/>
      <point x="523.9664308441093" y="865.0"/>
      <point x="365.66752873563223" y="865.0" type="curve" smooth="yes"/>
      <point x="207.3686266271552" y="865.0"/>
      <point x="78.85000000000001" y="736.5072354418103"/>
      <point x="78.85000000000001" y="578.2083333333333" type="curve"/>
      <point x="78.85000000000001" y="419.9298990647413"/>
      <point x="207.35200933772984" y="291.4537517959769"/>
      <point x="365.6304436063218" y="291.4537517959769" type="curve" smooth="yes"/>
      <point x="416.08153625100124" y="291.4537517959769"/>
      <point x="463.5073165794822" y="304.5070471990481"/>
      <point x="504.7104125976563" y="327.4212875366211" type="curve"/>
      <point x="279.7817855834961" y="0" type="line"/>
      <point x="316.47386322021487" y="0" type="line"/>
    </contour>
    <contour>
      <point x="621.7350574712644" y="578.2083333333333" type="curve" smooth="yes"/>
      <point x="621.7350574712644" y="436.00704306005474"/>
      <point x="507.24218779735793" y="320.62916666666655"/>
      <point x="365.66752873563223" y="320.62916666666655" type="curve" smooth="yes"/>
      <point x="224.09286967390653" y="320.62916666666655"/>
      <point x="109.60000000000001" y="436.00704306005474"/>
      <point x="109.60000000000001" y="578.2083333333333" type="curve" smooth="yes"/>
      <point x="109.60000000000001" y="720.4096236066118"/>
      <point x="224.09286967390653" y="835.7874999999999"/>
      <point x="365.66752873563223" y="835.7874999999999" type="curve" smooth="yes"/>
      <point x="507.24218779735793" y="835.7874999999999"/>
      <point x="621.7350574712644" y="720.4096236066118"/>
    </contour>
  </outline>
</glyph>
<glyph name="colon" format="2">
  <advance width="293.8775510204082"/>
  <unicode hex="003A"/>
  <outline>
    <contour>
      <point x="194.02755102040817" y="550.5987244897959" type="curve" smooth="yes"/>
      <point x="194.02755102040817" y="576.5877269672857"/>
      <point x="172.9277779876939" y="597.6875"/>
      <point x="146.9387755102041" y="597.6875" type="curve" smooth="yes"/>
      <point x="120.94977303271428" y="597.6875"/>
      <point x="99.85000000000001" y="576.5877269672857"/>
      <point x="99.85000000000001" y="550.5987244897959" type="curve" smooth="yes"/>
      <point x="99.85000000000001" y="524.6097220123062"/>
      <point x="120.94977303271428" y="503.50994897959185"/>
      <point x="146.9387755102041" y="503.50994897959185" type="curve" smooth="yes"/>
      <point x="172.92777798769384" y="503.50994897959185"/>
      <point x="194.02755102040817" y="524.6097220123061"/>
    </contour>
    <contour>
      <point x="194.02755102040817" y="32.08877551020408" type="curve" smooth="yes"/>
      <point x="194.02755102040817" y="58.07777798769388"/>
      <point x="172.9277779876939" y="79.17755102040816"/>
      <point x="146.9387755102041" y="79.17755102040816" type="curve" smooth="yes"/>
      <point x="120.94977303271428" y="79.17755102040816"/>
      <point x="99.85000000000001" y="58.07777798769388"/>
      <point x="99.85000000000001" y="32.08877551020408" type="curve" smooth="yes"/>
      <point x="99.85000000000001" y="6.099773032714289"/>
      <point x="120.94977303271428" y="-15.0"/>
      <point x="146.9387755102041" y="-15.0" type="curve" smooth="yes"/>
      <point x="172.92777798769384" y="-15.000000000000007"/>
      <point x="194.02755102040817" y="6.099773032714275"/>
    </contour>
  </outline>
</glyph>
<glyph name="semicolon" format="2">
  <advance width="301.37136333007527"/>
  <unicode hex="003B"/>
  <outline>
    <contour>
      <point x="194.02755102040817" y="550.5987244897959" type="curve" smooth="yes"/>
      <point x="194.02755102040817" y="576.5877269672857"/>
      <point x="172.9277779876939" y="597.6875"/>
      <point x="146.9387755102041" y="597.6875" type="curve" smooth="yes"/>
      <point x="120.94977303271428" y="597.6875"/>
      <point x="99.85000000000001" y="576.5877269672857"/>
      <point x="99.85000000000001" y="550.5987244897959" type="curve" smooth="yes"/>
      <point x="99.85000000000001" y="524.6097220123062"/>
      <point x="120.94977303271428" y="503.50994897959185"/>
      <point x="146.9387755102041" y="503.50994897959185" type="curve" smooth="yes"/>
      <point x="172.92777798769384" y="503.50994897959185"/>
      <point x="194.02755102040817" y="524.6097220123061"/>
    </contour>
    <contour>
      <point x="185.94395261578956" y="3.24375069730362" type="curve"/>
      <point x="185.94395261578956" y="-20.02559232154184"/>
      <point x="180.520904332748" y="-100.45424519405958"/>
      <point x="104.38919207514549" y="-154.5641326904297" type="curve"/>
      <point x="132.49487444819238" y="-154.5641326904297" type="line"/>
      <point x="205.9814151612931" y="-99.46824758355604"/>
      <point x="211.52136333007525" y="-20.939044577005802"/>
      <point x="211.52136333007525" y="3.243750697303639" type="curve"/>
      <point x="211.52136333007525" y="8.725329135828197"/>
      <point x="211.22053335398613" y="23.71758946679886"/>
      <point x="203.9109445125332" y="41.22543371849013" type="curve"/>
      <point x="192.51975922779462" y="68.50947145757017"/>
      <point x="166.73390072998865" y="79.17755102040815"/>
      <point x="146.9387755102041" y="79.17755102040815" type="curve"/>
      <point x="120.94977303271428" y="79.17755102040816"/>
      <point x="99.85000000000001" y="58.077777987693835"/>
      <point x="99.85000000000001" y="32.08877551020408" type="curve" smooth="yes"/>
      <point x="99.85000000000001" y="6.099773032714289"/>
      <point x="120.94977303271428" y="-15.0"/>
      <point x="146.9387755102041" y="-15.0" type="curve"/>
      <point x="163.12792290048947" y="-15.0"/>
      <point x="177.41988760906668" y="-6.812590421909388"/>
      <point x="185.89632555903222" y="5.750579833984375" type="curve"/>
      <point x="185.9425685386837" y="4.660303150125504"/>
      <point x="185.94395261578956" y="3.596771699706454"/>
    </contour>
  </outline>
</glyph>
<glyph name="less" format="2">
  <advance width="711.3875"/>
  <unicode hex="003C"/>
  <outline>
    <contour>
      <point x="627.5375" y="150.96875" type="line"/>
      <point x="627.5375" y="184.1180419921875" type="line"/>
      <point x="115.3144012451172" y="425" type="line"/>
      <point x="627.5375" y="665.8819580078125" type="line"/>
      <point x="627.5375" y="699.03125" type="line"/>
      <point x="44.85000000000001" y="425" type="line"/>
    </contour>
  </outline>
</glyph>
<glyph name="equal" format="2">
  <advance width="793.075"/>
  <unicode hex="003D"/>
  <outline>
    <contour>
      <point x="113.85000000000001" y="580.775" type="line"/>
      <point x="679.225" y="580.775" type="line"/>
      <point x="679.225" y="610.775" type="line"/>
      <point x="113.85000000000001" y="610.775" type="line"/>
    </contour>
    <contour>
      <point x="113.85000000000001" y="239.22500000000002" type="line"/>
      <point x="679.225" y="239.22500000000002" type="line"/>
      <point x="679.225" y="269.225" type="line"/>
      <point x="113.85000000000001" y="269.225" type="line"/>
    </contour>
  </outline>
</glyph>
<glyph name="greater" format="2">
  <advance width="711.3875"/>
  <unicode hex="003E"/>
  <outline>
    <contour>
      <point x="83.85000000000001" y="150.96875" type="line"/>
      <point x="666.5375" y="425" type="line"/>
      <point x="83.85000000000001" y="699.03125" type="line"/>
      <point x="83.85000000000001" y="665.8819580078125" type="line"/>
      <point x="596.0730987548828" y="425" type="line"/>
      <point x="83.85000000000001" y="184.1180419921875" type="line"/>
    </contour>
  </outline>
</glyph>
<glyph name="question" format="2">
  <advance width="629.7580357142858"/>
  <unicode hex="003F"/>
  <outline>
    <contour>
      <point x="268.3790178571429" y="387.1544642857142" type="curve"/>
      <point x="242.8709711280868" y="387.1544642880479"/>
      <point x="218.26034724555268" y="390.92922324181194"/>
      <point x="195.0636917114258" y="397.96630096435547" type="curve"/>
      <point x="195.44938049316409" y="178.02754974365234" type="line"/>
      <point x="223.97265777587893" y="178.02754974365234" type="line"/>
      <point x="224.61689910888674" y="361.7152862548828" type="line"/>
      <point x="243.34959273433498" y="358.44585528159575"/>
      <point x="258.7704902252609" y="357.9419642857143"/>
      <point x="268.3790178571428" y="357.9419642857142" type="curve"/>
      <point x="416.62691179173777" y="357.9419642857142"/>
      <point x="536.9080357142858" y="471.1708582064276"/>
      <point x="536.9080357142858" y="611.4709821428571" type="curve"/>
      <point x="536.9080357142858" y="751.3974551040626"/>
      <point x="423.30549081834835" y="865.0"/>
      <point x="283.3790178571429" y="865.0" type="curve"/>
      <point x="221.35992783065797" y="865.0"/>
      <point x="164.41569126181525" y="843.6438876265248"/>
      <point x="119.85000000000001" y="807.9603042602539" type="curve"/>
      <point x="119.85000000000001" y="772.4626541137695" type="line"/>
      <point x="162.6718188440629" y="811.8437913761172"/>
      <point x="220.17862391429367" y="835.7875000000001"/>
      <point x="283.3790178571429" y="835.7875000000003" type="curve"/>
      <point x="407.05477400423945" y="835.7875"/>
      <point x="506.1580357142858" y="735.269268698223"/>
      <point x="506.1580357142858" y="611.4709821428571" type="curve"/>
      <point x="506.1580357142858" y="487.555979494433"/>
      <point x="399.65234164112786" y="387.1544642857142"/>
    </contour>
    <contour>
      <point x="256.7997976776918" y="32.08877551020408" type="curve" smooth="yes"/>
      <point x="256.7997976776918" y="58.07777798769388"/>
      <point x="235.70002464497753" y="79.17755102040816"/>
      <point x="209.71102216748773" y="79.17755102040816" type="curve" smooth="yes"/>
      <point x="183.72201968999792" y="79.17755102040816"/>
      <point x="162.62224665728365" y="58.07777798769388"/>
      <point x="162.62224665728365" y="32.08877551020408" type="curve" smooth="yes"/>
      <point x="162.62224665728365" y="6.099773032714289"/>
      <point x="183.72201968999792" y="-15.0"/>
      <point x="209.71102216748773" y="-15.0" type="curve" smooth="yes"/>
      <point x="235.70002464497753" y="-15.000000000000007"/>
      <point x="256.7997976776918" y="6.099773032714275"/>
    </contour>
  </outline>
</glyph>
<glyph name="at" format="2">
  <advance width="1127.6999999999998"/>
  <unicode hex="0040"/>
  <outline>
    <contour>
      <point x="79.44625" y="425.00000000000006" type="curve"/>
      <point x="79.44625" y="692.3497053693251"/>
      <point x="296.50029463067506" y="909.40375"/>
      <point x="563.85" y="909.40375" type="curve" smooth="yes"/>
      <point x="831.1997053693253" y="909.40375"/>
      <point x="1048.2537499999999" y="692.3497053693252"/>
      <point x="1048.2537499999999" y="425.0" type="curve"/>
      <point x="1048.25375" y="318.567110593482"/>
      <point x="1025.2613720333916" y="192.44821428571424"/>
      <point x="939.7830357142858" y="192.44821428571424" type="curve"/>
      <point x="864.2144740347001" y="192.4482142857143"/>
      <point x="823.519644743028" y="278.4138090551733"/>
      <point x="823.51964220247" y="472.44642857142856" type="curve"/>
      <point x="823.5196395874024" y="672.1696395874023" type="line"/>
      <point x="793.1540161132813" y="672.1696395874023" type="line"/>
      <point x="793.1540161132813" y="545.5107421875" type="line"/>
      <point x="748.8313945124963" y="629.7140648597493"/>
      <point x="660.470701244769" y="687.1696428571428"/>
      <point x="558.7964285714287" y="687.1696428571428" type="curve"/>
      <point x="412.69171046446434" y="687.1696428571429"/>
      <point x="294.07321428571424" y="568.5511466783929"/>
      <point x="294.07321428571424" y="422.44642857142856" type="curve" smooth="yes"/>
      <point x="294.07321428571424" y="276.3417104644643"/>
      <point x="412.6917104644642" y="157.72321428571428"/>
      <point x="558.7964285714285" y="157.72321428571428" type="curve"/>
      <point x="666.9403762957455" y="157.72321428571428"/>
      <point x="760.0245065048648" y="222.71479119448773"/>
      <point x="801.0877624511719" y="315.7388000488281" type="curve"/>
      <point x="816.979862038339" y="225.42982582304808"/>
      <point x="857.0577327675095" y="162.72321428571425"/>
      <point x="933.2830357142858" y="162.7232142857143" type="curve"/>
      <point x="1044.9442423432017" y="162.72321428571428"/>
      <point x="1078.85" y="278.4096285930001"/>
      <point x="1078.85" y="425.0" type="curve"/>
      <point x="1078.85" y="709.2362353000002"/>
      <point x="848.0862353000002" y="940.0"/>
      <point x="563.85" y="940.0" type="curve" smooth="yes"/>
      <point x="279.61376470000005" y="940.0"/>
      <point x="48.85000000000001" y="709.2362353000001"/>
      <point x="48.85000000000001" y="425.00000000000006" type="curve"/>
      <point x="48.85000000000002" y="140.76376469999985"/>
      <point x="279.6137646999997" y="-89.99999999999997"/>
      <point x="563.8499999999999" y="-90.0" type="curve"/>
      <point x="655.0345958917239" y="-90.0"/>
      <point x="743.7259319165489" y="-65.81771036252256"/>
      <point x="821.35" y="-21.002723693847656" type="curve"/>
      <point x="821.35" y="14.711540222167969" type="line"/>
      <point x="744.8011828410345" y="-33.334779832584125"/>
      <point x="655.6694823023194" y="-59.40375"/>
      <point x="563.8500000000001" y="-59.40375" type="curve"/>
      <point x="296.50029463067483" y="-59.40374999999997"/>
      <point x="79.44624999999995" y="157.65029463067492"/>
    </contour>
    <contour>
      <point x="792.7696428571429" y="422.44642857142856" type="curve" smooth="yes"/>
      <point x="792.7696428571429" y="292.46099450253877"/>
      <point x="688.1813218406689" y="186.9357142857143"/>
      <point x="558.7964285714286" y="186.9357142857143" type="curve" smooth="yes"/>
      <point x="429.4115353021882" y="186.9357142857143"/>
      <point x="324.82321428571424" y="292.46099450253877"/>
      <point x="324.82321428571424" y="422.44642857142856" type="curve" smooth="yes"/>
      <point x="324.82321428571424" y="552.4318626403183"/>
      <point x="429.4115353021882" y="657.9571428571428"/>
      <point x="558.7964285714286" y="657.9571428571428" type="curve" smooth="yes"/>
      <point x="688.1813218406689" y="657.9571428571428"/>
      <point x="792.7696428571429" y="552.4318626403183"/>
    </contour>
  </outline>
</glyph>
<glyph name="E" format="2">
  <advance width="660.9827377319336"/>
  <unicode hex="0045"/>
  <anchor x="343.95230654761906" y="973.9472733990148" name="top" identifier="top"/>
  <anchor x="342.99136904761906" y="-144.60515229885058" name="below" identifier="below"/>
  <anchor x="343.95230654761906" y="0" name="bottom" identifier="bottom"/>
  <anchor x="572.1327380952381" y="0" name="ogonek" identifier="ogonek"/>
  <outline>
    <contour>
      <point x="113.85000000000001" y="0" type="line"/>
      <point x="572.1327377319336" y="0" type="line"/>
      <point x="572.1327377319336" y="29.212501525878906" type="line"/>
      <point x="144.60000000000002" y="29.212501525878906" type="line"/>
      <point x="144.60000000000002" y="415.4100036621094" type="line"/>
      <point x="542.1327377319336" y="415.4100036621094" type="line"/>
      <point x="542.1327377319336" y="444.5899963378906" type="line"/>
      <point x="144.60000000000002" y="444.5899963378906" type="line"/>
      <point x="144.60000000000002" y="820.7874984741211" type="line"/>
      <point x="572.1327377319336" y="820.7874984741211" type="line"/>
      <point x="572.1327377319336" y="850" type="line"/>
      <point x="113.85000000000001" y="850" type="line"/>
    </contour>
  </outline>
</glyph>
<glyph name="F" format="2">
  <advance width="630.0303604125977"/>
  <unicode hex="0046"/>
  <anchor x="345.9761160714286" y="973.9472733990148" name="top" identifier="top"/>
  <anchor x="144.60000000000002" y="0" name="lefthook" identifier="lefthook"/>
  <outline>
    <contour>
      <point x="113.85000000000001" y="0" type="line"/>
      <point x="144.60000000000002" y="0" type="line"/>
      <point x="144.60000000000002" y="415.4026336669922" type="line"/>
      <point x="531.1803604125977" y="415.4026336669922" type="line"/>
      <point x="531.1803604125977" y="444.5973663330078" type="line"/>
      <point x="144.60000000000002" y="444.5973663330078" type="line"/>
      <point x="144.60000000000002" y="820.7874984741211" type="line"/>
      <point x="576.1803604125977" y="820.7874984741211" type="line"/>
      <point x="576.1803604125977" y="850" type="line"/>
      <point x="113.85000000000001" y="850" type="line"/>
    </contour>
  </outline>
</glyph>
<glyph name="H" format="2">
  <advance width="788.2238113403321"/>
  <unicode hex="0048"/>
  <anchor x="394.1119047619047" y="973.9472733990148" name="top" identifier="top"/>
  <anchor x="394.1119047619047" y="-144.60515229885058" name="below" identifier="below"/>
  <anchor x="394.1119047619047" y="644.803125" name="stroke" identifier="stroke"/>
  <anchor x="132.6875" y="0" name="bottom" identifier="bottom"/>
  <outline>
    <contour>
      <point x="113.85000000000001" y="0" type="line"/>
      <point x="144.60000000000002" y="0" type="line"/>
      <point x="144.60000000000002" y="415.3937530517578" type="line"/>
      <point x="643.623811340332" y="415.3937530517578" type="line"/>
      <point x="643.623811340332" y="0" type="line"/>
      <point x="674.373811340332" y="0" type="line"/>
      <point x="674.373811340332" y="850" type="line"/>
      <point x="643.623811340332" y="850" type="line"/>
      <point x="643.623811340332" y="444.6062469482422" type="line"/>
      <point x="144.60000000000002" y="444.6062469482422" type="line"/>
      <point x="144.60000000000002" y="850" type="line"/>
      <point x="113.85000000000001" y="850" type="line"/>
    </contour>
  </outline>
</glyph>
<glyph name="I" format="2">
  <advance width="258.473275862069"/>
  <unicode hex="0049"/>
  <anchor x="129.23663793103447" y="973.9472733990148" name="top" identifier="top"/>
  <anchor x="129.23663793103447" y="-144.60515229885058" name="below" identifier="below"/>
  <anchor x="144.62327586206897" y="0" name="ogonek" identifier="ogonek"/>
  <anchor x="129.23663793103447" y="425.0" name="stroke" identifier="stroke"/>
  <outline>
    <contour>
      <point x="113.85000000000001" y="0" type="line"/>
      <point x="144.62327586206897" y="0" type="line"/>
      <point x="144.62327586206897" y="850" type="line"/>
      <point x="113.85000000000001" y="850" type="line"/>
    </contour>
  </outline>
</glyph>
<glyph name="J" format="2">
  <advance width="566.0187191073021"/>
  <unicode hex="004A"/>
  <anchor x="452.7937192118227" y="973.9472733990148" name="top" identifier="top"/>
  <outline>
    <contour>
      <point x="203.61068349753697" y="14.212500000000006" type="curve"/>
      <point x="143.08220724269597" y="14.212500000000013"/>
      <point x="87.6445778786739" y="36.326685802943054"/>
      <point x="44.85000000000001" y="72.97174835205078" type="curve"/>
      <point x="44.85000000000001" y="37.98712921142578" type="line"/>
      <point x="89.08314866872128" y="4.716560844565372"/>
      <point x="144.06255999831495" y="-15.000000000000021"/>
      <point x="203.6106834975369" y="-15.000000000000021" type="curve"/>
      <point x="285.55897951098996" y="-15.000000000000009"/>
      <point x="468.1687196871802" y="22.107452945224736"/>
      <point x="468.1687191073021" y="299.50631157635473" type="curve"/>
      <point x="468.168717956543" y="850" type="line"/>
      <point x="437.418717956543" y="850" type="line"/>
      <point x="437.418717956543" y="299.5580368041992" type="line"/>
      <point x="437.418717956543" y="40.14836102004017"/>
      <point x="271.28435290919913" y="14.212500000000006"/>
    </contour>
  </outline>
</glyph>
<glyph name="K" format="2">
  <advance width="697.9266998291016"/>
  <unicode hex="004B"/>
  <anchor x="345.5834183673469" y="973.9472733990148" name="top" identifier="top"/>
  <anchor x="352.39910714285713" y="0" name="bottom" identifier="bottom"/>
  <anchor x="352.39910714285713" y="-144.60515229885058" name="below" identifier="below"/>
  <outline>
    <contour>
      <point x="113.85000000000001" y="0" type="line"/>
      <point x="144.60000000000002" y="0" type="line"/>
      <point x="144.60000000000002" y="365.02491760253906" type="line"/>
      <point x="199.97335205078127" y="417.2527084350586" type="line"/>
      <point x="644.1715408325196" y="0" type="line"/>
      <point x="689.0766998291016" y="0" type="line"/>
      <point x="222.368180847168" y="438.3753662109375" type="line"/>
      <point x="658.7840209960938" y="850" type="line"/>
      <point x="616.2234741210938" y="850" type="line"/>
      <point x="144.60000000000002" y="405.14996337890625" type="line"/>
      <point x="144.60000000000002" y="850" type="line"/>
      <point x="113.85000000000001" y="850" type="line"/>
    </contour>
  </outline>
</glyph>
<glyph name="L" format="2">
  <advance width="589.5541641235352"/>
  <unicode hex="004C"/>
  <anchor x="129.22500000000002" y="973.9472733990148" name="top" identifier="top"/>
  <anchor x="324.77708333333334" y="0" name="bottom" identifier="bottom"/>
  <anchor x="324.77708333333334" y="-144.60515229885058" name="below" identifier="below"/>
  <anchor x="234.1174752326218" y="850" name="right" identifier="right"/>
  <anchor x="129.22500000000002" y="425.0" name="stroke" identifier="stroke"/>
  <anchor x="350.7468189655172" y="440.375" name="dotmiddle" identifier="dotmiddle"/>
  <outline>
    <contour>
      <point x="113.85000000000001" y="0" type="line"/>
      <point x="535.7041641235352" y="0" type="line"/>
      <point x="535.7041641235352" y="29.212501525878906" type="line"/>
      <point x="144.60000000000002" y="29.212501525878906" type="line"/>
      <point x="144.60000000000002" y="850" type="line"/>
      <point x="113.85000000000001" y="850" type="line"/>
    </contour>
  </outline>
</glyph>
<glyph name="M" format="2">
  <advance width="1016.9857131958008"/>
  <unicode hex="004D"/>
  <anchor x="508.49285714285713" y="973.9472733990148" name="top" identifier="top"/>
  <anchor x="508.49285714285713" y="-144.60515229885058" name="below" identifier="below"/>
  <outline>
    <contour>
      <point x="113.85000000000001" y="0" type="line"/>
      <point x="143.06250152587893" y="0" type="line"/>
      <point x="143.06250152587893" y="779.2898941040039" type="line"/>
      <point x="507.5343948364258" y="289.82096099853516" type="line"/>
      <point x="872.3857131958008" y="779.7994537353516" type="line"/>
      <point x="872.3857131958008" y="0" type="line"/>
      <point x="903.1357131958008" y="0" type="line"/>
      <point x="903.1357131958008" y="870" type="line"/>
      <point x="508.4928604125977" y="340.0128479003906" type="line"/>
      <point x="113.85000000000001" y="870" type="line"/>
    </contour>
  </outline>
</glyph>
<glyph name="N" format="2">
  <advance width="936.0333358764649"/>
  <unicode hex="004E"/>
  <anchor x="468.01666666666665" y="973.9472733990148" name="top" identifier="top"/>
  <anchor x="468.01666666666665" y="-144.60515229885058" name="below" identifier="below"/>
  <anchor x="468.01666666666665" y="0" name="bottom" identifier="bottom"/>
  <anchor x="822.1833333333333" y="0" name="right" identifier="right"/>
  <anchor x="143.0625" y="0" name="lefthook" identifier="lefthook"/>
  <outline>
    <contour>
      <point x="143.06250152587893" y="787.501708984375" type="line"/>
      <point x="822.1833358764649" y="-20" type="line"/>
      <point x="822.1833358764649" y="850" type="line"/>
      <point x="792.970834350586" y="850" type="line"/>
      <point x="792.970834350586" y="62.498291015625" type="line"/>
      <point x="113.85000000000001" y="870" type="line"/>
      <point x="113.85000000000001" y="0" type="line"/>
      <point x="143.06250152587893" y="0" type="line"/>
    </contour>
  </outline>
</glyph>
<glyph name="Q" format="2">
  <advance width="954.8967163085938"/>
  <unicode hex="0051"/>
  <outline>
    <contour>
      <point x="938.8531810344828" y="425.0" type="curve" smooth="yes"/>
      <point x="938.8531810344828" y="670.6030617303551"/>
      <point x="739.4546522475965" y="865.0"/>
      <point x="493.85159051724133" y="865.0" type="curve" smooth="yes"/>
      <point x="248.24852878688625" y="865.0"/>
      <point x="48.85000000000001" y="670.6030617303551"/>
      <point x="48.85000000000001" y="425.0" type="curve" smooth="yes"/>
      <point x="48.85000000000001" y="179.3969382696449"/>
      <point x="248.24852878688625" y="-15.0"/>
      <point x="493.85159051724133" y="-15.0" type="curve" smooth="yes"/>
      <point x="610.5815680933829" y="-15.0"/>
      <point x="716.8743978160904" y="28.912349237629066"/>
      <point x="796.2832885742188" y="101.37317657470703" type="curve"/>
      <point x="897.6564651489258" y="0" type="line"/>
      <point x="940.0467163085938" y="0" type="line"/>
      <point x="817.7314849853516" y="122.31523132324219" type="line"/>
      <point x="892.8138909925591" y="200.79307830203737"/>
      <point x="938.8531810344826" y="306.98502720488534"/>
    </contour>
    <contour>
      <point x="902.9683035714286" y="425.0" type="curve" smooth="yes"/>
      <point x="902.9683035714286" y="198.2782039922744"/>
      <point x="720.1079879245436" y="14.212499999999977"/>
      <point x="493.85159051724133" y="14.212499999999977" type="curve" smooth="yes"/>
      <point x="267.59519310993903" y="14.212499999999977"/>
      <point x="84.73487746305419" y="198.2782039922744"/>
      <point x="84.73487746305419" y="425.0" type="curve" smooth="yes"/>
      <point x="84.73487746305419" y="651.7217960077256"/>
      <point x="267.59519310993903" y="835.7875"/>
      <point x="493.85159051724133" y="835.7875" type="curve" smooth="yes"/>
      <point x="720.1079879245436" y="835.7875"/>
      <point x="902.9683035714286" y="651.7217960077256"/>
    </contour>
  </outline>
</glyph>
<glyph name="T" format="2">
  <advance width="657.0541641235352"/>
  <unicode hex="0054"/>
  <anchor x="328.5270833333334" y="973.9472733990148" name="top" identifier="top"/>
  <anchor x="328.5270833333334" y="-144.60515229885058" name="below" identifier="below"/>
  <anchor x="328.5270833333334" y="0" name="bottom" identifier="bottom"/>
  <anchor x="328.5270833333334" y="417.3125" name="stroke" identifier="stroke"/>
  <outline>
    <contour>
      <point x="343.90208587646487" y="0" type="line"/>
      <point x="343.90208587646487" y="820.7874984741211" type="line"/>
      <point x="603.2041641235352" y="820.7874984741211" type="line"/>
      <point x="603.2041641235352" y="850" type="line"/>
      <point x="53.85000000000001" y="850" type="line"/>
      <point x="53.85000000000001" y="820.7874984741211" type="line"/>
      <point x="313.15208587646487" y="820.7874984741211" type="line"/>
      <point x="313.15208587646487" y="0" type="line"/>
    </contour>
  </outline>
</glyph>
<glyph name="U" format="2">
  <advance width="784.6136903158889"/>
  <unicode hex="0055"/>
  <anchor x="392.3068452380952" y="973.9472733990148" name="top" identifier="top"/>
  <anchor x="392.3068452380952" y="-144.60515229885058" name="below" identifier="below"/>
  <anchor x="690.7636904761905" y="746.1666666666666" name="horn" identifier="horn"/>
  <outline>
    <contour>
      <point x="93.85000000000001" y="333.4051208496094" type="line"/>
      <point x="93.85000000000002" y="39.199966628856316"/>
      <point x="288.6927348140931" y="-14.999999999999988"/>
      <point x="392.3068452380952" y="-15.0" type="curve" smooth="yes"/>
      <point x="495.9209556620973" y="-15.0"/>
      <point x="690.7636912591206" y="39.19996687941108"/>
      <point x="690.7636903158888" y="333.40512110016414" type="curve"/>
      <point x="690.763688659668" y="850" type="line"/>
      <point x="660.013688659668" y="850" type="line"/>
      <point x="660.013688659668" y="332.68809509277344" type="line"/>
      <point x="660.013688659668" y="52.178272037740044"/>
      <point x="475.36088995190465" y="14.212499999999977"/>
      <point x="392.3068452380952" y="14.212499999999977" type="curve" smooth="yes"/>
      <point x="309.25280052428576" y="14.212499999999988"/>
      <point x="124.60000000000004" y="52.17827218306189"/>
      <point x="124.60000000000001" y="332.6880952380953" type="curve"/>
      <point x="124.60000000000001" y="850" type="line"/>
      <point x="93.85000000000001" y="850" type="line"/>
    </contour>
  </outline>
</glyph>
<glyph name="V" format="2">
  <advance width="817.1047622680665"/>
  <unicode hex="0056"/>
  <anchor x="408.552380952381" y="973.9472733990148" name="top" identifier="top"/>
  <anchor x="408.552380952381" y="-144.60515229885058" name="below" identifier="below"/>
  <outline>
    <contour>
      <point x="808.2547622680664" y="850" type="line"/>
      <point x="776.1099639892578" y="850" type="line"/>
      <point x="409.3983627319336" y="51.749053955078125" type="line"/>
      <point x="42.68675384521485" y="850" type="line"/>
      <point x="8.850000000000009" y="850" type="line"/>
      <point x="408.55237731933596" y="-20" type="line"/>
    </contour>
  </outline>
</glyph>
<glyph name="W" format="2">
  <advance width="1207.5095245361326"/>
  <unicode hex="0057"/>
  <anchor x="603.754761904762" y="973.9472733990148" name="top" identifier="top"/>
  <anchor x="603.754761904762" y="-144.60515229885058" name="below" identifier="below"/>
  <outline>
    <contour>
      <point x="1190.6595245361327" y="850" type="line"/>
      <point x="1159.8046966552733" y="850" type="line"/>
      <point x="897.1312805175781" y="69.4178237915039" type="line"/>
      <point x="604.5705276489258" y="849.9881439208984" type="line"/>
      <point x="312.00976715087893" y="69.4178237915039" type="line"/>
      <point x="49.3363510131836" y="850" type="line"/>
      <point x="16.85000000000001" y="850" type="line"/>
      <point x="309.62505493164065" y="-20" type="line"/>
      <point x="603.7547622680664" y="764.7291488647461" type="line"/>
      <point x="897.8844696044922" y="-20" type="line"/>
    </contour>
  </outline>
</glyph>
<glyph name="X" format="2">
  <advance width="728.1880981445313"/>
  <unicode hex="0058"/>
  <anchor x="364.0940505254837" y="973.9472733990148" name="top" identifier="top"/>
  <outline>
    <contour>
      <point x="688.3380981445313" y="0" type="line"/>
      <point x="387.0453125" y="429.4480285644531" type="line"/>
      <point x="682.0972152709961" y="850" type="line"/>
      <point x="646.4160629272461" y="850" type="line"/>
      <point x="366.95852813720705" y="451.6297149658203" type="line"/>
      <point x="87.50099334716798" y="850" type="line"/>
      <point x="49.941781616210946" y="850" type="line"/>
      <point x="343.0682312011719" y="432.19246673583984" type="line"/>
      <point x="39.85000000000001" y="0" type="line"/>
      <point x="75.5311981201172" y="0" type="line"/>
      <point x="363.15501556396487" y="410.01082611083984" type="line"/>
      <point x="650.7788330078125" y="0" type="line"/>
    </contour>
  </outline>
</glyph>
<glyph name="Z" format="2">
  <advance width="702.1970245361329"/>
  <unicode hex="005A"/>
  <anchor x="352.59851190476195" y="973.9472733990148" name="top" identifier="top"/>
  <anchor x="352.59851190476195" y="-144.60515229885058" name="below" identifier="below"/>
  <anchor x="352.59851190476195" y="425.0" name="stroke" identifier="stroke"/>
  <outline>
    <contour>
      <point x="126.0541244506836" y="29.212501525878906" type="line"/>
      <point x="633.3470245361328" y="850" type="line"/>
      <point x="86.85000000000001" y="850" type="line"/>
      <point x="86.85000000000001" y="820.7874984741211" type="line"/>
      <point x="579.1429000854492" y="820.7874984741211" type="line"/>
      <point x="71.85000000000001" y="0" type="line"/>
      <point x="628.3470245361328" y="0" type="line"/>
      <point x="628.3470245361328" y="29.212501525878906" type="line"/>
    </contour>
  </outline>
</glyph>
<glyph name="bracketleft" format="2">
  <advance width="346.45000000000005"/>
  <unicode hex="005B"/>
  <outline>
    <contour>
      <point x="144.60000000000002" y="-53.474998474121094" type="line"/>
      <point x="144.60000000000002" y="903.4749984741211" type="line"/>
      <point x="294.6" y="903.4749984741211" type="line"/>
      <point x="294.6" y="932.6875" type="line"/>
      <point x="113.85000000000001" y="932.6875" type="line"/>
      <point x="113.85000000000001" y="-82.6875" type="line"/>
      <point x="294.6" y="-82.6875" type="line"/>
      <point x="294.6" y="-53.474998474121094" type="line"/>
    </contour>
  </outline>
</glyph>
<glyph name="backslash" format="2">
  <advance width="353.67114562988286"/>
  <unicode hex="005C"/>
  <outline>
    <contour>
      <point x="55.90828094482423" y="932.6875114440918" type="line"/>
      <point x="24.85000000000001" y="932.6875" type="line"/>
      <point x="274.7628570556641" y="0" type="line"/>
      <point x="305.82114562988284" y="0" type="line"/>
    </contour>
  </outline>
</glyph>
<glyph name="bracketright" format="2">
  <advance width="346.45000000000005"/>
  <unicode hex="005D"/>
  <outline>
    <contour>
      <point x="201.85000000000002" y="-53.474998474121094" type="line"/>
      <point x="51.85000000000001" y="-53.474998474121094" type="line"/>
      <point x="51.85000000000001" y="-82.6875" type="line"/>
      <point x="232.60000000000002" y="-82.6875" type="line"/>
      <point x="232.60000000000002" y="932.6875" type="line"/>
      <point x="51.85000000000001" y="932.6875" type="line"/>
      <point x="51.85000000000001" y="903.4749984741211" type="line"/>
      <point x="201.85000000000002" y="903.4749984741211" type="line"/>
    </contour>
  </outline>
</glyph>
<glyph name="power" format="2">
  <advance width="477.12856597900395"/>
  <unicode hex="005E"/>
  <outline>
    <contour>
      <point x="52.85000000000001" y="545" type="line"/>
      <point x="88.20731506347657" y="545" type="line"/>
      <point x="238.56428680419924" y="808.1403961181641" type="line"/>
      <point x="388.92125091552737" y="545" type="line"/>
      <point x="424.27856597900393" y="545" type="line"/>
      <point x="238.56428680419924" y="870" type="line"/>
    </contour>
  </outline>
</glyph>
<glyph name="underscore" format="2">
  <advance width="727.1464285714286"/>
  <unicode hex="005F"/>
  <outline>
    <contour>
      <point x="113.85000000000001" y="-143.85" type="line"/>
      <point x="613.2964285714286" y="-143.85" type="line"/>
      <point x="613.2964285714286" y="-113.85" type="line"/>
      <point x="113.85000000000001" y="-113.85" type="line"/>
    </contour>
  </outline>
</glyph>
<glyph name="grave" format="2">
  <advance width="382.75429840087895"/>
  <unicode hex="0060"/>
  <anchor x="239.99892206067102" y="973.9472733990148" name="center" identifier="center"/>
  <anchor x="239.99892206067102" y="898.7865591133004" name="bottom" identifier="bottom"/>
  <outline>
    <contour>
      <point x="113.85000000000001" y="1083.7865600585938" type="line"/>
      <point x="233.84290466308596" y="898.7865600585938" type="line"/>
      <point x="268.90429840087893" y="898.7865600585938" type="line"/>
      <point x="148.911393737793" y="1083.7865600585938" type="line"/>
    </contour>
  </outline>
</glyph>
<glyph name="d" format="2">
  <advance width="790.3391864981816"/>
  <unicode hex="0064"/>
  <anchor x="360.8773115763547" y="727.2926522988506" name="top" identifier="top"/>
  <anchor x="379.44874014778327" y="-144.60515229885058" name="below" identifier="below"/>
  <anchor x="379.44874014778327" y="0" name="bottom" identifier="bottom"/>
  <anchor x="766.0583890257252" y="850" name="right" identifier="right"/>
  <anchor x="661.1690948275862" y="727.6875" name="stroke" identifier="stroke"/>
  <outline>
    <contour>
      <point x="645.7455494132206" y="0" type="line"/>
      <point x="676.4891864981815" y="0" type="line"/>
      <point x="676.4891864981815" y="857.6875" type="line"/>
      <point x="645.7455494132206" y="857.6875" type="line"/>
      <point x="645.7455494132206" y="425.13008880615234" type="line"/>
      <point x="596.048769131847" y="527.2537227760442"/>
      <point x="491.2663382982927" y="597.6875000000001"/>
      <point x="370.16302586206893" y="597.6875" type="curve"/>
      <point x="201.087308953944" y="597.6875"/>
      <point x="63.85000000000001" y="460.41946690812506"/>
      <point x="63.85000000000001" y="291.34375" type="curve" smooth="yes"/>
      <point x="63.85000000000001" y="122.26803309187503"/>
      <point x="201.08730895394393" y="-15.0"/>
      <point x="370.16302586206893" y="-15.0" type="curve"/>
      <point x="491.2663382982927" y="-15.0"/>
      <point x="596.048769131847" y="55.43377722395586"/>
      <point x="645.7455494132206" y="157.53976440429688" type="curve"/>
    </contour>
    <contour>
      <point x="645.7972758620689" y="291.34375" type="curve" smooth="yes"/>
      <point x="645.7972758620689" y="138.43120067482192"/>
      <point x="522.3389298848555" y="14.206456034482756"/>
      <point x="369.89716379310346" y="14.206456034482756" type="curve" smooth="yes"/>
      <point x="217.45539770135144" y="14.206456034482756"/>
      <point x="93.9970517241379" y="138.43120067482192"/>
      <point x="93.9970517241379" y="291.34375" type="curve" smooth="yes"/>
      <point x="93.9970517241379" y="444.2562993251781"/>
      <point x="217.45539770135144" y="568.4810439655173"/>
      <point x="369.89716379310346" y="568.4810439655173" type="curve" smooth="yes"/>
      <point x="522.3389298848555" y="568.4810439655173"/>
      <point x="645.7972758620689" y="444.2562993251781"/>
    </contour>
  </outline>
</glyph>
<glyph name="f" format="2">
  <advance width="485.4068481445313"/>
  <unicode hex="0066"/>
  <anchor x="303.058526267691" y="973.9472733990148" name="top" identifier="top"/>
  <outline>
    <contour>
      <point x="157.8873458862305" y="0" type="line"/>
      <point x="188.63098297119143" y="0" type="line"/>
      <point x="188.63098297119143" y="553.482551574707" type="line"/>
      <point x="406.5568481445313" y="553.482551574707" type="line"/>
      <point x="406.5568481445313" y="582.6875" type="line"/>
      <point x="188.63098297119143" y="582.6875" type="line"/>
      <point x="188.63102361560237" y="651.3743913078017" type="line"/>
      <point x="188.63106438288872" y="720.268935505001"/>
      <point x="188.56218635380304" y="838.4864011083744"/>
      <point x="306.98719529478456" y="838.4864011083744" type="curve"/>
      <point x="333.63371046114963" y="838.4864011083745"/>
      <point x="380.6073768845388" y="832.6526553844634"/>
      <point x="421.5568481445313" y="798.238151550293" type="curve"/>
      <point x="421.5568481445313" y="831.8076782226562" type="line"/>
      <point x="389.752129848654" y="854.4758029491338"/>
      <point x="350.0045927755906" y="867.6875"/>
      <point x="306.90148100907027" y="867.6875" type="curve"/>
      <point x="157.8873441053555" y="867.6875"/>
      <point x="157.8873439358419" y="709.6975377438996"/>
      <point x="157.88734487211724" y="648.7269345238095" type="curve"/>
      <point x="157.8873458862305" y="582.6875" type="line"/>
      <point x="53.85000000000001" y="582.6875" type="line"/>
      <point x="53.85000000000001" y="553.482551574707" type="line"/>
      <point x="157.8873458862305" y="553.482551574707" type="line"/>
    </contour>
  </outline>
</glyph>
<glyph name="h" format="2">
  <advance width="691.6896545410157"/>
  <unicode hex="0068"/>
  <anchor x="357.3448288690476" y="973.9472733990148" name="top" identifier="top"/>
  <anchor x="357.3448288690476" y="-144.60515229885058" name="below" identifier="below"/>
  <anchor x="129.22181896551723" y="973.9472733990148" name="stem" identifier="stem"/>
  <anchor x="129.22181896551723" y="727.6875" name="stroke" identifier="stroke"/>
  <anchor x="132.68431896551726" y="0" name="bottom" identifier="bottom"/>
  <outline>
    <contour>
      <point x="113.85000000000001" y="0" type="line"/>
      <point x="144.59363708496096" y="0" type="line"/>
      <point x="144.59363708496096" y="305.3403854370117" type="line"/>
      <point x="144.59363708496096" y="526.2947152487777"/>
      <point x="270.69214109096106" y="568.5295877271105"/>
      <point x="357.3416484927099" y="568.5295877271105" type="curve" smooth="yes"/>
      <point x="443.99115589445876" y="568.5295877271105"/>
      <point x="570.0896575552653" y="526.2947149513391"/>
      <point x="570.0896594928417" y="305.3403851395731" type="curve"/>
      <point x="570.0896621704102" y="0" type="line"/>
      <point x="600.8396545410156" y="0" type="line"/>
      <point x="600.8396545410156" y="304.27025604248047" type="line"/>
      <point x="600.8396545410156" y="573.8993159370017"/>
      <point x="422.2243765036801" y="597.6875"/>
      <point x="357.46508748973724" y="597.6875" type="curve"/>
      <point x="265.97971391306174" y="597.6875"/>
      <point x="186.20948392431586" y="547.1300969913989"/>
      <point x="144.59363708496096" y="472.44603729248047" type="curve"/>
      <point x="144.59363708496096" y="857.6875" type="line"/>
      <point x="113.85000000000001" y="857.6875" type="line"/>
    </contour>
  </outline>
</glyph>
<glyph name="i" format="2">
  <advance width="276.4436379310345"/>
  <unicode hex="0069"/>
  <anchor x="138.22181896551723" y="-144.60515229885058" name="below" identifier="below"/>
  <anchor x="153.61109482758621" y="0" name="ogonek" identifier="ogonek"/>
  <outline>
    <contour>
      <point x="173.5936379310345" y="727.2926522988506" type="curve" smooth="yes"/>
      <point x="173.5936379310345" y="746.8148904706404"/>
      <point x="157.7440571373071" y="762.6644712643679"/>
      <point x="138.22181896551723" y="762.6644712643679" type="curve" smooth="yes"/>
      <point x="118.69958079372743" y="762.6644712643679"/>
      <point x="102.85000000000001" y="746.8148904706404"/>
      <point x="102.85000000000001" y="727.2926522988506" type="curve" smooth="yes"/>
      <point x="102.85000000000001" y="707.7704141270608"/>
      <point x="118.6995807937274" y="691.9208333333333"/>
      <point x="138.22181896551723" y="691.9208333333333" type="curve" smooth="yes"/>
      <point x="157.7440571373071" y="691.9208333333333"/>
      <point x="173.5936379310345" y="707.7704141270608"/>
    </contour>
    <contour>
      <point x="122.83254310344829" y="0" type="line"/>
      <point x="153.61109482758621" y="0" type="line"/>
      <point x="153.61109482758621" y="582.6875" type="line"/>
      <point x="122.83254310344829" y="582.6875" type="line"/>
    </contour>
  </outline>
</glyph>
<glyph name="j" format="2">
  <advance width="312.7510567542767"/>
  <unicode hex="006A"/>
  <outline>
    <contour>
      <point x="211.90105675427668" y="727.2926522988506" type="curve" smooth="yes"/>
      <point x="211.90105675427668" y="746.8148904706404"/>
      <point x="196.05147596054928" y="762.6644712643679"/>
      <point x="176.52923778875947" y="762.6644712643679" type="curve" smooth="yes"/>
      <point x="157.0069996169696" y="762.6644712643679"/>
      <point x="141.1574188232422" y="746.8148904706404"/>
      <point x="141.1574188232422" y="727.2926522988506" type="curve" smooth="yes"/>
      <point x="141.1574188232422" y="707.7704141270608"/>
      <point x="157.0069996169696" y="691.9208333333333"/>
      <point x="176.52923778875947" y="691.9208333333333" type="curve" smooth="yes"/>
      <point x="196.05147596054928" y="691.9208333333333"/>
      <point x="211.90105675427668" y="707.7704141270608"/>
    </contour>
    <contour>
      <point x="28.836473420943378" y="-235.98104396551724" type="curve"/>
      <point x="-8.362220406038091" y="-235.98104396551722"/>
      <point x="-42.200937038339305" y="-222.32730066202265"/>
      <point x="-68.14999999999998" y="-199.72431182861328" type="curve"/>
      <point x="-68.14999999999998" y="-233.18170928955078" type="line"/>
      <point x="-41.03084241686321" y="-253.29562417286084"/>
      <point x="-7.465165842367185" y="-265.18749999999994"/>
      <point x="28.85790199237195" y="-265.1875" type="curve"/>
      <point x="188.89277789024538" y="-265.1875"/>
      <point x="191.90105675601245" y="-101.09506576396117"/>
      <point x="191.90105670048678" y="-56.31204211832208" type="curve"/>
      <point x="191.90105590820315" y="582.6875" type="line"/>
      <point x="161.1574188232422" y="582.6875" type="line"/>
      <point x="161.1574188232422" y="-57.79661866347265" type="line"/>
      <point x="161.1574188232422" y="-101.33860642869747"/>
      <point x="158.31356178325052" y="-235.98104396551724"/>
    </contour>
  </outline>
</glyph>
<glyph name="k" format="2">
  <advance width="554.3731185913086"/>
  <unicode hex="006B"/>
  <anchor x="290.7848604024943" y="973.9472733990148" name="top" identifier="top"/>
  <anchor x="295.9888268849206" y="0" name="bottom" identifier="bottom"/>
  <anchor x="295.9888268849206" y="-144.60515229885058" name="below" identifier="below"/>
  <anchor x="129.22181896551723" y="973.9472733990148" name="stem" identifier="stem"/>
  <outline>
    <contour>
      <point x="113.85000000000001" y="0" type="line"/>
      <point x="144.59363708496096" y="0" type="line"/>
      <point x="144.59363708496096" y="241.4349365234375" type="line"/>
      <point x="194.150163269043" y="286.5910110473633" type="line"/>
      <point x="507.94475708007815" y="0" type="line"/>
      <point x="553.5231185913086" y="0" type="line"/>
      <point x="216.95979461669924" y="307.3752136230469" type="line"/>
      <point x="519.1012359619141" y="582.6875" type="line"/>
      <point x="475.7478881835938" y="582.6875" type="line"/>
      <point x="144.59363708496096" y="280.9272155761719" type="line"/>
      <point x="144.59363708496096" y="857.6875" type="line"/>
      <point x="113.85000000000001" y="857.6875" type="line"/>
    </contour>
  </outline>
</glyph>
<glyph name="l" format="2">
  <advance width="258.47855172413796"/>
  <unicode hex="006C"/>
  <anchor x="129.23927586206895" y="973.9472733990148" name="top" identifier="top"/>
  <anchor x="129.23927586206895" y="0" name="bottom" identifier="bottom"/>
  <anchor x="129.23927586206895" y="-144.60515229885058" name="below" identifier="below"/>
  <anchor x="234.14602695675973" y="850" name="right" identifier="right"/>
  <anchor x="129.23927586206895" y="428.84375" name="stroke" identifier="stroke"/>
  <anchor x="350.7404568965517" y="428.84375" name="dotmiddle" identifier="dotmiddle"/>
  <outline>
    <contour>
      <point x="113.85000000000001" y="0" type="line"/>
      <point x="144.62855172413794" y="0" type="line"/>
      <point x="144.62855172413794" y="857.6875" type="line"/>
      <point x="113.85000000000001" y="857.6875" type="line"/>
    </contour>
  </outline>
</glyph>
<glyph name="m" format="2">
  <advance width="1041.1138946533204"/>
  <unicode hex="006D"/>
  <anchor x="526.0553571428571" y="727.2926522988506" name="top" identifier="top"/>
  <anchor x="526.0553571428571" y="-144.60515229885058" name="below" identifier="below"/>
  <outline>
    <contour>
      <point x="109.85000000000001" y="0" type="line"/>
      <point x="140.59363708496096" y="0" type="line"/>
      <point x="140.59363708496096" y="334.9353815216467" type="line"/>
      <point x="140.59363708496096" y="531.1673999066519"/>
      <point x="247.43331207619116" y="568.4939749999999"/>
      <point x="325.6385880541872" y="568.4939749999999" type="curve" smooth="yes"/>
      <point x="403.8438640321832" y="568.4939749999999"/>
      <point x="510.6835367439037" y="531.1673974443794"/>
      <point x="510.68353863770824" y="334.93537716531307" type="curve"/>
      <point x="510.6835418701172" y="0" type="line"/>
      <point x="541.4271789550781" y="0" type="line"/>
      <point x="541.4271789550781" y="334.9353832516613" type="line"/>
      <point x="541.4271789550781" y="531.1674016366665"/>
      <point x="648.2668502535311" y="568.4939749999999"/>
      <point x="726.4721262315271" y="568.4939749999999" type="curve" smooth="yes"/>
      <point x="804.6774022095232" y="568.4939749999999"/>
      <point x="911.5170764493319" y="531.1673974443794"/>
      <point x="911.517076324281" y="334.93537716531307" type="curve"/>
      <point x="911.5170761108399" y="0" type="line"/>
      <point x="942.2638946533203" y="0" type="line"/>
      <point x="942.2638946533203" y="331.9247741699219" type="line"/>
      <point x="942.2638946533203" y="556.2383686427592"/>
      <point x="812.568532505283" y="597.6875"/>
      <point x="726.5781607142858" y="597.6875" type="curve"/>
      <point x="635.7296682219647" y="597.6875"/>
      <point x="557.9194699675031" y="541.419932224765"/>
      <point x="526.1260009765625" y="461.82984161376953" type="curve"/>
      <point x="494.3579494893138" y="541.4137065685231"/>
      <point x="416.5873269050592" y="597.6875"/>
      <point x="325.73557081280796" y="597.6875" type="curve"/>
      <point x="247.1388462965606" y="597.6875"/>
      <point x="178.30324638337026" y="555.5627611234828"/>
      <point x="140.59363708496096" y="492.66101837158203" type="curve"/>
      <point x="140.59363708496096" y="582.6875" type="line"/>
      <point x="109.85000000000001" y="582.6875" type="line"/>
    </contour>
  </outline>
</glyph>
<glyph name="n" format="2">
  <advance width="695.6896545410157"/>
  <unicode hex="006E"/>
  <anchor x="353.3448288690476" y="727.2926522988506" name="top" identifier="top"/>
  <anchor x="353.3448288690476" y="-144.60515229885058" name="below" identifier="below"/>
  <anchor x="353.3448288690476" y="0" name="bottom" identifier="bottom"/>
  <anchor x="596.8396577380952" y="0" name="right" identifier="right"/>
  <anchor x="140.5936379310345" y="0" name="lefthook" identifier="lefthook"/>
  <outline>
    <contour>
      <point x="109.85000000000001" y="0" type="line"/>
      <point x="140.59363708496096" y="0" type="line"/>
      <point x="140.59363708496096" y="305.3403854370117" type="line"/>
      <point x="140.59363708496096" y="526.2947152487777"/>
      <point x="266.69214109096106" y="568.5295877271105"/>
      <point x="353.3416484927099" y="568.5295877271105" type="curve" smooth="yes"/>
      <point x="439.99115589445876" y="568.5295877271105"/>
      <point x="566.0896575552653" y="526.2947149513391"/>
      <point x="566.0896594928417" y="305.3403851395731" type="curve"/>
      <point x="566.0896621704102" y="0" type="line"/>
      <point x="596.8396545410156" y="0" type="line"/>
      <point x="596.8396545410156" y="304.27025604248047" type="line"/>
      <point x="596.8396545410156" y="573.8863140920879"/>
      <point x="418.2612289276084" y="597.6875"/>
      <point x="353.47931162766827" y="597.6875" type="curve"/>
      <point x="261.9788740127807" y="597.6875"/>
      <point x="182.19827798454617" y="547.1098126327954"/>
      <point x="140.59363708496096" y="472.40126037597656" type="curve"/>
      <point x="140.59363708496096" y="582.6875" type="line"/>
      <point x="109.85000000000001" y="582.6875" type="line"/>
    </contour>
  </outline>
</glyph>
<glyph name="q" format="2">
  <advance width="785.3391864981816"/>
  <unicode hex="0071"/>
  <outline>
    <contour>
      <point x="645.7455494132206" y="-257.6875" type="line"/>
      <point x="676.4891864981815" y="-257.6875" type="line"/>
      <point x="676.4891864981815" y="582.6875" type="line"/>
      <point x="645.7455494132206" y="582.6875" type="line"/>
      <point x="645.7455494132206" y="425.11865997314453" type="line"/>
      <point x="596.0534352966384" y="527.248261584451"/>
      <point x="491.26930411305705" y="597.6875"/>
      <point x="370.16302586206893" y="597.6874999999999" type="curve"/>
      <point x="201.087308953944" y="597.6875"/>
      <point x="63.85000000000001" y="460.41946690812506"/>
      <point x="63.85000000000001" y="291.34375" type="curve" smooth="yes"/>
      <point x="63.85000000000001" y="122.26803309187503"/>
      <point x="201.08730895394393" y="-15.0"/>
      <point x="370.16302586206893" y="-15.0" type="curve"/>
      <point x="491.26930411305705" y="-15.0"/>
      <point x="596.0534352966384" y="55.43923841554896"/>
      <point x="645.7455494132206" y="157.5508575439453" type="curve"/>
    </contour>
    <contour>
      <point x="645.7972758620689" y="291.34375" type="curve" smooth="yes"/>
      <point x="645.7972758620689" y="138.43120067482192"/>
      <point x="522.3389298848555" y="14.206456034482756"/>
      <point x="369.89716379310346" y="14.206456034482756" type="curve" smooth="yes"/>
      <point x="217.45539770135144" y="14.206456034482756"/>
      <point x="93.9970517241379" y="138.43120067482192"/>
      <point x="93.9970517241379" y="291.34375" type="curve" smooth="yes"/>
      <point x="93.9970517241379" y="444.2562993251781"/>
      <point x="217.45539770135144" y="568.4810439655173"/>
      <point x="369.89716379310346" y="568.4810439655173" type="curve" smooth="yes"/>
      <point x="522.3389298848555" y="568.4810439655173"/>
      <point x="645.7972758620689" y="444.2562993251781"/>
    </contour>
  </outline>
</glyph>
<glyph name="v" format="2">
  <advance width="681.4740631103516"/>
  <unicode hex="0076"/>
  <anchor x="340.73703125" y="727.2926522988506" name="top" identifier="top"/>
  <anchor x="340.73703125" y="-144.60515229885058" name="below" identifier="below"/>
  <outline>
    <contour>
      <point x="630.6240631103516" y="582.6875" type="line"/>
      <point x="598.2174087524414" y="582.6875" type="line"/>
      <point x="341.58987579345705" y="49.125022888183594" type="line"/>
      <point x="84.96234283447266" y="582.6875" type="line"/>
      <point x="50.85000000000001" y="582.6875" type="line"/>
      <point x="340.7370315551758" y="-20" type="line"/>
    </contour>
  </outline>
</glyph>
<glyph name="w" format="2">
  <advance width="918.988688659668"/>
  <unicode hex="0077"/>
  <anchor x="459.4943452380953" y="727.2926522988506" name="top" identifier="top"/>
  <anchor x="459.4943452380953" y="-144.60515229885058" name="below" identifier="below"/>
  <outline>
    <contour>
      <point x="868.138688659668" y="582.6875" type="line"/>
      <point x="837.2039276123047" y="582.6875" type="line"/>
      <point x="658.9899078369141" y="67.24330139160156" type="line"/>
      <point x="460.3120704650879" y="582.6875" type="line"/>
      <point x="261.63423309326174" y="67.24330139160156" type="line"/>
      <point x="83.4202133178711" y="582.6875" type="line"/>
      <point x="50.85000000000001" y="582.6875" type="line"/>
      <point x="259.23719177246096" y="-20" type="line"/>
      <point x="459.4943481445313" y="500.0018768310547" type="line"/>
      <point x="659.751496887207" y="-20" type="line"/>
    </contour>
  </outline>
</glyph>
<glyph name="x" format="2">
  <advance width="599.176188659668"/>
  <unicode hex="0078"/>
  <anchor x="299.5880934215728" y="727.2926522988506" name="top" identifier="top"/>
  <outline>
    <contour>
      <point x="552.326188659668" y="0" type="line"/>
      <point x="322.1763092041016" y="296.8836364746094" type="line"/>
      <point x="543.7375274658203" y="582.6875" type="line"/>
      <point x="506.7910400390625" y="582.6875" type="line"/>
      <point x="300.3085647583008" y="316.29083251953125" type="line"/>
      <point x="93.82608947753907" y="582.6875" type="line"/>
      <point x="54.934884643554696" y="582.6875" type="line"/>
      <point x="276.7479873657227" y="296.5587158203125" type="line"/>
      <point x="46.85000000000001" y="0" type="line"/>
      <point x="83.79659423828126" y="0" type="line"/>
      <point x="298.61573181152346" y="277.15160369873047" type="line"/>
      <point x="513.4348770141602" y="0" type="line"/>
    </contour>
  </outline>
</glyph>
<glyph name="y" format="2">
  <advance width="686.7223617553711"/>
  <unicode hex="0079"/>
  <anchor x="343.37669857933406" y="727.2926522988506" name="top" identifier="top"/>
  <anchor x="489.6245296805246" y="-144.60515229885058" name="below" identifier="below"/>
  <outline>
    <contour>
      <point x="344.2305313110352" y="47.00713348388672" type="line"/>
      <point x="85.00551757812501" y="582.6875" type="line"/>
      <point x="50.85000000000001" y="582.6875" type="line"/>
      <point x="327.15796813964846" y="11.730155944824219" type="line"/>
      <point x="196.7803436279297" y="-257.6875" type="line"/>
      <point x="229.22608337402346" y="-257.6875" type="line"/>
      <point x="635.8723617553711" y="582.6875" type="line"/>
      <point x="603.4280487060547" y="582.6875" type="line"/>
    </contour>
  </outline>
</glyph>
<glyph name="z" format="2">
  <advance width="611.7431518554688"/>
  <unicode hex="007A"/>
  <anchor x="305.3715773809524" y="727.2926522988506" name="top" identifier="top"/>
  <anchor x="305.3715773809524" y="-144.60515229885058" name="below" identifier="below"/>
  <anchor x="305.3715773809524" y="291.34375" name="stroke" identifier="stroke"/>
  <outline>
    <contour>
      <point x="133.20438537597659" y="29.206459045410156" type="line"/>
      <point x="536.8931518554688" y="582.6875" type="line"/>
      <point x="88.92758331298829" y="582.6875" type="line"/>
      <point x="88.92758331298829" y="553.4810409545898" type="line"/>
      <point x="477.53877410888674" y="553.4810409545898" type="line"/>
      <point x="73.85000000000001" y="0" type="line"/>
      <point x="536.8155685424805" y="0" type="line"/>
      <point x="536.8155685424805" y="29.206459045410156" type="line"/>
    </contour>
  </outline>
</glyph>
<glyph name="braceleft" format="2">
  <advance width="376.8647866748628"/>
  <unicode hex="007B"/>
  <outline>
    <contour>
      <point x="300.0147834777832" y="-56.40357208251953" type="line" smooth="yes"/>
      <point x="265.5652321102785" y="-56.40357167461606"/>
      <point x="200.1720782171613" y="-41.32308584398595"/>
      <point x="200.172078379362" y="70.7275740145347" type="curve"/>
      <point x="200.1720786514761" y="258.7080219844699" type="line"/>
      <point x="200.17207873224612" y="314.5051285700248"/>
      <point x="199.00132643226584" y="385.6176310498304"/>
      <point x="120.01161727905274" y="425.00025177001953" type="curve"/>
      <point x="199.00121506971658" y="464.3819796532447"/>
      <point x="200.1720783141174" y="535.494909941706"/>
      <point x="200.17207839488736" y="591.2919744076765" type="curve"/>
      <point x="200.17207866700141" y="779.2724254542511" type="line"/>
      <point x="200.17207882920212" y="891.3230854806815"/>
      <point x="265.56523530735797" y="906.4035714285714"/>
      <point x="300.01478667486276" y="906.4035714285714" type="curve"/>
      <point x="300.0147834777832" y="932.6875" type="line"/>
      <point x="296.7018409729004" y="932.6875" type="line"/>
      <point x="274.15475548909575" y="932.6875"/>
      <point x="169.42207815838754" y="931.9249398657691"/>
      <point x="169.42207838849868" y="772.9607289613972" type="curve"/>
      <point x="169.42207866225607" y="583.8449997775572" type="line"/>
      <point x="169.4220788385564" y="462.0541038072788"/>
      <point x="102.46372362814436" y="439.55267857142854"/>
      <point x="54.927584293910456" y="439.55267857142854" type="curve"/>
      <point x="54.85000000000001" y="427.1517868041992" type="line"/>
      <point x="54.85000000000001" y="422.8482131958008" type="line"/>
      <point x="54.927587127685555" y="410.4473190307617" type="line" smooth="yes"/>
      <point x="102.46372646191945" y="410.44732083334947"/>
      <point x="169.4220782078071" y="387.9458976459392"/>
      <point x="169.4220783841074" y="266.1550031930634" type="curve"/>
      <point x="169.4220786578648" y="77.03927110517475" type="line"/>
      <point x="169.42207888797594" y="-81.92493322145245"/>
      <point x="274.15474448336954" y="-82.6875"/>
      <point x="296.70184024629134" y="-82.6875" type="curve" smooth="yes"/>
      <point x="300.0147834777832" y="-82.6875" type="line"/>
    </contour>
  </outline>
</glyph>
<glyph name="bar" format="2">
  <advance width="257.70000000000005"/>
  <unicode hex="007C"/>
  <outline>
    <contour>
      <point x="113.85000000000001" y="-82.6875" type="line"/>
      <point x="143.85000000000002" y="-82.6875" type="line"/>
      <point x="143.85000000000002" y="932.6875" type="line"/>
      <point x="113.85000000000001" y="932.6875" type="line"/>
    </contour>
  </outline>
</glyph>
<glyph name="braceright" format="2">
  <advance width="376.86478667486284"/>
  <unicode hex="007D"/>
  <outline>
    <contour>
      <point x="76.85000000000001" y="-56.403571428571354" type="curve"/>
      <point x="76.8500031970796" y="-82.6875" type="line"/>
      <point x="80.16294570196241" y="-82.6875" type="line"/>
      <point x="102.71003118576711" y="-82.6875"/>
      <point x="207.4427085164753" y="-81.92493986576922"/>
      <point x="207.44270828636417" y="77.03927103860273" type="curve"/>
      <point x="207.44270801260672" y="266.1550002224429" type="line"/>
      <point x="207.4427078363064" y="387.94589619272125"/>
      <point x="274.4010630467185" y="410.44732142857146"/>
      <point x="321.9372023809524" y="410.44732142857146" type="curve"/>
      <point x="322.0147866748628" y="422.8482131958008" type="line"/>
      <point x="322.0147866748628" y="427.1517868041992" type="line"/>
      <point x="321.9371995471773" y="439.5526809692383" type="line" smooth="yes"/>
      <point x="274.4010602129434" y="439.55267916665053"/>
      <point x="207.44270846705575" y="462.0541023540608"/>
      <point x="207.44270829075543" y="583.8449968069366" type="curve"/>
      <point x="207.44270801699798" y="772.9607288948253" type="line"/>
      <point x="207.4427077868869" y="931.9249332214524"/>
      <point x="102.71004219149323" y="932.6875"/>
      <point x="80.16294642857143" y="932.6875" type="curve" smooth="yes"/>
      <point x="76.8500031970796" y="932.6875" type="line"/>
      <point x="76.8500031970796" y="906.4035720825195" type="line" smooth="yes"/>
      <point x="111.29955456458434" y="906.403571674616"/>
      <point x="176.69270845770149" y="891.3230858439858"/>
      <point x="176.69270829550078" y="779.2724259854652" type="curve"/>
      <point x="176.69270802338673" y="591.29197801553" type="line"/>
      <point x="176.69270794261672" y="535.4948714299752"/>
      <point x="177.86346024259694" y="464.3823689501696"/>
      <point x="256.8531693958101" y="424.99974822998047" type="curve"/>
      <point x="177.86357160514626" y="385.6180203467553"/>
      <point x="176.69270836074537" y="314.50509005829394"/>
      <point x="176.69270827997542" y="258.7080255923234" type="curve"/>
      <point x="176.69270800786143" y="70.72757454574901" type="line"/>
      <point x="176.69270784566072" y="-41.323085480681314"/>
      <point x="111.2995513675048" y="-56.403571428571354"/>
    </contour>
  </outline>
</glyph>
<glyph name="tilde" format="2">
  <advance width="754.075"/>
  <unicode hex="007E"/>
  <outline>
    <contour>
      <point x="247.06863555908205" y="461.48890879053573" type="curve"/>
      <point x="295.91239900270097" y="461.48890879053585"/>
      <point x="330.8919407024825" y="438.56697742235843"/>
      <point x="368.7047112584735" y="415.2813895015565" type="curve"/>
      <point x="372.96218895279196" y="412.6595802631906" type="line"/>
      <point x="416.69932078349854" y="385.72569486752604"/>
      <point x="458.3274995462474" y="358.51109120946415"/>
      <point x="516.0063694026196" y="358.51109120946427" type="curve"/>
      <point x="578.3579279412364" y="358.5110912094642"/>
      <point x="633.1493217502799" y="391.1374436006326"/>
      <point x="664.225" y="440.2704620361328" type="curve"/>
      <point x="664.225" y="491.4694519042969" type="line"/>
      <point x="641.7925726762668" y="431.3352837242546"/>
      <point x="583.8610723656848" y="388.5110912094642"/>
      <point x="516.0063694026194" y="388.51109120946415" type="curve"/>
      <point x="467.1626059590005" y="388.51109120946427"/>
      <point x="432.1830641880394" y="411.4330242642744"/>
      <point x="394.3702936320484" y="434.7186121850763" type="curve"/>
      <point x="390.1128159377299" y="437.3404214234422" type="line"/>
      <point x="346.3756841070234" y="464.2743068191068"/>
      <point x="304.74750541545427" y="491.4889087905358"/>
      <point x="247.06863555908205" y="491.4889087905358" type="curve"/>
      <point x="184.71707702046524" y="491.48890879053573"/>
      <point x="129.92568179371227" y="458.8625541578611"/>
      <point x="98.85000000000001" y="409.7295379638672" type="curve"/>
      <point x="98.85000000000001" y="358.5305480957031" type="line"/>
      <point x="121.28243167931781" y="418.6647146509396"/>
      <point x="179.21393259601672" y="461.4889087905357"/>
    </contour>
  </outline>
</glyph>
<glyph name="inv_exclamation" format="2">
  <advance width="281.8775510204082"/>
  <unicode hex="00A1"/>
  <outline>
    <contour>
      <point x="93.85000000000001" y="550.5987244897959" type="curve" smooth="yes"/>
      <point x="93.85000000000001" y="524.6097220123062"/>
      <point x="114.94977303271429" y="503.50994897959185"/>
      <point x="140.9387755102041" y="503.50994897959185" type="curve" smooth="yes"/>
      <point x="166.92777798769387" y="503.50994897959185"/>
      <point x="188.02755102040817" y="524.6097220123061"/>
      <point x="188.02755102040817" y="550.5987244897959" type="curve" smooth="yes"/>
      <point x="188.02755102040817" y="576.5877269672857"/>
      <point x="166.9277779876939" y="597.6875"/>
      <point x="140.9387755102041" y="597.6875" type="curve" smooth="yes"/>
      <point x="114.94977303271432" y="597.6875"/>
      <point x="93.85000000000002" y="576.5877269672857"/>
    </contour>
    <contour>
      <point x="126.67390582026269" y="404.65995025634766" type="line"/>
      <point x="125.38084551752831" y="-282.3125" type="line"/>
      <point x="156.49670550287988" y="-282.3125" type="line"/>
      <point x="155.2036452001455" y="404.65995025634766" type="line"/>
    </contour>
  </outline>
</glyph>
<glyph name="cent" format="2">
  <advance width="604.3994018554688"/>
  <unicode hex="00A2"/>
  <outline>
    <contour>
      <point x="344.443376159668" y="0" type="line"/>
      <point x="375.193376159668" y="0" type="line"/>
      <point x="375.193376159668" y="118.85737609863281" type="line"/>
      <point x="440.47350072884547" y="121.11391052055001"/>
      <point x="500.62350606015593" y="142.47372430928488"/>
      <point x="549.5494018554688" y="177.73568725585938" type="curve"/>
      <point x="549.5494018554688" y="213.5119171142578" type="line"/>
      <point x="499.13659211886056" y="172.5235037887796"/>
      <point x="434.3290419932631" y="147.86874999999998"/>
      <point x="363.6621279761906" y="147.86875" type="curve"/>
      <point x="209.46610156994336" y="147.86874999999998"/>
      <point x="84.35000000000007" y="271.44850146858283"/>
      <point x="84.35000000000007" y="425.0" type="curve" smooth="yes"/>
      <point x="84.35000000000007" y="578.5514985314171"/>
      <point x="209.46610156994342" y="702.13125"/>
      <point x="363.6621279761905" y="702.13125" type="curve"/>
      <point x="434.32916627422696" y="702.131249163388"/>
      <point x="499.1368213518999" y="677.4764083375078"/>
      <point x="549.5494018554688" y="636.4801483154297" type="curve"/>
      <point x="549.5494018554688" y="672.2555618286133" type="line"/>
      <point x="500.62350604653454" y="707.5229086524447"/>
      <point x="440.4735007281157" y="728.8805327238348"/>
      <point x="375.193376159668" y="731.1334533691406" type="curve"/>
      <point x="375.193376159668" y="850" type="line"/>
      <point x="344.443376159668" y="850" type="line"/>
      <point x="344.443376159668" y="730.7547378540039" type="line"/>
      <point x="182.3825772370608" y="721.0057912669099"/>
      <point x="53.85000000000004" y="588.6105831125844"/>
      <point x="53.85000000000001" y="425.00000000000006" type="curve" smooth="yes"/>
      <point x="53.850000000000065" y="261.38941688741556"/>
      <point x="182.38257723706073" y="128.99420873309012"/>
      <point x="344.443376159668" y="119.24066925048828" type="curve"/>
    </contour>
  </outline>
</glyph>
<glyph name="pound" format="2">
  <advance width="687.0541641235352"/>
  <unicode hex="00A3"/>
  <outline>
    <contour>
      <point x="54.85000000000001" y="0" type="line"/>
      <point x="604.2041641235352" y="0" type="line"/>
      <point x="604.2041641235352" y="29.212501525878906" type="line"/>
      <point x="137.074235534668" y="29.212501525878906" type="line"/>
      <point x="185.59999981203902" y="68.44264231021563"/>
      <point x="185.60000000000002" y="117.45848408836389"/>
      <point x="185.60000000000002" y="164.0455696013193" type="curve"/>
      <point x="185.60000000000002" y="395.5544662475586" type="line"/>
      <point x="438.7805572509766" y="395.5544662475586" type="line"/>
      <point x="438.7805572509766" y="424.7669677734375" type="line"/>
      <point x="185.60000000000002" y="424.7669677734375" type="line"/>
      <point x="185.60000000000002" y="540.3229141235352" type="line"/>
      <point x="185.60000000000002" y="811.9107473091402"/>
      <point x="364.6314610037921" y="835.7875"/>
      <point x="429.5374281609196" y="835.7875" type="curve"/>
      <point x="490.5634476336038" y="835.7875"/>
      <point x="546.3901029455336" y="813.2004392086067"/>
      <point x="589.2041641235352" y="775.8710098266602" type="curve"/>
      <point x="589.2041641235352" y="813.7711563110352" type="line"/>
      <point x="544.194070346717" y="846.0197292048455"/>
      <point x="489.0596265335362" y="865.0"/>
      <point x="429.5270833333334" y="864.9999999999999" type="curve"/>
      <point x="340.23642220586544" y="865.0"/>
      <point x="154.85000000000002" y="822.0914858036389"/>
      <point x="154.85000000000002" y="540.3229166666666" type="curve"/>
      <point x="154.85000000000002" y="424.7669677734375" type="line"/>
      <point x="54.85000000000001" y="424.7669677734375" type="line"/>
      <point x="54.85000000000001" y="395.5544662475586" type="line"/>
      <point x="154.85000000000002" y="395.5544662475586" type="line"/>
      <point x="154.85000000000002" y="157.27540263898948" type="line"/>
      <point x="154.85000000000002" y="54.48789995359958"/>
      <point x="102.60546303735252" y="29.212500000000006"/>
      <point x="54.85000000000001" y="29.212500000000006" type="curve"/>
    </contour>
  </outline>
</glyph>
<glyph name="currency" format="2">
  <advance width="687.9238464355469"/>
  <unicode hex="00A4"/>
  <outline>
    <contour>
      <point x="110.06320343017579" y="169.88807678222656" type="line"/>
      <point x="181.1373001098633" y="240.96217346191406" type="line"/>
      <point x="224.5087627359901" y="202.5431917978219"/>
      <point x="281.5328062462" y="179.21726190476184"/>
      <point x="343.9619232177734" y="179.21726190476184" type="curve" smooth="yes"/>
      <point x="406.39009063105317" y="179.21726190476187"/>
      <point x="463.41334900603186" y="202.54248221989369"/>
      <point x="506.78466949462893" y="240.96405029296875" type="curve"/>
      <point x="577.8606430053711" y="169.88807678222656" type="line"/>
      <point x="599.0738464355469" y="191.10128021240234" type="line"/>
      <point x="527.9997497558594" y="262.17537689208984" type="line"/>
      <point x="566.412851644779" y="305.5324664395053"/>
      <point x="589.7446613130116" y="362.56301525970747"/>
      <point x="589.7446613130116" y="424.99999999999994" type="curve" smooth="yes"/>
      <point x="589.7446613130116" y="487.438069949771"/>
      <point x="566.4120405831575" y="544.4695160406357"/>
      <point x="527.9978729248047" y="587.8227462768555" type="curve"/>
      <point x="599.0738464355469" y="658.8987197875977" type="line"/>
      <point x="577.8606430053711" y="680.1119232177734" type="line"/>
      <point x="506.7865463256836" y="609.0378265380859" type="line"/>
      <point x="463.4150836995568" y="647.4568082021781"/>
      <point x="406.3910401893469" y="670.7827380952381"/>
      <point x="343.96192321777346" y="670.7827380952381" type="curve" smooth="yes"/>
      <point x="281.5337558044937" y="670.7827380952381"/>
      <point x="224.510497429515" y="647.4575177801063"/>
      <point x="181.139176940918" y="609.0359497070312" type="curve"/>
      <point x="110.06320343017579" y="680.1119232177734" type="line"/>
      <point x="88.85000000000001" y="658.8987197875977" type="line"/>
      <point x="159.92409667968752" y="587.8246231079102" type="line"/>
      <point x="121.51099479076784" y="544.4675335604946"/>
      <point x="98.17918512253532" y="487.43698474029253"/>
      <point x="98.17918512253529" y="425.0" type="curve" smooth="yes"/>
      <point x="98.17918512253532" y="362.561930050229"/>
      <point x="121.51180585238934" y="305.5304839593644"/>
      <point x="159.9259735107422" y="262.17725372314453" type="curve"/>
      <point x="88.85000000000001" y="191.10128021240234" type="line"/>
    </contour>
    <contour>
      <point x="559.7446613130116" y="425.0" type="curve" smooth="yes"/>
      <point x="559.7446613130115" y="305.90626578851186"/>
      <point x="463.05565742926154" y="209.21726190476184"/>
      <point x="343.96192321777346" y="209.21726190476187" type="curve" smooth="yes"/>
      <point x="224.86818900628532" y="209.2172619047619"/>
      <point x="128.17918512253527" y="305.9062657885119"/>
      <point x="128.17918512253533" y="425.0" type="curve" smooth="yes"/>
      <point x="128.17918512253533" y="544.0937342114881"/>
      <point x="224.86818900628532" y="640.7827380952381"/>
      <point x="343.96192321777346" y="640.7827380952381" type="curve" smooth="yes"/>
      <point x="463.0556574292616" y="640.7827380952381"/>
      <point x="559.7446613130116" y="544.0937342114881"/>
    </contour>
  </outline>
</glyph>
<glyph name="yen" format="2">
  <advance width="698.5452377319336"/>
  <unicode hex="00A5"/>
  <outline>
    <contour>
      <point x="128.2564636230469" y="276.71190643310547" type="line"/>
      <point x="333.8976226806641" y="276.71190643310547" type="line"/>
      <point x="333.8976226806641" y="0" type="line"/>
      <point x="364.6476226806641" y="0" type="line"/>
      <point x="364.6476226806641" y="276.71190643310547" type="line"/>
      <point x="570.2887741088867" y="276.71190643310547" type="line"/>
      <point x="570.2887741088867" y="307.2672576904297" type="line"/>
      <point x="364.6476226806641" y="307.2672576904297" type="line"/>
      <point x="364.6476226806641" y="392.96844482421875" type="line"/>
      <point x="369.85753021240237" y="401.06607818603516" type="line"/>
      <point x="570.2887741088867" y="401.06607818603516" type="line"/>
      <point x="570.2887741088867" y="431.62142181396484" type="line"/>
      <point x="389.5164047241211" y="431.62142181396484" type="line"/>
      <point x="658.6952377319336" y="850" type="line"/>
      <point x="623.9621673583985" y="850" type="line"/>
      <point x="350.18670043945315" y="424.45410919189453" type="line"/>
      <point x="76.41122589111329" y="850" type="line"/>
      <point x="39.85000000000001" y="850" type="line"/>
      <point x="309.02884063720705" y="431.62142181396484" type="line"/>
      <point x="128.2564636230469" y="431.62142181396484" type="line"/>
      <point x="128.2564636230469" y="401.06607818603516" type="line"/>
      <point x="328.6877151489258" y="401.06607818603516" type="line"/>
      <point x="333.8976226806641" y="392.9684371948242" type="line"/>
      <point x="333.8976226806641" y="307.2672576904297" type="line"/>
      <point x="128.2564636230469" y="307.2672576904297" type="line"/>
    </contour>
  </outline>
</glyph>
<glyph name="brokenbar" format="2">
  <advance width="257.70000000000005"/>
  <unicode hex="00A6"/>
  <outline>
    <contour>
      <point x="143.85000000000002" y="932.6875" type="line"/>
      <point x="113.85000000000001" y="932.6875" type="line"/>
      <point x="113.85000000000001" y="492.3125" type="line"/>
      <point x="143.85000000000002" y="492.3125" type="line"/>
    </contour>
    <contour>
      <point x="113.85000000000001" y="-82.6875" type="line"/>
      <point x="143.85000000000002" y="-82.6875" type="line"/>
      <point x="143.85000000000002" y="357.6875" type="line"/>
      <point x="113.85000000000001" y="357.6875" type="line"/>
    </contour>
  </outline>
</glyph>
<glyph name="section" format="2">
  <advance width="571.6778061224489"/>
  <unicode hex="00A7"/>
  <outline>
    <contour>
      <point x="497.7742346938775" y="-19.012563432965948" type="curve"/>
      <point x="497.7742346938775" y="84.06699024403486"/>
      <point x="399.86682516044027" y="125.18346017369541"/>
      <point x="359.5556953262368" y="140.87219870427876" type="curve"/>
      <point x="354.89614802769245" y="142.68565368652344" type="line"/>
      <point x="449.55161970998915" y="166.7418272317867"/>
      <point x="517.8278061224489" y="236.13230134655828"/>
      <point x="517.8278061224489" y="324.73370535714287" type="curve"/>
      <point x="517.8278061224489" y="433.2669672795687"/>
      <point x="420.4528698448314" y="477.47390081454466"/>
      <point x="345.51863638483724" y="506.60369938851005" type="curve"/>
      <point x="252.77989288587966" y="542.6547910376897" type="line"/>
      <point x="194.86747083025523" y="565.1675613899941"/>
      <point x="105.88482142857131" y="595.6078828840534"/>
      <point x="105.88482142857134" y="684.6002232142856" type="curve"/>
      <point x="105.88482142857134" y="770.9441601726227"/>
      <point x="192.25462339434543" y="834.7874999999999"/>
      <point x="298.9192602040815" y="834.7874999999999" type="curve"/>
      <point x="364.63702910252016" y="834.7874981190282"/>
      <point x="424.2194971024119" y="819.5551225216533"/>
      <point x="467.7742379324775" y="790.2689339773996" type="curve"/>
      <point x="467.7742379324775" y="823.5778121948242" type="line"/>
      <point x="423.4018734822524" y="851.3184531597276"/>
      <point x="364.0815235120365" y="865.0"/>
      <point x="298.9192602040814" y="864.9999999999999" type="curve"/>
      <point x="175.7207780538046" y="864.9999999999999"/>
      <point x="75.90357142857133" y="787.6707285569875"/>
      <point x="75.90357142857133" y="683.8314732142857" type="curve"/>
      <point x="75.90357142857133" y="580.7519195372848"/>
      <point x="173.8109841435095" y="539.6354483709987"/>
      <point x="214.12211402889594" y="523.9467099719262" type="curve"/>
      <point x="218.78166133335648" y="522.1332550048828" type="line"/>
      <point x="124.12618919438134" y="498.07708325654323"/>
      <point x="55.85000000000004" y="428.68660843476147"/>
      <point x="55.85000000000001" y="340.0852044241769" type="curve"/>
      <point x="55.84999999999992" y="231.55194250175106"/>
      <point x="153.22493789256816" y="187.34500841063"/>
      <point x="228.15917136406583" y="158.2152098662566" type="curve"/>
      <point x="320.89791646801507" y="122.16411763531285" type="line"/>
      <point x="378.81033853252995" y="99.65134730587846"/>
      <point x="467.79298469387743" y="69.2110268972663"/>
      <point x="467.79298469387743" y="-19.781313432965902" type="curve"/>
      <point x="467.79298469387743" y="-106.125250391303"/>
      <point x="381.42318272810337" y="-169.96859021868016"/>
      <point x="274.7585459183673" y="-169.96859021868016" type="curve"/>
      <point x="199.51793388922127" y="-169.96858851888038"/>
      <point x="132.0069133089863" y="-152.3581682990825"/>
      <point x="85.90356818997122" y="-117.4105649675642" type="curve"/>
      <point x="85.90357142857133" y="-151.52525329589844" type="line"/>
      <point x="133.13939856218008" y="-184.6330909181541"/>
      <point x="200.27801435775748" y="-200.18109021868025"/>
      <point x="274.7585459183673" y="-200.18109021868025" type="curve"/>
      <point x="397.95702806864415" y="-200.18109021868014"/>
      <point x="497.7742346938775" y="-122.85181877566775"/>
    </contour>
    <contour>
      <point x="85.83124999999995" y="340.85395442417695" type="curve"/>
      <point x="85.83124999999995" y="428.57164824366595"/>
      <point x="168.5685404630003" y="493.50123390090124"/>
      <point x="274.3174050467354" y="500.52294921875" type="curve"/>
      <point x="335.3357605910852" y="476.7783994414505" type="line"/>
      <point x="415.6952080927281" y="445.5074993285791"/>
      <point x="487.8465561224489" y="407.8959666831681"/>
      <point x="487.8465561224489" y="323.96495535714286" type="curve"/>
      <point x="487.8465561224489" y="236.24726153765386"/>
      <point x="405.10926881178" y="171.31767608973308"/>
      <point x="299.36040431431354" y="164.29595947265625" type="curve"/>
      <point x="238.34204876996367" y="188.04050924995573" type="line"/>
      <point x="157.98260126832085" y="219.31140936282713"/>
      <point x="85.83124999999995" y="256.9229430981517"/>
    </contour>
  </outline>
</glyph>
<glyph name="diaeresis" format="2">
  <advance width="468.3271200738916"/>
  <unicode hex="00A8"/>
  <anchor x="234.1635600369458" y="973.9472733990148" name="center" identifier="center"/>
  <anchor x="234.1635600369458" y="1098.6443800971538" name="top" identifier="top"/>
  <outline>
    <contour>
      <point x="184.20926293103446" y="973.9472733990148" type="curve" smooth="yes"/>
      <point x="184.20926293103446" y="993.3634404028984"/>
      <point x="168.4457984694008" y="1009.126904864532"/>
      <point x="149.02963146551724" y="1009.126904864532" type="curve" smooth="yes"/>
      <point x="129.61346446163367" y="1009.126904864532"/>
      <point x="113.85000000000001" y="993.3634404028984"/>
      <point x="113.85000000000001" y="973.9472733990148" type="curve" smooth="yes"/>
      <point x="113.85000000000001" y="954.5311063951311"/>
      <point x="129.61346446163367" y="938.7676419334975"/>
      <point x="149.02963146551724" y="938.7676419334975" type="curve" smooth="yes"/>
      <point x="168.4457984694008" y="938.7676419334975"/>
      <point x="184.20926293103446" y="954.5311063951311"/>
    </contour>
    <contour>
      <point x="354.47712007389157" y="973.9472733990148" type="curve" smooth="yes"/>
      <point x="354.47712007389157" y="993.3634404028984"/>
      <point x="338.713655612258" y="1009.126904864532"/>
      <point x="319.29748860837435" y="1009.126904864532" type="curve" smooth="yes"/>
      <point x="299.8813216044908" y="1009.126904864532"/>
      <point x="284.11785714285713" y="993.3634404028984"/>
      <point x="284.11785714285713" y="973.9472733990148" type="curve" smooth="yes"/>
      <point x="284.11785714285713" y="954.5311063951311"/>
      <point x="299.8813216044908" y="938.7676419334975"/>
      <point x="319.29748860837435" y="938.7676419334975" type="curve" smooth="yes"/>
      <point x="338.7136556122579" y="938.7676419334975"/>
      <point x="354.47712007389157" y="954.5311063951311"/>
    </contour>
  </outline>
</glyph>
<glyph name="copyright" format="2">
  <advance width="977.7"/>
  <unicode hex="00A9"/>
  <outline>
    <contour>
      <point x="928.85" y="425.0" type="curve" smooth="yes"/>
      <point x="928.85" y="667.8426088"/>
      <point x="731.6926088" y="865.0"/>
      <point x="488.85" y="865.0" type="curve" smooth="yes"/>
      <point x="246.00739120000003" y="865.0"/>
      <point x="48.85000000000001" y="667.8426088000001"/>
      <point x="48.85000000000001" y="425.0" type="curve" smooth="yes"/>
      <point x="48.84999999999995" y="182.15739120000003"/>
      <point x="246.00739119999992" y="-14.999999999999943"/>
      <point x="488.8499999999999" y="-15.0" type="curve" smooth="yes"/>
      <point x="731.6926088" y="-15.000000000000057"/>
      <point x="928.8499999999999" y="182.1573911999999"/>
    </contour>
    <contour>
      <point x="899.6446573275862" y="425.0" type="curve" smooth="yes"/>
      <point x="899.6446573275862" y="198.276258485152"/>
      <point x="715.5737415148478" y="14.205342672413735"/>
      <point x="488.8499999999999" y="14.205342672413792" type="curve" smooth="yes"/>
      <point x="262.126258485152" y="14.205342672413792"/>
      <point x="78.0553426724138" y="198.27625848515214"/>
      <point x="78.0553426724138" y="425.0" type="curve" smooth="yes"/>
      <point x="78.0553426724138" y="651.7237415148479"/>
      <point x="262.1262584851521" y="835.7946573275863"/>
      <point x="488.85" y="835.7946573275863" type="curve" smooth="yes"/>
      <point x="715.5737415148479" y="835.7946573275863"/>
      <point x="899.6446573275862" y="651.7237415148479"/>
    </contour>
    <contour>
      <point x="489.6166666666667" y="644.5107946242978" type="curve"/>
      <point x="547.145808022713" y="644.5107944905963"/>
      <point x="599.8591239684681" y="624.0663821460312"/>
      <point x="640.5402457766803" y="590.1839120177293" type="curve"/>
      <point x="640.5402457766803" y="625.75210763402" type="line"/>
      <point x="598.4883184526792" y="656.0641966598637"/>
      <point x="546.2238959832821" y="673.7232946242978"/>
      <point x="489.6166666666668" y="673.7232946242978" type="curve"/>
      <point x="350.7811475618993" y="673.7232946242978"/>
      <point x="238.0773642170405" y="563.0472472275521"/>
      <point x="238.0773642170405" y="425.0" type="curve" smooth="yes"/>
      <point x="238.0773642170405" y="286.9527527724478"/>
      <point x="350.7811475618992" y="176.2767053757023"/>
      <point x="489.6166666666667" y="176.27670537570228" type="curve"/>
      <point x="546.223895983282" y="176.27670537570228"/>
      <point x="598.4883184526791" y="193.93580334013626"/>
      <point x="640.5402457766803" y="224.23998834315756" type="curve"/>
      <point x="640.5402457766803" y="259.8157225141308" type="line"/>
      <point x="599.859204358723" y="225.93364879585982"/>
      <point x="547.1458524499818" y="205.48920537570223"/>
      <point x="489.61666666666656" y="205.48920537570223" type="curve"/>
      <point x="367.656108545107" y="205.48920537570228"/>
      <point x="268.62438692876196" y="303.44188473479704"/>
      <point x="268.62438692876196" y="425.0" type="curve" smooth="yes"/>
      <point x="268.62438692876196" y="546.558115265203"/>
      <point x="367.656108545107" y="644.5107946242978"/>
    </contour>
  </outline>
</glyph>
<glyph name="ordinal_a" format="2">
  <advance width="484.7795280580518"/>
  <unicode hex="00AA"/>
  <outline>
    <contour>
      <point x="349.80473552437365" y="515.3928571428571" type="line"/>
      <point x="379.9295276124128" y="515.3928571428571" type="line"/>
      <point x="379.9295276124128" y="686.6803843685439" type="line"/>
      <point x="379.9295276124128" y="760.4719947569799"/>
      <point x="371.8128280651816" y="858.6137202923645"/>
      <point x="236.61672850875084" y="858.6137202923645" type="curve"/>
      <point x="197.54318629170234" y="858.6137202923645"/>
      <point x="152.61153307496278" y="850.4788389537417"/>
      <point x="117.77470429621359" y="828.4661067174058" type="curve"/>
      <point x="117.77470429621359" y="793.9363032504218" type="line"/>
      <point x="145.80293771915103" y="816.0044486795492"/>
      <point x="188.077007012183" y="829.3734493564039"/>
      <point x="235.43493762687183" y="829.3734493564039" type="curve"/>
      <point x="346.9315779505026" y="829.3734493564041"/>
      <point x="349.80473740946314" y="747.5667566336405"/>
      <point x="349.8047357146751" y="703.0377164167232" type="curve"/>
      <point x="349.80473552437365" y="698.0377164167232" type="line"/>
      <point x="308.502491615614" y="710.363996554856"/>
      <point x="269.40935266326596" y="713.4052797195345"/>
      <point x="240.81883298986202" y="713.4052797195345" type="curve"/>
      <point x="155.34472834722828" y="713.4052797195345"/>
      <point x="87.85000000000001" y="680.172365572314"/>
      <point x="87.85000000000001" y="610.0922082850136" type="curve"/>
      <point x="87.85000000000001" y="547.0073230728763"/>
      <point x="145.88840419862703" y="506.77913685049265"/>
      <point x="217.4844166880718" y="506.77913685049265" type="curve"/>
      <point x="272.65682093695057" y="506.77913685049265"/>
      <point x="321.28187179563616" y="529.8981276272378"/>
      <point x="349.80473552437365" y="567.2949381183704" type="curve"/>
    </contour>
    <contour>
      <point x="118.40608312807886" y="609.6108415822774" type="curve"/>
      <point x="118.40608312807886" y="657.0074858893507"/>
      <point x="165.32394073804954" y="684.3570934342661"/>
      <point x="241.03813502188177" y="684.3570934342661" type="curve"/>
      <point x="267.2107786697439" y="684.3570932633337"/>
      <point x="307.5164037590218" y="681.6506069417429"/>
      <point x="349.80473552437365" y="668.1002191195871" type="curve"/>
      <point x="349.80473552437365" y="663.1002191195871" type="line"/>
      <point x="349.80473552437365" y="580.0016246452944"/>
      <point x="294.58389558129875" y="536.0925084637931"/>
      <point x="218.82879285538974" y="536.0925084637931" type="curve"/>
      <point x="163.3445324475834" y="536.0925084637931"/>
      <point x="118.40608312807886" y="563.8813304846436"/>
    </contour>
    <contour>
      <point x="96.46372029236453" y="400.7866071428571" type="line"/>
      <point x="379.9295280580518" y="400.7866071428571" type="line"/>
      <point x="379.9295280580518" y="429.9991071428571" type="line"/>
      <point x="96.46372029236453" y="429.9991071428571" type="line"/>
    </contour>
  </outline>
</glyph>
<glyph name="angleleft_dbl" format="2">
  <advance width="481.9773513793946"/>
  <unicode hex="00AB"/>
  <outline>
    <contour>
      <point x="88.56871948242188" y="291.34375" type="line"/>
      <point x="257.9670654296875" y="496.00743865966797" type="line"/>
      <point x="224.0424285888672" y="496.00743865966797" type="line"/>
      <point x="52.85000000000001" y="291.34375" type="line"/>
      <point x="224.0424285888672" y="86.68006134033203" type="line"/>
      <point x="257.9670654296875" y="86.68006134033203" type="line"/>
    </contour>
    <contour>
      <point x="238.72900543212893" y="291.34375" type="line"/>
      <point x="408.12735137939455" y="496.00743865966797" type="line"/>
      <point x="374.2027069091797" y="496.00743865966797" type="line"/>
      <point x="203.01027832031252" y="291.34375" type="line"/>
      <point x="374.2027069091797" y="86.68006134033203" type="line"/>
      <point x="408.12735137939455" y="86.68006134033203" type="line"/>
    </contour>
  </outline>
</glyph>
<glyph name="logicalnot" format="2">
  <advance width="633.5214263916016"/>
  <unicode hex="00AC"/>
  <outline>
    <contour>
      <point x="488.9214263916016" y="114.28868865966797" type="line"/>
      <point x="519.6714263916016" y="114.28868865966797" type="line"/>
      <point x="519.6714263916016" y="440.375" type="line"/>
      <point x="54.85000000000001" y="440.375" type="line"/>
      <point x="54.85000000000001" y="411.1624984741211" type="line"/>
      <point x="488.9214263916016" y="411.1624984741211" type="line"/>
    </contour>
  </outline>
</glyph>
<glyph name="registered" format="2">
  <advance width="977.7"/>
  <unicode hex="00AE"/>
  <outline>
    <contour>
      <point x="928.85" y="425.0" type="curve" smooth="yes"/>
      <point x="928.85" y="667.8426088"/>
      <point x="731.6926088" y="865.0"/>
      <point x="488.85" y="865.0" type="curve" smooth="yes"/>
      <point x="246.00739120000003" y="865.0"/>
      <point x="48.85000000000001" y="667.8426088000001"/>
      <point x="48.85000000000001" y="425.0" type="curve" smooth="yes"/>
      <point x="48.84999999999995" y="182.15739120000003"/>
      <point x="246.00739119999992" y="-14.999999999999943"/>
      <point x="488.8499999999999" y="-15.0" type="curve" smooth="yes"/>
      <point x="731.6926088" y="-15.000000000000057"/>
      <point x="928.85" y="182.1573911999999"/>
    </contour>
    <contour>
      <point x="899.6482359913794" y="425.0" type="curve" smooth="yes"/>
      <point x="899.6482359913792" y="198.27428336685307"/>
      <point x="715.5757166331468" y="14.201764008620614"/>
      <point x="488.8499999999999" y="14.201764008620671" type="curve" smooth="yes"/>
      <point x="262.1242833668531" y="14.201764008620671"/>
      <point x="78.05176400862068" y="198.2742833668532"/>
      <point x="78.05176400862068" y="425.0" type="curve" smooth="yes"/>
      <point x="78.05176400862068" y="651.7257166331469"/>
      <point x="262.1242833668532" y="835.7982359913793"/>
      <point x="488.85" y="835.7982359913793" type="curve" smooth="yes"/>
      <point x="715.5757166331468" y="835.7982359913793"/>
      <point x="899.6482359913794" y="651.7257166331468"/>
    </contour>
    <contour>
      <point x="360.0513609305575" y="180.95176400862067" type="line"/>
      <point x="390.8005642106965" y="180.95176400862067" type="line"/>
      <point x="390.8005642106965" y="380.7061231271682" type="line"/>
      <point x="494.99269178868735" y="380.7061231271682" type="line"/>
      <point x="634.1532012197557" y="180.95176400862067" type="line"/>
      <point x="671.2365982723213" y="180.95176400862067" type="line"/>
      <point x="529.8789116936342" y="383.56620796687844" type="line"/>
      <point x="595.7354049979709" y="396.8699914073555"/>
      <point x="645.382961600955" y="455.1214309785702"/>
      <point x="645.382961600955" y="524.8771791523291" type="curve" smooth="yes"/>
      <point x="645.382961600955" y="580.2327060834268"/>
      <point x="621.1844989443507" y="669.0482359913793"/>
      <point x="464.45885438442247" y="669.0482359913793" type="curve"/>
      <point x="360.0513609305575" y="669.0482359913793" type="line"/>
    </contour>
    <contour>
      <point x="390.8005642106965" y="409.45158075877447" type="line"/>
      <point x="390.8005642106965" y="639.8364915609366" type="line"/>
      <point x="470.7246910787171" y="639.8364915609366" type="line"/>
      <point x="498.3159778545132" y="639.8364915609366"/>
      <point x="614.6321663834685" y="638.694572858636"/>
      <point x="614.6321663834685" y="524.6440365586031" type="curve" smooth="yes"/>
      <point x="614.6321663834685" y="410.5935003286987"/>
      <point x="498.3159811239649" y="409.4515816132318"/>
      <point x="470.72469198627357" y="409.4515813939555" type="curve"/>
    </contour>
  </outline>
</glyph>
<glyph name="macron" format="2">
  <advance width="499.5720238095238"/>
  <unicode hex="00AF"/>
  <anchor x="249.7860119047619" y="973.9472733990148" name="center" identifier="center"/>
  <anchor x="249.7860119047619" y="1092.5347928981937" name="top" identifier="top"/>
  <outline>
    <contour>
      <point x="113.85000000000001" y="958.6491483990147" type="line"/>
      <point x="385.72202380952376" y="958.6491483990147" type="line"/>
      <point x="385.72202380952376" y="989.2453983990147" type="line"/>
      <point x="113.85000000000001" y="989.2453983990147" type="line"/>
    </contour>
  </outline>
</glyph>
<glyph name="degree" format="2">
  <advance width="465.7208333333333"/>
  <unicode hex="00B0"/>
  <outline>
    <contour>
      <point x="380.8708333333333" y="716.9895833333334" type="curve" smooth="yes"/>
      <point x="380.8708333333333" y="798.6787554081251"/>
      <point x="314.54958874145836" y="865.0"/>
      <point x="232.86041666666665" y="865.0" type="curve" smooth="yes"/>
      <point x="151.171244591875" y="865.0"/>
      <point x="84.85000000000001" y="798.6787554081251"/>
      <point x="84.85000000000001" y="716.9895833333334" type="curve" smooth="yes"/>
      <point x="84.85000000000001" y="635.3004112585418"/>
      <point x="151.171244591875" y="568.9791666666667"/>
      <point x="232.86041666666665" y="568.9791666666667" type="curve" smooth="yes"/>
      <point x="314.54958874145825" y="568.9791666666667"/>
      <point x="380.8708333333333" y="635.3004112585417"/>
    </contour>
    <contour>
      <point x="350.48626413690477" y="716.9895833333334" type="curve" smooth="yes"/>
      <point x="350.48626413690477" y="651.2279127793454"/>
      <point x="297.902044877154" y="597.8445074032738"/>
      <point x="232.86041666666665" y="597.8445074032738" type="curve" smooth="yes"/>
      <point x="167.81878845617928" y="597.8445074032738"/>
      <point x="115.23456919642858" y="651.2279127793454"/>
      <point x="115.23456919642858" y="716.9895833333334" type="curve" smooth="yes"/>
      <point x="115.23456919642858" y="782.7512538873214"/>
      <point x="167.81878845617928" y="836.1346592633929"/>
      <point x="232.86041666666665" y="836.1346592633929" type="curve" smooth="yes"/>
      <point x="297.902044877154" y="836.1346592633929"/>
      <point x="350.48626413690477" y="782.7512538873214"/>
    </contour>
  </outline>
</glyph>
<glyph name="plusminus" format="2">
  <advance width="716.3527252197266"/>
  <unicode hex="00B1"/>
  <outline>
    <contour>
      <point x="343.3638626098633" y="230.49149322509766" type="line"/>
      <point x="372.9888626098633" y="230.49149322509766" type="line"/>
      <point x="372.9888626098633" y="455.00535583496094" type="line"/>
      <point x="597.5027252197266" y="455.00535583496094" type="line"/>
      <point x="597.5027252197266" y="484.63035583496094" type="line"/>
      <point x="372.9888626098633" y="484.63035583496094" type="line"/>
      <point x="372.9888626098633" y="709.1442184448242" type="line"/>
      <point x="343.3638626098633" y="709.1442184448242" type="line"/>
      <point x="343.3638626098633" y="484.63035583496094" type="line"/>
      <point x="118.85000000000001" y="484.63035583496094" type="line"/>
      <point x="118.85000000000001" y="455.00535583496094" type="line"/>
      <point x="343.3638626098633" y="455.00535583496094" type="line"/>
    </contour>
    <contour>
      <point x="118.85000000000001" y="140.85578125" type="line"/>
      <point x="597.5027232142857" y="140.85578125" type="line"/>
      <point x="597.5027232142857" y="170.48078125" type="line"/>
      <point x="118.85000000000001" y="170.48078125" type="line"/>
    </contour>
  </outline>
</glyph>
<glyph name="sup_two" format="2">
  <advance width="529.3192703247071"/>
  <unicode hex="00B2"/>
  <outline>
    <contour>
      <point x="88.85000000000001" y="303.57142639160156" type="line"/>
      <point x="431.46927032470705" y="303.57142639160156" type="line"/>
      <point x="431.46927032470705" y="332.74615478515625" type="line"/>
      <point x="154.58171997070315" y="332.74615478515625" type="line"/>
      <point x="342.6768863679224" y="547.3068946886267" type="line"/>
      <point x="382.36921500256176" y="592.5840571137098"/>
      <point x="418.61213043044154" y="637.3321947152737"/>
      <point x="418.61213043044154" y="703.1064304878355" type="curve"/>
      <point x="418.61213043044154" y="789.4975860547697"/>
      <point x="347.98588017054084" y="859.6428571428571"/>
      <point x="260.8666068586359" y="859.6428571428571" type="curve"/>
      <point x="232.5959271119816" y="859.6428571428571"/>
      <point x="165.78001249134775" y="854.0084318649255"/>
      <point x="120.82458648681641" y="804.4484100341797" type="curve"/>
      <point x="120.82458648681641" y="764.4154281616211" type="line"/>
      <point x="148.66852852411603" y="805.2047411611555"/>
      <point x="200.30565970671358" y="830.46813192734"/>
      <point x="259.40771237411803" y="830.46813192734" type="curve"/>
      <point x="330.56952140062674" y="830.46813192734"/>
      <point x="388.33387478900784" y="774.2730836231141"/>
      <point x="388.33387478900784" y="703.6182677723183" type="curve"/>
      <point x="388.33387478900784" y="646.3925335842"/>
      <point x="357.231182115614" y="610.6022721390812"/>
      <point x="350.52199325561526" y="602.9329490661621" type="curve"/>
      <point x="349.5180946350098" y="601.7710266113281" type="line"/>
    </contour>
  </outline>
</glyph>
<glyph name="sup_three" format="2">
  <advance width="506.01531742640907"/>
  <unicode hex="00B3"/>
  <outline>
    <contour>
      <point x="233.1862286132125" y="293.92857142857133" type="curve"/>
      <point x="338.51326900177304" y="293.92857142857133"/>
      <point x="423.9510286549965" y="373.26699941470855"/>
      <point x="423.9510286549965" y="471.0326571846411" type="curve"/>
      <point x="423.9510286549965" y="570.8713735244683"/>
      <point x="339.5784710396571" y="644.733780253081"/>
      <point x="234.10925663539342" y="648.0052185058594" type="curve"/>
      <point x="427.16531742640905" y="850" type="line"/>
      <point x="112.15979374476844" y="850" type="line"/>
      <point x="112.15979374476844" y="820.8252716064453" type="line"/>
      <point x="358.7706335885184" y="820.8252716064453" type="line"/>
      <point x="158.91823185511998" y="612.2411880493164" type="line"/>
      <point x="186.52753576907435" y="617.997280739186"/>
      <point x="212.03321470634478" y="618.9059722976541"/>
      <point x="224.98232049393033" y="618.9059722976541" type="curve"/>
      <point x="320.32441959046275" y="618.9059722976541"/>
      <point x="393.240791586031" y="555.4430944105287"/>
      <point x="393.240791586031" y="471.0326571846411" type="curve"/>
      <point x="393.240791586031" y="389.4533658424067"/>
      <point x="321.5597433694167" y="323.1593420716281"/>
      <point x="233.1862286132125" y="323.1593420716281" type="curve"/>
      <point x="178.07658167692125" y="323.1593420716281"/>
      <point x="128.47077633991364" y="343.1956959653198"/>
      <point x="93.85000000000001" y="375.14744949340815" type="curve"/>
      <point x="93.85000217982702" y="339.4145965576172" type="line"/>
      <point x="129.5320204508892" y="310.3120039431692"/>
      <point x="178.7939750079446" y="293.92857142857133"/>
    </contour>
  </outline>
</glyph>
<glyph name="acute" format="2">
  <advance width="382.75429840087895"/>
  <unicode hex="00B4"/>
  <anchor x="142.7553792542443" y="973.9472733990148" name="center" identifier="center"/>
  <anchor x="142.7553792542443" y="898.7865591133004" name="bottom" identifier="bottom"/>
  <anchor x="142.7553792542443" y="1174.524062851016" name="top" identifier="top"/>
  <outline>
    <contour>
      <point x="268.90429840087893" y="1083.7865600585938" type="line"/>
      <point x="233.84290466308596" y="1083.7865600585938" type="line"/>
      <point x="113.85000000000001" y="898.7865600585938" type="line"/>
      <point x="148.911393737793" y="898.7865600585938" type="line"/>
    </contour>
  </outline>
</glyph>
<glyph name="micron" format="2">
  <advance width="697.3771545410157"/>
  <unicode hex="00B5"/>
  <outline>
    <contour>
      <point x="144.59363781444688" y="269.83857886904764" type="curve"/>
      <point x="144.59363708496096" y="582.6875" type="line"/>
      <point x="113.85000000000001" y="582.6875" type="line"/>
      <point x="113.85000000000001" y="-257.6875" type="line"/>
      <point x="144.59363708496096" y="-257.6875" type="line"/>
      <point x="144.59363708496096" y="103.71566772460938" type="line"/>
      <point x="185.022439282606" y="32.81963481447488"/>
      <point x="261.30220644088075" y="-14.999999999999972"/>
      <point x="348.6627168000821" y="-14.999999999999986" type="curve" smooth="yes"/>
      <point x="436.06041441581476" y="-15.00000000000002"/>
      <point x="512.3679332139839" y="32.86035480352669"/>
      <point x="552.7835174560547" y="103.79104614257812" type="curve"/>
      <point x="552.7835174560547" y="0" type="line"/>
      <point x="583.5271545410156" y="0" type="line"/>
      <point x="583.5271545410156" y="582.6875" type="line"/>
      <point x="552.7835174560547" y="582.6875" type="line"/>
      <point x="552.7835174560547" y="269.8385772705078" type="line"/>
      <point x="552.7835174560547" y="47.53853504977084"/>
      <point x="424.8201204264275" y="14.206456034482756"/>
      <point x="348.68857886904755" y="14.206456034482756" type="curve" smooth="yes"/>
      <point x="272.5570373116676" y="14.206456034482764"/>
      <point x="144.59363833279536" y="47.53853664831067"/>
    </contour>
  </outline>
</glyph>
<glyph name="pilcrow" format="2">
  <advance width="591.9077411469959"/>
  <unicode hex="00B6"/>
  <outline>
    <contour>
      <point x="299.63273809523815" y="-185.71428680419922" type="line"/>
      <point x="328.84523962111706" y="-185.71428680419922" type="line"/>
      <point x="328.84523962111706" y="820.7874984741211" type="line"/>
      <point x="448.84523962111706" y="820.7874984741211" type="line"/>
      <point x="448.84523962111706" y="-185.71428680419922" type="line"/>
      <point x="478.05774114699597" y="-185.71428680419922" type="line"/>
      <point x="478.05774114699597" y="850" type="line"/>
      <point x="349.63273809523815" y="850.0" type="line"/>
      <point x="83.36483200760266" y="850.0"/>
      <point x="53.85000000000001" y="676.4378314811162"/>
      <point x="53.85000000000001" y="604.2172619047619" type="curve" smooth="yes"/>
      <point x="53.85000000000002" y="468.5660770932738"/>
      <point x="163.98155328374992" y="358.4345238095238"/>
      <point x="299.6327380952381" y="358.4345238095238" type="curve"/>
    </contour>
  </outline>
</glyph>
<glyph name="interpunct" format="2">
  <advance width="289.8775510204082"/>
  <unicode hex="00B7"/>
  <outline>
    <contour>
      <point x="192.02755102040817" y="425.0" type="curve" smooth="yes"/>
      <point x="192.02755102040817" y="450.9890024774898"/>
      <point x="170.9277779876939" y="472.0887755102041"/>
      <point x="144.9387755102041" y="472.0887755102041" type="curve" smooth="yes"/>
      <point x="118.94977303271428" y="472.0887755102041"/>
      <point x="97.85000000000001" y="450.9890024774898"/>
      <point x="97.85000000000001" y="425.0" type="curve" smooth="yes"/>
      <point x="97.85000000000001" y="399.0109975225102"/>
      <point x="118.94977303271428" y="377.9112244897959"/>
      <point x="144.9387755102041" y="377.9112244897959" type="curve" smooth="yes"/>
      <point x="170.92777798769384" y="377.9112244897959"/>
      <point x="192.02755102040817" y="399.0109975225102"/>
    </contour>
  </outline>
</glyph>
<glyph name="cedilla" format="2">
  <advance width="281.8809324718657"/>
  <unicode hex="00B8"/>
  <anchor x="137.47750985281806" y="0" name="top" identifier="top"/>
  <outline>
    <contour>
      <point x="199.89468247186568" y="-168.8953566585848" type="curve"/>
      <point x="199.89468247186568" y="-213.13760997585587"/>
      <point x="162.23814881678538" y="-245.18491487068968"/>
      <point x="115.82215270996095" y="-245.18491487068968" type="curve"/>
      <point x="101.07648917830265" y="-245.18491487068965"/>
      <point x="61.773006159116804" y="-243.034144870838"/>
      <point x="32.85000000000001" y="-221.85923767089844" type="curve"/>
      <point x="32.85000000000001" y="-250.25769805908203" type="line"/>
      <point x="64.97090775129833" y="-270.0547476314909"/>
      <point x="99.4778107067951" y="-272.6875"/>
      <point x="115.82215270996097" y="-272.6875" type="curve"/>
      <point x="177.79121445057115" y="-272.6875"/>
      <point x="228.0309324718657" y="-226.2009653926793"/>
      <point x="228.0309324718657" y="-168.99613252065376" type="curve"/>
      <point x="228.0309324718657" y="-113.46354373898339"/>
      <point x="181.9300776141048" y="-65.3047650413075"/>
      <point x="120.82215270996095" y="-65.3047650413075" type="curve" smooth="yes"/>
      <point x="117.76873168945313" y="-65.38105773925781" type="line"/>
      <point x="149.1234298706055" y="0.2121124267578125" type="line"/>
      <point x="118.97580871582032" y="0.2121124267578125" type="line"/>
      <point x="69.81207427978516" y="-102.6370849609375" type="line"/>
      <point x="81.90146455486463" y="-96.67204710426806"/>
      <point x="96.58465485938665" y="-92.60579844647992"/>
      <point x="113.32215270996095" y="-92.60579844647994" type="curve"/>
      <point x="161.11888795637867" y="-92.60579844647992"/>
      <point x="199.89468247186568" y="-123.96649007414328"/>
    </contour>
  </outline>
</glyph>
<glyph name="sup_one" format="2">
  <advance width="456.0349761962891"/>
  <unicode hex="00B9"/>
  <outline>
    <contour>
      <point x="230.91336212158205" y="303.57142639160156" type="line"/>
      <point x="262.1849761962891" y="303.57142639160156" type="line"/>
      <point x="262.1849761962891" y="850" type="line"/>
      <point x="148.73418579101565" y="850" type="line"/>
      <point x="124.85000000000001" y="820.8252716064453" type="line"/>
      <point x="230.91336212158205" y="820.8252716064453" type="line"/>
    </contour>
  </outline>
</glyph>
<glyph name="ordinal_o" format="2">
  <advance width="531.5345834418719"/>
  <unicode hex="00BA"/>
  <outline>
    <contour>
      <point x="441.6845834418719" y="682.6964285714286" type="curve" smooth="yes"/>
      <point x="441.6845834418719" y="779.7878241499347"/>
      <point x="362.8586872994421" y="858.6137202923645"/>
      <point x="265.76729172093593" y="858.6137202923645" type="curve" smooth="yes"/>
      <point x="168.67589614242974" y="858.6137202923645"/>
      <point x="89.85000000000001" y="779.7878241499347"/>
      <point x="89.85000000000001" y="682.6964285714286" type="curve" smooth="yes"/>
      <point x="89.85000000000001" y="585.6050329929224"/>
      <point x="168.67589614242974" y="506.77913685049265"/>
      <point x="265.76729172093593" y="506.77913685049265" type="curve" smooth="yes"/>
      <point x="362.8586872994421" y="506.77913685049265"/>
      <point x="441.6845834418719" y="585.6050329929224"/>
    </contour>
    <contour>
      <point x="410.9822989591133" y="682.6964285714286" type="curve" smooth="yes"/>
      <point x="410.9822989591133" y="601.6514126828556"/>
      <point x="346.12196873396226" y="535.9463071091134"/>
      <point x="265.76729172093593" y="535.9463071091134" type="curve" smooth="yes"/>
      <point x="185.4126147079096" y="535.9463071091134"/>
      <point x="120.55228448275862" y="601.6514126828556"/>
      <point x="120.55228448275862" y="682.6964285714286" type="curve" smooth="yes"/>
      <point x="120.55228448275862" y="763.7414444600015"/>
      <point x="185.4126147079096" y="829.4465500337438"/>
      <point x="265.76729172093593" y="829.4465500337438" type="curve" smooth="yes"/>
      <point x="346.12196873396226" y="829.4465500337438"/>
      <point x="410.9822989591133" y="763.7414444600015"/>
    </contour>
    <contour>
      <point x="98.46372029236453" y="400.7866071428571" type="line"/>
      <point x="433.0708631495074" y="400.7866071428571" type="line"/>
      <point x="433.0708631495074" y="429.9991071428571" type="line"/>
      <point x="98.46372029236453" y="429.9991071428571" type="line"/>
    </contour>
  </outline>
</glyph>
<glyph name="angleright_dbl" format="2">
  <advance width="482.9773513793946"/>
  <unicode hex="00BB"/>
  <outline>
    <contour>
      <point x="430.12735137939455" y="291.34375" type="line"/>
      <point x="258.93492279052737" y="496.00743865966797" type="line"/>
      <point x="225.01028594970705" y="496.00743865966797" type="line"/>
      <point x="394.4086318969727" y="291.34375" type="line"/>
      <point x="225.01028594970705" y="86.68006134033203" type="line"/>
      <point x="258.93492279052737" y="86.68006134033203" type="line"/>
    </contour>
    <contour>
      <point x="279.9670654296875" y="291.34375" type="line"/>
      <point x="108.77463684082032" y="496.00743865966797" type="line"/>
      <point x="74.85000000000001" y="496.00743865966797" type="line"/>
      <point x="244.24834594726565" y="291.34375" type="line"/>
      <point x="74.85000000000001" y="86.68006134033203" type="line"/>
      <point x="108.77463684082032" y="86.68006134033203" type="line"/>
    </contour>
  </outline>
</glyph>
<glyph name="one_over_four" format="2">
  <advance width="987.8009924862791"/>
  <unicode hex="00BC"/>
  <outline>
    <contour>
      <point x="125.74741705355932" y="0" type="line"/>
      <point x="164.39738043246558" y="0" type="line"/>
      <point x="813.9189105838327" y="850" type="line"/>
      <point x="775.2689472049265" y="850" type="line"/>
    </contour>
    <contour>
      <point x="195.91336212158205" y="303.57142639160156" type="line"/>
      <point x="227.18497619628909" y="303.57142639160156" type="line"/>
      <point x="227.18497619628909" y="850" type="line"/>
      <point x="113.73418579101563" y="850" type="line"/>
      <point x="89.85000000000001" y="820.8252716064453" type="line"/>
      <point x="195.91336212158205" y="820.8252716064453" type="line"/>
    </contour>
    <contour>
      <point x="518.346683404248" y="160.951904296875" type="line"/>
      <point x="828.9550436947752" y="160.951904296875" type="line"/>
      <point x="828.9550436947752" y="0" type="line"/>
      <point x="859.6652792904783" y="0" type="line"/>
      <point x="859.6652792904783" y="160.951904296875" type="line"/>
      <point x="923.9509924862791" y="160.951904296875" type="line"/>
      <point x="923.9509924862791" y="189.94784545898438" type="line"/>
      <point x="859.6652792904783" y="189.94784545898438" type="line"/>
      <point x="859.6652792904783" y="390.3061218261719" type="line"/>
      <point x="828.9550436947752" y="390.3061218261719" type="line"/>
      <point x="828.9550436947752" y="189.94784545898438" type="line"/>
      <point x="574.9968832943847" y="189.94784545898438" type="line"/>
      <point x="821.7555273983885" y="546.4285736083984" type="line"/>
      <point x="784.7825888607908" y="546.4285736083984" type="line"/>
    </contour>
  </outline>
</glyph>
<glyph name="one_over_two" format="2">
  <advance width="1058.308473107617"/>
  <unicode hex="00BD"/>
  <outline>
    <contour>
      <point x="125.74741705355932" y="0" type="line"/>
      <point x="164.39738043246558" y="0" type="line"/>
      <point x="813.9189105838327" y="850" type="line"/>
      <point x="775.2689472049265" y="850" type="line"/>
    </contour>
    <contour>
      <point x="195.91336212158205" y="303.57142639160156" type="line"/>
      <point x="227.18497619628909" y="303.57142639160156" type="line"/>
      <point x="227.18497619628909" y="850" type="line"/>
      <point x="113.73418579101563" y="850" type="line"/>
      <point x="89.85000000000001" y="820.8252716064453" type="line"/>
      <point x="195.91336212158205" y="820.8252716064453" type="line"/>
    </contour>
    <contour>
      <point x="619.83920278291" y="0" type="line"/>
      <point x="962.458473107617" y="0" type="line"/>
      <point x="962.458473107617" y="29.174728393554688" type="line"/>
      <point x="685.5709227536131" y="29.174728393554688" type="line"/>
      <point x="873.6660899544446" y="243.73546921370803" type="line"/>
      <point x="913.358418589084" y="289.0126316387911"/>
      <point x="949.6013332133515" y="333.7607661438451"/>
      <point x="949.6013332133515" y="399.535001916407" type="curve"/>
      <point x="949.6013332133515" y="485.9261574833413"/>
      <point x="878.9750829534507" y="556.0714285714287"/>
      <point x="791.8558096415459" y="556.0714285714287" type="curve"/>
      <point x="763.5851298948916" y="556.0714285714287"/>
      <point x="696.769216796678" y="550.4370040923509"/>
      <point x="651.8137892697264" y="500.8769836425781" type="curve"/>
      <point x="651.8137892697264" y="460.84400177001953" type="line"/>
      <point x="679.6577323220537" y="501.63331407666726"/>
      <point x="731.2948624896236" y="526.8967033559113"/>
      <point x="790.396915157028" y="526.8967033559114" type="curve"/>
      <point x="861.5587241835367" y="526.8967033559114"/>
      <point x="919.3230775719178" y="470.7016550516855"/>
      <point x="919.3230775719178" y="400.0468392008898" type="curve"/>
      <point x="919.3230775719178" y="342.8211050127715"/>
      <point x="888.2203852050004" y="307.0308454793714"/>
      <point x="881.5111960385252" y="299.36152267456055" type="curve"/>
      <point x="880.5072974179197" y="298.19960021972656" type="line"/>
    </contour>
  </outline>
</glyph>
<glyph name="three_over_four" format="2">
  <advance width="1089.791163101339"/>
  <unicode hex="00BE"/>
  <outline>
    <contour>
      <point x="227.7375876686193" y="0" type="line"/>
      <point x="266.38755104752556" y="0" type="line"/>
      <point x="915.9090811988927" y="850" type="line"/>
      <point x="877.2591178199865" y="850" type="line"/>
    </contour>
    <contour>
      <point x="233.1862286132125" y="293.92857142857133" type="curve"/>
      <point x="338.513269001773" y="293.92857142857133"/>
      <point x="423.95102865499643" y="373.26699941470855"/>
      <point x="423.95102865499643" y="471.0326571846411" type="curve"/>
      <point x="423.95102865499643" y="570.8713735244683"/>
      <point x="339.578471039657" y="644.733780253081"/>
      <point x="234.10925663539342" y="648.0052185058594" type="curve"/>
      <point x="427.16531742640905" y="850" type="line"/>
      <point x="112.15979374476841" y="850" type="line"/>
      <point x="112.15979374476841" y="820.8252716064453" type="line"/>
      <point x="358.7706335885184" y="820.8252716064453" type="line"/>
      <point x="158.91823185511998" y="612.2411880493164" type="line"/>
      <point x="186.5275357690743" y="617.997280739186"/>
      <point x="212.03321470634478" y="618.9059722976541"/>
      <point x="224.98232049393033" y="618.9059722976541" type="curve"/>
      <point x="320.3244195904627" y="618.9059722976541"/>
      <point x="393.2407915860309" y="555.4430944105287"/>
      <point x="393.2407915860309" y="471.0326571846411" type="curve"/>
      <point x="393.2407915860309" y="389.4533658424067"/>
      <point x="321.5597433694167" y="323.1593420716281"/>
      <point x="233.1862286132125" y="323.1593420716281" type="curve"/>
      <point x="178.07658167692125" y="323.1593420716281"/>
      <point x="128.47077633991364" y="343.1956959653198"/>
      <point x="93.85000000000001" y="375.14744949340815" type="curve"/>
      <point x="93.850002179827" y="339.4145965576172" type="line"/>
      <point x="129.5320204508892" y="310.3120039431692"/>
      <point x="178.79397500794454" y="293.92857142857133"/>
    </contour>
    <contour>
      <point x="620.3368540193079" y="160.951904296875" type="line"/>
      <point x="930.9452143098353" y="160.951904296875" type="line"/>
      <point x="930.9452143098353" y="0" type="line"/>
      <point x="961.6554499055384" y="0" type="line"/>
      <point x="961.6554499055384" y="160.951904296875" type="line"/>
      <point x="1025.941163101339" y="160.951904296875" type="line"/>
      <point x="1025.941163101339" y="189.94784545898438" type="line"/>
      <point x="961.6554499055384" y="189.94784545898438" type="line"/>
      <point x="961.6554499055384" y="390.3061218261719" type="line"/>
      <point x="930.9452143098353" y="390.3061218261719" type="line"/>
      <point x="930.9452143098353" y="189.94784545898438" type="line"/>
      <point x="676.9870539094446" y="189.94784545898438" type="line"/>
      <point x="923.7456980134485" y="546.4285736083984" type="line"/>
      <point x="886.7727594758509" y="546.4285736083984" type="line"/>
    </contour>
  </outline>
</glyph>
<glyph name="inv_question" format="2">
  <advance width="529.7580357142858"/>
  <unicode hex="00BF"/>
  <outline>
    <contour>
      <point x="333.9582380365941" y="550.5987244897959" type="curve" smooth="yes"/>
      <point x="333.9582380365941" y="524.6097220123062"/>
      <point x="355.05801106930835" y="503.50994897959185"/>
      <point x="381.04701354679815" y="503.50994897959185" type="curve" smooth="yes"/>
      <point x="407.03601602428796" y="503.50994897959185"/>
      <point x="428.1357890570022" y="524.6097220123062"/>
      <point x="428.1357890570022" y="550.5987244897959" type="curve" smooth="yes"/>
      <point x="428.1357890570022" y="576.5877269672857"/>
      <point x="407.03601602428796" y="597.6875"/>
      <point x="381.04701354679815" y="597.6875" type="curve" smooth="yes"/>
      <point x="355.05801106930835" y="597.6875"/>
      <point x="333.9582380365941" y="576.5877269672858"/>
    </contour>
    <contour>
      <point x="322.3790178571429" y="195.53303571428586" type="curve"/>
      <point x="347.887064586199" y="195.5330357119521"/>
      <point x="372.49768846873314" y="191.7582767581881"/>
      <point x="395.6943440028601" y="184.72119903564453" type="curve"/>
      <point x="395.3086552211218" y="404.65995025634766" type="line"/>
      <point x="366.78537793840695" y="404.65995025634766" type="line"/>
      <point x="366.14113660539914" y="220.9722137451172" type="line"/>
      <point x="347.4084429799509" y="224.24164471840433"/>
      <point x="331.9875454890248" y="224.74553571428584"/>
      <point x="322.3790178571429" y="224.7455357142858" type="curve"/>
      <point x="174.13112392254794" y="224.74553571428584"/>
      <point x="53.85000000000002" y="111.51664179357249"/>
      <point x="53.85000000000001" y="-28.783482142856997" type="curve"/>
      <point x="53.84999999999995" y="-168.70995510406243"/>
      <point x="167.45254489593742" y="-282.3125"/>
      <point x="307.37901785714286" y="-282.3125" type="curve"/>
      <point x="369.3981078836278" y="-282.3125"/>
      <point x="426.3423444524705" y="-260.9563876265247"/>
      <point x="470.90803571428586" y="-225.2728042602539" type="curve"/>
      <point x="470.90803571428586" y="-189.77515411376953" type="line"/>
      <point x="428.0862168702229" y="-229.15629137611717"/>
      <point x="370.5794117999921" y="-253.10000000000014"/>
      <point x="307.3790178571428" y="-253.10000000000014" type="curve"/>
      <point x="183.70326171004626" y="-253.10000000000002"/>
      <point x="84.59999999999995" y="-152.5817686982229"/>
      <point x="84.60000000000001" y="-28.783482142856997" type="curve"/>
      <point x="84.60000000000001" y="95.13152050556708"/>
      <point x="191.10569407315796" y="195.5330357142859"/>
    </contour>
  </outline>
</glyph>
<glyph name="A_with_tildeabove" format="2">
  <advance width="835.2238113403321"/>
  <unicode hex="00C3"/>
  <outline>
    <contour>
      <point x="348.78488672254616" y="986.9438891086459" type="curve"/>
      <point x="370.1896083837664" y="986.9438891086459"/>
      <point x="385.38000543010367" y="976.7716074517738"/>
      <point x="403.69125118342083" y="963.7130536994777" type="curve"/>
      <point x="407.8412024101025" y="960.7535411740553" type="line"/>
      <point x="431.5571387458249" y="943.8406651415788"/>
      <point x="455.92631604745395" y="927.5635706358121"/>
      <point x="486.4389228012634" y="927.5635706358121" type="curve"/>
      <point x="516.3794185336682" y="927.5635706358121"/>
      <point x="542.3935334658516" y="944.5081106007354"/>
      <point x="555.4065450477415" y="969.3459320068359" type="curve"/>
      <point x="555.4065450477415" y="1017.4380493164062" type="line"/>
      <point x="550.3724412746651" y="983.6431396216693"/>
      <point x="521.3911045939204" y="957.8756576893836"/>
      <point x="486.4389228012633" y="957.8756576893836" type="curve"/>
      <point x="465.034201140043" y="957.8756576893836"/>
      <point x="449.843804047975" y="968.0479347051495"/>
      <point x="431.53255999758437" y="981.1064908453594" type="curve"/>
      <point x="427.3826078563367" y="984.0660048394133" type="line"/>
      <point x="403.6666737261712" y="1000.9788839646127"/>
      <point x="379.29749347635556" y="1017.2559761622173"/>
      <point x="348.78488672254616" y="1017.2559761622173" type="curve"/>
      <point x="318.8443909901414" y="1017.2559761622174"/>
      <point x="292.8302695786585" y="1000.3114238303118"/>
      <point x="279.81725824354226" y="975.4736022949219" type="curve"/>
      <point x="279.81725824354226" y="927.3814544677734" type="line"/>
      <point x="284.8513618455787" y="961.1763641879885"/>
      <point x="313.832704929889" y="986.9438891086457"/>
    </contour>
    <contour>
      <point x="12.850000000000009" y="0" type="line"/>
      <point x="45.062318420410165" y="0" type="line"/>
      <point x="170.58359680175784" y="269.8069381713867" type="line"/>
      <point x="662.9447647094727" y="269.8069381713867" type="line"/>
      <point x="788.4660430908203" y="0" type="line"/>
      <point x="822.373811340332" y="0" type="line"/>
      <point x="686.4894577026367" y="292.07142639160156" type="line"/>
      <point x="686.4894577026367" y="299.0073471069336" type="line"/>
      <point x="683.2625671386719" y="299.0073471069336" type="line"/>
      <point x="417.6119018554688" y="870" type="line"/>
      <point x="151.96124420166018" y="299.0073471069336" type="line"/>
      <point x="148.73435363769534" y="299.0073471069336" type="line"/>
      <point x="148.73435363769534" y="292.0714340209961" type="line"/>
    </contour>
    <contour>
      <point x="416.764176940918" y="798.9700393676758" type="line"/>
      <point x="649.3599639892578" y="299.0073471069336" type="line"/>
      <point x="184.16839752197268" y="299.0073471069336" type="line"/>
    </contour>
  </outline>
</glyph>
<glyph name="A_with_diaeresis" format="2">
  <advance width="835.2238113403321"/>
  <unicode hex="00C4"/>
  <outline>
    <contour>
      <point x="367.6576076559934" y="973.9472733990148" type="curve" smooth="yes"/>
      <point x="367.6576076559934" y="993.3634404028984"/>
      <point x="351.8941431943598" y="1009.126904864532"/>
      <point x="332.47797619047617" y="1009.126904864532" type="curve" smooth="yes"/>
      <point x="313.06180918659265" y="1009.126904864532"/>
      <point x="297.29834472495895" y="993.3634404028984"/>
      <point x="297.29834472495895" y="973.9472733990148" type="curve" smooth="yes"/>
      <point x="297.29834472495895" y="954.5311063951311"/>
      <point x="313.06180918659265" y="938.7676419334975"/>
      <point x="332.47797619047617" y="938.7676419334975" type="curve" smooth="yes"/>
      <point x="351.8941431943598" y="938.7676419334975"/>
      <point x="367.6576076559934" y="954.5311063951311"/>
    </contour>
    <contour>
      <point x="537.9254647988506" y="973.9472733990148" type="curve" smooth="yes"/>
      <point x="537.9254647988506" y="993.3634404028984"/>
      <point x="522.1620003372169" y="1009.126904864532"/>
      <point x="502.7458333333333" y="1009.126904864532" type="curve" smooth="yes"/>
      <point x="483.32966632944976" y="1009.126904864532"/>
      <point x="467.56620186781606" y="993.3634404028984"/>
      <point x="467.56620186781606" y="973.9472733990148" type="curve" smooth="yes"/>
      <point x="467.56620186781606" y="954.5311063951311"/>
      <point x="483.32966632944976" y="938.7676419334975"/>
      <point x="502.7458333333333" y="938.7676419334975" type="curve" smooth="yes"/>
      <point x="522.1620003372169" y="938.7676419334975"/>
      <point x="537.9254647988506" y="954.5311063951311"/>
    </contour>
    <contour>
      <point x="12.850000000000009" y="0" type="line"/>
      <point x="45.062318420410165" y="0" type="line"/>
      <point x="170.58359680175784" y="269.8069381713867" type="line"/>
      <point x="662.9447647094727" y="269.8069381713867" type="line"/>
      <point x="788.4660430908203" y="0" type="line"/>
      <point x="822.373811340332" y="0" type="line"/>
      <point x="686.4894577026367" y="292.07142639160156" type="line"/>
      <point x="686.4894577026367" y="299.0073471069336" type="line"/>
      <point x="683.2625671386719" y="299.0073471069336" type="line"/>
      <point x="417.6119018554688" y="870" type="line"/>
      <point x="151.96124420166018" y="299.0073471069336" type="line"/>
      <point x="148.73435363769534" y="299.0073471069336" type="line"/>
      <point x="148.73435363769534" y="292.0714340209961" type="line"/>
    </contour>
    <contour>
      <point x="416.764176940918" y="798.9700393676758" type="line"/>
      <point x="649.3599639892578" y="299.0073471069336" type="line"/>
      <point x="184.16839752197268" y="299.0073471069336" type="line"/>
    </contour>
  </outline>
</glyph>
<glyph name="C_with_cedilla" format="2">
  <advance width="835.0236208123677"/>
  <unicode hex="00C7"/>
  <outline>
    <contour>
      <point x="49.1720338983051" y="425.0" type="curve" smooth="yes"/>
      <point x="49.1720338983051" y="194.49489528339504"/>
      <point x="224.80882419331044" y="9.093830314752267"/>
      <point x="449.4389024896137" y="-12.82720947265625" type="curve"/>
      <point x="406.50819265074654" y="-102.6370849609375" type="line"/>
      <point x="418.5975822356402" y="-96.6720457054631"/>
      <point x="433.280769422115" y="-92.60579844647992"/>
      <point x="450.0182672726893" y="-92.60579844647994" type="curve"/>
      <point x="497.815002519107" y="-92.60579844647992"/>
      <point x="536.5907970345941" y="-123.96649007414328"/>
      <point x="536.5907970345941" y="-168.8953566585848" type="curve"/>
      <point x="536.5907970345941" y="-213.13760997585587"/>
      <point x="498.9342633795137" y="-245.18491487068968"/>
      <point x="452.5182672726893" y="-245.18491487068968" type="curve"/>
      <point x="437.772603741031" y="-245.18491487068965"/>
      <point x="398.4691207218452" y="-243.034144870838"/>
      <point x="369.54611456272835" y="-221.85923767089844" type="curve"/>
      <point x="369.5461183709614" y="-250.25769805908203" type="line"/>
      <point x="401.66702464469284" y="-270.05475002885754"/>
      <point x="436.1739252695234" y="-272.6875"/>
      <point x="452.5182672726893" y="-272.6875" type="curve"/>
      <point x="514.4873290132995" y="-272.6875"/>
      <point x="564.7270470345941" y="-226.2009653926793"/>
      <point x="564.7270470345941" y="-168.99613252065376" type="curve"/>
      <point x="564.7270470345941" y="-113.46354373898339"/>
      <point x="518.6261921768331" y="-65.3047650413075"/>
      <point x="457.5182672726893" y="-65.3047650413075" type="curve" smooth="yes"/>
      <point x="454.4648500604145" y="-65.38105773925781" type="line"/>
      <point x="478.67531453795357" y="-14.733428955078125" type="line"/>
      <point x="483.81996082327566" y="-14.913288390338295"/>
      <point x="488.9864877518014" y="-14.999999999999998"/>
      <point x="494.17362441554644" y="-14.999999999999996" type="curve"/>
      <point x="595.2165732916616" y="-15.0"/>
      <point x="688.4390926094744" y="17.903262169466366"/>
      <point x="763.1736208123676" y="73.74042510986328" type="curve"/>
      <point x="763.1736208123676" y="110.76377868652344" type="line"/>
      <point x="690.3931014400724" y="50.35435740106158"/>
      <point x="596.5493285155296" y="14.21409051724121"/>
      <point x="494.17362441554644" y="14.214090517241189" type="curve"/>
      <point x="267.5010064632284" y="14.214090517241418"/>
      <point x="85.05691136135928" y="198.28084218763965"/>
      <point x="85.05691136135928" y="425.0" type="curve" smooth="yes"/>
      <point x="85.05691136135928" y="651.7191578123604"/>
      <point x="267.50100646322846" y="835.7859094827586"/>
      <point x="494.17362441554644" y="835.7859094827586" type="curve"/>
      <point x="596.5493240843895" y="835.7859106331216"/>
      <point x="690.3930958695202" y="799.6456449557221"/>
      <point x="763.1736208123676" y="739.2388534545898" type="curve"/>
      <point x="763.1736208123676" y="776.2557601928711" type="line"/>
      <point x="688.4390926094744" y="832.0967378305336"/>
      <point x="595.2165732916616" y="865.0"/>
      <point x="494.17362441554644" y="865.0" type="curve"/>
      <point x="248.57056268519136" y="865.0"/>
      <point x="49.1720338983051" y="670.6030617303552"/>
    </contour>
  </outline>
</glyph>
<glyph name="E_with_grave" format="2">
  <advance width="660.9827377319336"/>
  <unicode hex="00C8"/>
  <outline>
    <contour>
      <point x="217.80338448694806" y="1083.7865600585938" type="line"/>
      <point x="337.796289150034" y="898.7865600585938" type="line"/>
      <point x="372.85768288782697" y="898.7865600585938" type="line"/>
      <point x="252.86477822474103" y="1083.7865600585938" type="line"/>
    </contour>
    <contour>
      <point x="113.85000000000001" y="0" type="line"/>
      <point x="572.1327377319336" y="0" type="line"/>
      <point x="572.1327377319336" y="29.212501525878906" type="line"/>
      <point x="144.60000000000002" y="29.212501525878906" type="line"/>
      <point x="144.60000000000002" y="415.4100036621094" type="line"/>
      <point x="542.1327377319336" y="415.4100036621094" type="line"/>
      <point x="542.1327377319336" y="444.5899963378906" type="line"/>
      <point x="144.60000000000002" y="444.5899963378906" type="line"/>
      <point x="144.60000000000002" y="820.7874984741211" type="line"/>
      <point x="572.1327377319336" y="820.7874984741211" type="line"/>
      <point x="572.1327377319336" y="850" type="line"/>
      <point x="113.85000000000001" y="850" type="line"/>
    </contour>
  </outline>
</glyph>
<glyph name="E_with_acute" format="2">
  <advance width="660.9827377319336"/>
  <unicode hex="00C9"/>
  <outline>
    <contour>
      <point x="470.1012256942537" y="1083.7865600585938" type="line"/>
      <point x="435.0398319564607" y="1083.7865600585938" type="line"/>
      <point x="315.0469272933748" y="898.7865600585938" type="line"/>
      <point x="350.10832103116775" y="898.7865600585938" type="line"/>
    </contour>
    <contour>
      <point x="113.85000000000001" y="0" type="line"/>
      <point x="572.1327377319336" y="0" type="line"/>
      <point x="572.1327377319336" y="29.212501525878906" type="line"/>
      <point x="144.60000000000002" y="29.212501525878906" type="line"/>
      <point x="144.60000000000002" y="415.4100036621094" type="line"/>
      <point x="542.1327377319336" y="415.4100036621094" type="line"/>
      <point x="542.1327377319336" y="444.5899963378906" type="line"/>
      <point x="144.60000000000002" y="444.5899963378906" type="line"/>
      <point x="144.60000000000002" y="820.7874984741211" type="line"/>
      <point x="572.1327377319336" y="820.7874984741211" type="line"/>
      <point x="572.1327377319336" y="850" type="line"/>
      <point x="113.85000000000001" y="850" type="line"/>
    </contour>
  </outline>
</glyph>
<glyph name="E_with_circumflex" format="2">
  <advance width="660.9827377319336"/>
  <unicode hex="00CA"/>
  <outline>
    <contour>
      <point x="203.94456845238096" y="913.9439544677734" type="line"/>
      <point x="245.17518216087706" y="913.9439544677734" type="line"/>
      <point x="343.95230465843565" y="1008.0447769165039" type="line"/>
      <point x="442.72942715599424" y="913.9439544677734" type="line"/>
      <point x="483.96004086449034" y="913.9439544677734" type="line"/>
      <point x="343.95230465843565" y="1047.2846603393555" type="line"/>
    </contour>
    <contour>
      <point x="113.85000000000001" y="0" type="line"/>
      <point x="572.1327377319336" y="0" type="line"/>
      <point x="572.1327377319336" y="29.212501525878906" type="line"/>
      <point x="144.60000000000002" y="29.212501525878906" type="line"/>
      <point x="144.60000000000002" y="415.4100036621094" type="line"/>
      <point x="542.1327377319336" y="415.4100036621094" type="line"/>
      <point x="542.1327377319336" y="444.5899963378906" type="line"/>
      <point x="144.60000000000002" y="444.5899963378906" type="line"/>
      <point x="144.60000000000002" y="820.7874984741211" type="line"/>
      <point x="572.1327377319336" y="820.7874984741211" type="line"/>
      <point x="572.1327377319336" y="850" type="line"/>
      <point x="113.85000000000001" y="850" type="line"/>
    </contour>
  </outline>
</glyph>
<glyph name="E_with_diaeresis" format="2">
  <advance width="660.9827377319336"/>
  <unicode hex="00CB"/>
  <outline>
    <contour>
      <point x="293.9980094417077" y="973.9472733990148" type="curve" smooth="yes"/>
      <point x="293.9980094417077" y="993.3634404028984"/>
      <point x="278.2345449800741" y="1009.126904864532"/>
      <point x="258.8183779761905" y="1009.126904864532" type="curve" smooth="yes"/>
      <point x="239.40221097230693" y="1009.126904864532"/>
      <point x="223.6387465106733" y="993.3634404028984"/>
      <point x="223.6387465106733" y="973.9472733990148" type="curve" smooth="yes"/>
      <point x="223.6387465106733" y="954.5311063951311"/>
      <point x="239.40221097230693" y="938.7676419334975"/>
      <point x="258.8183779761905" y="938.7676419334975" type="curve" smooth="yes"/>
      <point x="278.234544980074" y="938.7676419334975"/>
      <point x="293.9980094417077" y="954.5311063951311"/>
    </contour>
    <contour>
      <point x="464.26586658456483" y="973.9472733990148" type="curve" smooth="yes"/>
      <point x="464.26586658456483" y="993.3634404028984"/>
      <point x="448.50240212293124" y="1009.126904864532"/>
      <point x="429.0862351190476" y="1009.126904864532" type="curve" smooth="yes"/>
      <point x="409.6700681151641" y="1009.126904864532"/>
      <point x="393.9066036535304" y="993.3634404028984"/>
      <point x="393.9066036535304" y="973.9472733990148" type="curve" smooth="yes"/>
      <point x="393.9066036535304" y="954.5311063951311"/>
      <point x="409.6700681151641" y="938.7676419334975"/>
      <point x="429.0862351190476" y="938.7676419334975" type="curve" smooth="yes"/>
      <point x="448.50240212293124" y="938.7676419334975"/>
      <point x="464.26586658456483" y="954.5311063951311"/>
    </contour>
    <contour>
      <point x="113.85000000000001" y="0" type="line"/>
      <point x="572.1327377319336" y="0" type="line"/>
      <point x="572.1327377319336" y="29.212501525878906" type="line"/>
      <point x="144.60000000000002" y="29.212501525878906" type="line"/>
      <point x="144.60000000000002" y="415.4100036621094" type="line"/>
      <point x="542.1327377319336" y="415.4100036621094" type="line"/>
      <point x="542.1327377319336" y="444.5899963378906" type="line"/>
      <point x="144.60000000000002" y="444.5899963378906" type="line"/>
      <point x="144.60000000000002" y="820.7874984741211" type="line"/>
      <point x="572.1327377319336" y="820.7874984741211" type="line"/>
      <point x="572.1327377319336" y="850" type="line"/>
      <point x="113.85000000000001" y="850" type="line"/>
    </contour>
  </outline>
</glyph>
<glyph name="I_with_grave" format="2">
  <advance width="257.7542984008789"/>
  <unicode hex="00CC"/>
  <outline>
    <contour>
      <point x="2.8500000000000085" y="1083.7865600585938" type="line"/>
      <point x="122.84290466308593" y="898.7865600585938" type="line"/>
      <point x="157.9042984008789" y="898.7865600585938" type="line"/>
      <point x="37.91139373779296" y="1083.7865600585938" type="line"/>
    </contour>
    <contour>
      <point x="113.61228412963655" y="0" type="line"/>
      <point x="144.38555999170552" y="0" type="line"/>
      <point x="144.38555999170552" y="850" type="line"/>
      <point x="113.61228412963655" y="850" type="line"/>
    </contour>
  </outline>
</glyph>
<glyph name="I_with_acute" format="2">
  <advance width="258.75429840087895"/>
  <unicode hex="00CD"/>
  <outline>
    <contour>
      <point x="255.90429840087893" y="1083.7865600585938" type="line"/>
      <point x="220.84290466308596" y="1083.7865600585938" type="line"/>
      <point x="100.85000000000001" y="898.7865600585938" type="line"/>
      <point x="135.911393737793" y="898.7865600585938" type="line"/>
    </contour>
    <contour>
      <point x="114.36874132320985" y="0" type="line"/>
      <point x="145.1420171852788" y="0" type="line"/>
      <point x="145.1420171852788" y="850" type="line"/>
      <point x="114.36874132320985" y="850" type="line"/>
    </contour>
  </outline>
</glyph>
<glyph name="I_with_circumflex" format="2">
  <advance width="258.7154724121094"/>
  <unicode hex="00CE"/>
  <outline>
    <contour>
      <point x="-10.149999999999991" y="913.9439544677734" type="line"/>
      <point x="31.080613708496116" y="913.9439544677734" type="line"/>
      <point x="129.8577362060547" y="1008.0447769165039" type="line"/>
      <point x="228.6348587036133" y="913.9439544677734" type="line"/>
      <point x="269.8654724121094" y="913.9439544677734" type="line"/>
      <point x="129.8577362060547" y="1047.2846603393555" type="line"/>
    </contour>
    <contour>
      <point x="114.47110016420362" y="0" type="line"/>
      <point x="145.24437602627256" y="0" type="line"/>
      <point x="145.24437602627256" y="850" type="line"/>
      <point x="114.47110016420362" y="850" type="line"/>
    </contour>
  </outline>
</glyph>
<glyph name="I_with_diaeresis" format="2">
  <advance width="259.3271200738916"/>
  <unicode hex="00CF"/>
  <outline>
    <contour>
      <point x="79.20926293103449" y="973.9472733990148" type="curve" smooth="yes"/>
      <point x="79.20926293103449" y="993.3634404028984"/>
      <point x="63.44579846940081" y="1009.126904864532"/>
      <point x="44.02963146551724" y="1009.126904864532" type="curve" smooth="yes"/>
      <point x="24.61346446163367" y="1009.126904864532"/>
      <point x="8.850000000000009" y="993.3634404028984"/>
      <point x="8.850000000000009" y="973.9472733990148" type="curve" smooth="yes"/>
      <point x="8.850000000000009" y="954.5311063951311"/>
      <point x="24.61346446163364" y="938.7676419334975"/>
      <point x="44.02963146551724" y="938.7676419334975" type="curve" smooth="yes"/>
      <point x="63.44579846940081" y="938.7676419334975"/>
      <point x="79.20926293103446" y="954.5311063951311"/>
    </contour>
    <contour>
      <point x="249.4771200738916" y="973.9472733990148" type="curve" smooth="yes"/>
      <point x="249.4771200738916" y="993.3634404028984"/>
      <point x="233.71365561225795" y="1009.126904864532"/>
      <point x="214.29748860837438" y="1009.126904864532" type="curve" smooth="yes"/>
      <point x="194.8813216044908" y="1009.126904864532"/>
      <point x="179.11785714285716" y="993.3634404028984"/>
      <point x="179.11785714285716" y="973.9472733990148" type="curve" smooth="yes"/>
      <point x="179.11785714285716" y="954.5311063951311"/>
      <point x="194.8813216044908" y="938.7676419334975"/>
      <point x="214.29748860837438" y="938.7676419334975" type="curve" smooth="yes"/>
      <point x="233.71365561225795" y="938.7676419334975"/>
      <point x="249.4771200738916" y="954.5311063951311"/>
    </contour>
    <contour>
      <point x="113.77692210591132" y="0" type="line"/>
      <point x="144.5501979679803" y="0" type="line"/>
      <point x="144.5501979679803" y="850" type="line"/>
      <point x="113.77692210591132" y="850" type="line"/>
    </contour>
  </outline>
</glyph>
<glyph name="ETH" format="2">
  <advance width="846.9695029696127"/>
  <unicode hex="00D0"/>
  <outline>
    <contour>
      <point x="118.8559534708659" y="0" type="line"/>
      <point x="323.2949412027995" y="0.0" type="line"/>
      <point x="692.6845411960235" y="0.0"/>
      <point x="798.294941566104" y="256.7975420746361"/>
      <point x="798.294941566104" y="425.0" type="curve" smooth="yes"/>
      <point x="798.294941566104" y="593.2024579253639"/>
      <point x="692.684541559328" y="850.0"/>
      <point x="323.294941566104" y="850.0" type="curve"/>
      <point x="118.8559534708659" y="850" type="line"/>
      <point x="118.8559534708659" y="439.5899963378906" type="line"/>
      <point x="-14.48333333333332" y="439.5899963378906" type="line"/>
      <point x="-14.48333333333332" y="410.4100036621094" type="line"/>
      <point x="118.8559534708659" y="410.4100036621094" type="line"/>
    </contour>
    <contour>
      <point x="149.60595347086593" y="29.212501525878906" type="line"/>
      <point x="149.60595347086593" y="410.4100036621094" type="line"/>
      <point x="375.8916666666667" y="410.4100036621094" type="line"/>
      <point x="375.8916666666667" y="439.5899963378906" type="line"/>
      <point x="149.60595347086593" y="439.5899963378906" type="line"/>
      <point x="149.60595347086593" y="820.7874984741211" type="line"/>
      <point x="322.5261881510417" y="820.7874984741211" type="line"/>
      <point x="673.277842655818" y="820.7874984741211"/>
      <point x="767.5417605316213" y="579.7018438581397"/>
      <point x="767.5417605316213" y="425.0" type="curve" smooth="yes"/>
      <point x="767.5417605316213" y="270.29815614186026"/>
      <point x="673.2778460708801" y="29.21249794136853"/>
      <point x="322.526191566104" y="29.21250034224771" type="curve"/>
    </contour>
  </outline>
</glyph>
<glyph name="O_with_grave" format="2">
  <advance width="987.7031810344828"/>
  <unicode hex="00D2"/>
  <outline>
    <contour>
      <point x="367.70266845657034" y="1083.7865600585938" type="line"/>
      <point x="487.6955731196563" y="898.7865600585938" type="line"/>
      <point x="522.7569668574492" y="898.7865600585938" type="line"/>
      <point x="402.7640621943633" y="1083.7865600585938" type="line"/>
    </contour>
    <contour>
      <point x="938.8531810344828" y="425.0" type="curve" smooth="yes"/>
      <point x="938.8531810344828" y="670.6030617303551"/>
      <point x="739.4546522475965" y="865.0"/>
      <point x="493.85159051724133" y="865.0" type="curve" smooth="yes"/>
      <point x="248.24852878688625" y="865.0"/>
      <point x="48.85000000000001" y="670.6030617303551"/>
      <point x="48.85000000000001" y="425.0" type="curve" smooth="yes"/>
      <point x="48.85000000000001" y="179.3969382696449"/>
      <point x="248.24852878688625" y="-15.0"/>
      <point x="493.85159051724133" y="-15.0" type="curve" smooth="yes"/>
      <point x="739.4546522475965" y="-15.0"/>
      <point x="938.8531810344828" y="179.3969382696449"/>
    </contour>
    <contour>
      <point x="902.9683035714286" y="425.0" type="curve" smooth="yes"/>
      <point x="902.9683035714286" y="198.2800082488024"/>
      <point x="720.5250424083966" y="14.212499999999977"/>
      <point x="493.85159051724133" y="14.212499999999977" type="curve" smooth="yes"/>
      <point x="267.17813862608614" y="14.212499999999977"/>
      <point x="84.73487746305419" y="198.2800082488024"/>
      <point x="84.73487746305419" y="425.0" type="curve" smooth="yes"/>
      <point x="84.73487746305419" y="651.7199917511975"/>
      <point x="267.17813862608614" y="835.7875"/>
      <point x="493.85159051724133" y="835.7875" type="curve" smooth="yes"/>
      <point x="720.5250424083966" y="835.7875"/>
      <point x="902.9683035714286" y="651.7199917511975"/>
    </contour>
  </outline>
</glyph>
<glyph name="multiply" format="2">
  <advance width="562.6936981201172"/>
  <unicode hex="00D7"/>
  <outline>
    <contour>
      <point x="92.06320343017579" y="214.5031509399414" type="line"/>
      <point x="281.3468490600586" y="403.7867965698242" type="line"/>
      <point x="470.63049468994143" y="214.5031509399414" type="line"/>
      <point x="491.8436981201172" y="235.7163543701172" type="line"/>
      <point x="302.5600524902344" y="425" type="line"/>
      <point x="491.8436981201172" y="614.2836456298828" type="line"/>
      <point x="470.63049468994143" y="635.4968490600586" type="line"/>
      <point x="281.3468490600586" y="446.2132034301758" type="line"/>
      <point x="92.06320343017579" y="635.4968490600586" type="line"/>
      <point x="70.85000000000001" y="614.2836456298828" type="line"/>
      <point x="260.13364562988284" y="425" type="line"/>
      <point x="70.85000000000001" y="235.7163543701172" type="line"/>
    </contour>
  </outline>
</glyph>
<glyph name="O_with_stroke" format="2">
  <advance width="1012.9743674751608"/>
  <unicode hex="00D8"/>
  <outline>
    <contour>
      <point x="953.090469170076" y="425.0" type="curve" smooth="yes"/>
      <point x="953.090469170076" y="569.6552912979446"/>
      <point x="883.9196299143795" y="696.5473094345624"/>
      <point x="776.877899402683" y="776.4131469726562" type="curve"/>
      <point x="843.6814348641088" y="870" type="line"/>
      <point x="807.790107959812" y="870" type="line"/>
      <point x="752.9020769539526" y="793.1058959960938" type="line"/>
      <point x="682.6545073949006" y="838.655528973905"/>
      <point x="598.5024881645685" y="864.9999999999999"/>
      <point x="508.0888786528346" y="864.9999999999999" type="curve" smooth="yes"/>
      <point x="262.4858169224795" y="865.0"/>
      <point x="63.08728813559323" y="670.6030617303551"/>
      <point x="63.08728813559323" y="425.0" type="curve" smooth="yes"/>
      <point x="63.08728813559323" y="280.3447087020554"/>
      <point x="132.2581273912898" y="153.45269056543765"/>
      <point x="239.29985069662843" y="73.58685302734375" type="curve"/>
      <point x="172.4963152352026" y="-20" type="line"/>
      <point x="208.38764976889405" y="-20" type="line"/>
      <point x="263.2756807747534" y="56.89410400390625" type="line"/>
      <point x="333.5232499107686" y="11.344471026094908"/>
      <point x="417.6752691411007" y="-15.000000000000014"/>
      <point x="508.0888786528346" y="-15.000000000000014" type="curve" smooth="yes"/>
      <point x="753.6919403831897" y="-15.0"/>
      <point x="953.090469170076" y="179.3969382696449"/>
    </contour>
    <contour>
      <point x="98.97216559864738" y="425.00000000000006" type="curve" smooth="yes"/>
      <point x="98.97216559864741" y="651.7199917511975"/>
      <point x="281.4154267616794" y="835.7875"/>
      <point x="508.0888786528346" y="835.7875" type="curve" smooth="yes"/>
      <point x="591.9544290773317" y="835.7875"/>
      <point x="669.7653900652841" y="810.5908374329154"/>
      <point x="734.5219576302221" y="767.3566970825195" type="curve"/>
      <point x="257.9576036873511" y="99.7249984741211" type="line"/>
      <point x="161.1288540144613" y="174.86427287592278"/>
      <point x="98.97216559864741" y="292.6664881747188"/>
    </contour>
    <contour>
      <point x="917.2055917070219" y="425.00000000000006" type="curve" smooth="yes"/>
      <point x="917.2055917070218" y="198.2800082488024"/>
      <point x="734.7623305439898" y="14.212499999999977"/>
      <point x="508.0888786528346" y="14.212499999999977" type="curve" smooth="yes"/>
      <point x="424.2233282283375" y="14.212499999999977"/>
      <point x="346.4123672403851" y="39.40916256708465"/>
      <point x="281.6558000984839" y="82.64330291748047" type="curve"/>
      <point x="758.2201464119604" y="750.2750091552734" type="line"/>
      <point x="855.0489032912079" y="675.1357271240772"/>
      <point x="917.2055917070218" y="557.3335118252812"/>
    </contour>
  </outline>
</glyph>
<glyph name="U_with_acute" format="2">
  <advance width="784.6136903158889"/>
  <unicode hex="00DA"/>
  <outline>
    <contour>
      <point x="518.4557643847298" y="1083.7865600585938" type="line"/>
      <point x="483.39437064693686" y="1083.7865600585938" type="line"/>
      <point x="363.4014659838509" y="898.7865600585938" type="line"/>
      <point x="398.4628597216439" y="898.7865600585938" type="line"/>
    </contour>
    <contour>
      <point x="93.85000000000001" y="333.4051208496094" type="line"/>
      <point x="93.85000000000002" y="39.199966628856316"/>
      <point x="288.6927348140931" y="-14.999999999999988"/>
      <point x="392.3068452380952" y="-15.0" type="curve" smooth="yes"/>
      <point x="495.9209556620973" y="-15.0"/>
      <point x="690.7636912591206" y="39.19996687941108"/>
      <point x="690.7636903158888" y="333.40512110016414" type="curve"/>
      <point x="690.763688659668" y="850" type="line"/>
      <point x="660.013688659668" y="850" type="line"/>
      <point x="660.013688659668" y="332.68809509277344" type="line"/>
      <point x="660.013688659668" y="52.178272037740044"/>
      <point x="475.36088995190465" y="14.212499999999977"/>
      <point x="392.3068452380952" y="14.212499999999977" type="curve" smooth="yes"/>
      <point x="309.25280052428576" y="14.212499999999988"/>
      <point x="124.60000000000004" y="52.17827218306189"/>
      <point x="124.60000000000001" y="332.6880952380953" type="curve"/>
      <point x="124.60000000000001" y="850" type="line"/>
      <point x="93.85000000000001" y="850" type="line"/>
    </contour>
  </outline>
</glyph>
<glyph name="THORN" format="2">
  <advance width="696.8160714285715"/>
  <unicode hex="00DE"/>
  <outline>
    <contour>
      <point x="113.85000000000001" y="0" type="line"/>
      <point x="144.60000000000002" y="0" type="line"/>
      <point x="144.60000000000002" y="158.97916412353516" type="line"/>
      <point x="326.9452377319336" y="158.97916412353516" type="line"/>
      <point x="605.4491548430015" y="158.97916412353516"/>
      <point x="642.9660714285715" y="342.56364527544537"/>
      <point x="642.9660714285715" y="425.0" type="curve" smooth="yes"/>
      <point x="642.9660714285715" y="507.43635472455463"/>
      <point x="605.4491552063058" y="691.0208308322468"/>
      <point x="326.9452380952381" y="691.0208338806076" type="curve"/>
      <point x="144.60000000000002" y="691.0208358764648" type="line"/>
      <point x="144.60000000000002" y="850" type="line"/>
      <point x="113.85000000000001" y="850" type="line"/>
    </contour>
    <contour>
      <point x="144.60000000000002" y="188.19166564941406" type="line"/>
      <point x="144.60000000000002" y="661.8083343505859" type="line"/>
      <point x="326.1764846801758" y="661.8083343505859" type="line"/>
      <point x="588.7263022362724" y="661.8083343505859"/>
      <point x="612.2160714285715" y="489.9245555344278"/>
      <point x="612.2160714285715" y="425.0" type="curve" smooth="yes"/>
      <point x="612.2160714285715" y="360.0754444655722"/>
      <point x="588.7263056513348" y="188.1916676003403"/>
      <point x="326.17648809523814" y="188.19166644703026" type="curve"/>
    </contour>
  </outline>
</glyph>
<glyph name="eszett" format="2">
  <advance width="708.1385784072249"/>
  <unicode hex="00DF"/>
  <outline>
    <contour>
      <point x="107.85000000000001" y="0" type="line"/>
      <point x="138.59363708496096" y="0" type="line"/>
      <point x="138.59363708496096" y="614.0466391227914" type="line"/>
      <point x="138.59363708496096" y="802.5442236584759"/>
      <point x="238.01281156921857" y="843.4810439655172"/>
      <point x="319.36281598932675" y="843.4810439655172" type="curve" smooth="yes"/>
      <point x="400.712820409435" y="843.4810439655172"/>
      <point x="500.1319861074694" y="802.5442250519613"/>
      <point x="500.13199669460863" y="614.0466422231179" type="curve"/>
      <point x="500.1319976806641" y="596.4905242919922" type="line"/>
      <point x="487.88978594269275" y="597.5089679910589"/>
      <point x="476.9765877209941" y="597.6875000000001"/>
      <point x="470.8756319786535" y="597.6875000000001" type="curve"/>
      <point x="366.2326118613974" y="597.6875"/>
      <point x="281.4626855500821" y="533.8084636501933"/>
      <point x="281.4626855500821" y="446.72926908867" type="curve"/>
      <point x="281.4626855500821" y="353.2806154607814"/>
      <point x="368.89628087033304" y="318.11604176609353"/>
      <point x="437.74115160075587" y="294.0127504916832" type="curve"/>
      <point x="491.45390025772804" y="275.207369461952" type="line"/>
      <point x="540.6490673073324" y="257.98363982008794"/>
      <point x="624.2366723296387" y="228.70438183711207"/>
      <point x="624.2366723296387" y="145.8236419150246" type="curve"/>
      <point x="624.2366723296387" y="73.33606446951748"/>
      <point x="546.6868161348308" y="14.360174224137893"/>
      <point x="450.854203407225" y="14.360174224137893" type="curve"/>
      <point x="382.55961896879603" y="14.360174224137854"/>
      <point x="321.63349203851095" y="34.38207524255091"/>
      <point x="281.4626855500821" y="67.25071716308594" type="curve"/>
      <point x="281.4626861572266" y="33.603118896484375" type="line"/>
      <point x="323.3948010162072" y="2.7523451106119516"/>
      <point x="383.7421011604554" y="-15.000000000000005"/>
      <point x="450.8756319786536" y="-15.000000000000014" type="curve"/>
      <point x="563.272572124285" y="-15.0"/>
      <point x="654.2885784072249" y="56.257898120151566"/>
      <point x="654.2885784072249" y="146.51537376847293" type="curve"/>
      <point x="654.2885784072249" y="245.39115496118063"/>
      <point x="562.206137165205" y="282.9765341454253"/>
      <point x="496.0530069261519" y="306.14447018560554" type="curve"/>
      <point x="443.4018743263186" y="324.5837801337216" type="line"/>
      <point x="381.5607454663642" y="346.24158094983716"/>
      <point x="311.5145916276684" y="374.41809372890134"/>
      <point x="311.51459162766827" y="447.42314379926114" type="curve"/>
      <point x="311.51459162766827" y="517.0192710306768"/>
      <point x="382.81405764266435" y="568.2816114901478"/>
      <point x="470.8970593277754" y="568.3066115617244" type="curve"/>
      <point x="483.4879678466637" y="568.3216641246624"/>
      <point x="506.29229061269325" y="567.5148666784379"/>
      <point x="530.875634765625" y="562.8629455566406" type="curve"/>
      <point x="530.875634765625" y="611.1746826171875" type="line"/>
      <point x="530.875634765625" y="830.8127897186713"/>
      <point x="405.5775830679278" y="872.6875"/>
      <point x="319.36281598932675" y="872.6875" type="curve" smooth="yes"/>
      <point x="233.14804891072572" y="872.6875"/>
      <point x="107.85000000000002" y="830.812791112157"/>
      <point x="107.85000000000001" y="611.1746840106732" type="curve"/>
    </contour>
  </outline>
</glyph>
<glyph name="a_with_tildeabove" format="2">
  <advance width="654.615870666504"/>
  <unicode hex="00E3"/>
  <outline>
    <contour>
      <point x="272.2971516127552" y="740.2892680084817" type="curve"/>
      <point x="293.7018732739755" y="740.2892680084817"/>
      <point x="308.89227032031334" y="730.1169863516092"/>
      <point x="327.20351607363045" y="717.058432599313" type="curve"/>
      <point x="331.35346730031176" y="714.0989200738909" type="line"/>
      <point x="355.06940363603417" y="697.1860440414144"/>
      <point x="379.43858093766306" y="680.9089495356479"/>
      <point x="409.95118769147246" y="680.9089495356479" type="curve"/>
      <point x="439.8916834238772" y="680.9089495356479"/>
      <point x="465.9057983560607" y="697.8534895005713"/>
      <point x="478.9188099379505" y="722.6913109066718" type="curve"/>
      <point x="478.9188099379505" y="770.7834282162421" type="line"/>
      <point x="473.8847061648743" y="736.9885185215052"/>
      <point x="444.9033694841296" y="711.2210365892195"/>
      <point x="409.95118769147246" y="711.2210365892195" type="curve"/>
      <point x="388.5464660302522" y="711.2210365892195"/>
      <point x="373.35606893818397" y="721.3933136049856"/>
      <point x="355.0448248877932" y="734.4518697451954" type="curve"/>
      <point x="350.8948727465458" y="737.4113837392491" type="line"/>
      <point x="327.17893861638026" y="754.3242628644485"/>
      <point x="302.8097583665646" y="770.6013550620531"/>
      <point x="272.2971516127552" y="770.6013550620531" type="curve"/>
      <point x="242.35665588035044" y="770.6013550620532"/>
      <point x="216.3425344688676" y="753.6568027301477"/>
      <point x="203.3295231337513" y="728.8189811947577" type="curve"/>
      <point x="203.3295231337513" y="680.7268333676093" type="line"/>
      <point x="208.36362673578776" y="714.5217430878243"/>
      <point x="237.34496982009807" y="740.2892680084816"/>
    </contour>
    <contour>
      <point x="535.0541015625" y="0" type="line"/>
      <point x="565.7658706665039" y="0" type="line"/>
      <point x="565.7658706665039" y="332.5743713378906" type="line"/>
      <point x="565.7658706665039" y="394.43370467938894"/>
      <point x="560.0260049891169" y="597.6875"/>
      <point x="326.1241696521138" y="597.6875" type="curve"/>
      <point x="249.23643451712962" y="597.6875"/>
      <point x="179.42343559179182" y="579.6180407474133"/>
      <point x="127.75187072753907" y="547.1498336791992" type="curve"/>
      <point x="127.75187072753907" y="511.5949401855469" type="line"/>
      <point x="177.17526749523523" y="547.1138061452094"/>
      <point x="247.60095077441895" y="568.4078448275862"/>
      <point x="325.85145524324685" y="568.4078448275862" type="curve"/>
      <point x="528.1164805392344" y="568.407844827586"/>
      <point x="535.0541041895606" y="400.7421124914016"/>
      <point x="535.0541022553192" y="332.5743735498402" type="curve"/>
      <point x="535.0541015625" y="308.15760803222656" type="line"/>
      <point x="459.52638943230784" y="332.9657140844594"/>
      <point x="386.98198183890815" y="338.9661525799393"/>
      <point x="334.8975851139668" y="338.9661525799394" type="curve"/>
      <point x="190.1225392282425" y="338.9661525799393"/>
      <point x="73.85000000000002" y="280.1710143077252"/>
      <point x="73.85000000000001" y="161.9830762899697" type="curve"/>
      <point x="73.85000000000001" y="55.45352724477189"/>
      <point x="172.0595221762025" y="-14.99999999999993"/>
      <point x="293.2168736304569" y="-15.0" type="curve"/>
      <point x="398.35783578898145" y="-15.0"/>
      <point x="489.63740195816683" y="36.9159955011567"/>
      <point x="535.0541015625" y="117.16455078125" type="curve"/>
    </contour>
    <contour>
      <point x="104.4472396551724" y="162.0611204987111" type="curve"/>
      <point x="104.4472396551724" y="260.39767806561747"/>
      <point x="204.69279759636674" y="309.767987073522"/>
      <point x="335.11718252775995" y="309.767987073522" type="curve"/>
      <point x="385.2171649290742" y="309.767987073522"/>
      <point x="459.13336197636403" y="303.94857493580787"/>
      <point x="535.0541015625" y="277.61963653564453" type="curve"/>
      <point x="535.0541015625" y="272.61963653564453" type="line"/>
      <point x="535.0541015625" y="59.52859927516164"/>
      <point x="391.3096596537477" y="14.35285431034481"/>
      <point x="293.46397819347715" y="14.35285431034481" type="curve"/>
      <point x="189.05402657711102" y="14.352854310344823"/>
      <point x="104.4472396551724" y="72.62851396141821"/>
    </contour>
  </outline>
</glyph>
<glyph name="c_with_cedilla" format="2">
  <advance width="640.6676945383956"/>
  <unicode hex="00E7"/>
  <outline>
    <contour>
      <point x="427.49581819313084" y="-168.8953566585848" type="curve"/>
      <point x="427.49581819313084" y="-213.13760997585587"/>
      <point x="389.8392845380505" y="-245.18491487068968"/>
      <point x="343.42328843122607" y="-245.18491487068968" type="curve"/>
      <point x="328.67762489956783" y="-245.18491487068965"/>
      <point x="289.374141880382" y="-243.034144870838"/>
      <point x="260.45113572126513" y="-221.85923767089844" type="curve"/>
      <point x="260.45113264874715" y="-250.25769805908203" type="line"/>
      <point x="292.57204159215996" y="-270.0547456972734"/>
      <point x="327.07894642806025" y="-272.6875"/>
      <point x="343.42328843122607" y="-272.6875" type="curve"/>
      <point x="405.39235017183626" y="-272.6875"/>
      <point x="455.63206819313086" y="-226.2009653926793"/>
      <point x="455.63206819313086" y="-168.99613252065376" type="curve"/>
      <point x="455.63206819313086" y="-113.46354373898339"/>
      <point x="409.5312133353699" y="-65.3047650413075"/>
      <point x="348.42328843122607" y="-65.3047650413075" type="curve" smooth="yes"/>
      <point x="345.3698643382003" y="-65.38105773925781" type="line"/>
      <point x="369.47349440411824" y="-14.956924438476562" type="line"/>
      <point x="371.01590075020204" y="-14.990982657937117"/>
      <point x="372.5251448583076" y="-14.999999999999957"/>
      <point x="373.9304206591173" y="-14.999999999999957" type="curve"/>
      <point x="443.65155768472755" y="-15.0"/>
      <point x="508.0238119805874" y="6.750091000578145"/>
      <point x="559.8176945383956" y="44.07469177246094" type="curve"/>
      <point x="559.8176945383956" y="79.84843444824219" type="line"/>
      <point x="509.40463654457756" y="38.86079360162479"/>
      <point x="444.59713786412397" y="14.206456034482656"/>
      <point x="373.9304206591173" y="14.206456034482649" type="curve"/>
      <point x="219.7309567284078" y="14.206456034482805"/>
      <point x="94.6119306139613" y="137.7888280006524"/>
      <point x="94.6119306139613" y="291.34375" type="curve" smooth="yes"/>
      <point x="94.6119306139613" y="444.89867199934764"/>
      <point x="219.73095672840785" y="568.4810439655173"/>
      <point x="373.9304206591173" y="568.4810439655173" type="curve"/>
      <point x="444.59720151813394" y="568.4810423146498"/>
      <point x="509.4047545777686" y="543.8266603827728"/>
      <point x="559.8176945383956" y="502.8310241699219" type="curve"/>
      <point x="559.8176945383956" y="538.6030731201172" type="line"/>
      <point x="508.0238119805874" y="575.9374089994218"/>
      <point x="443.65155768472755" y="597.6875"/>
      <point x="373.93042065911743" y="597.6875" type="curve"/>
      <point x="202.9315859098602" y="597.6875"/>
      <point x="64.11829268292685" y="461.3716979521423"/>
      <point x="64.11829268292684" y="291.34375" type="curve" smooth="yes"/>
      <point x="64.11829268292684" y="132.66023676317272"/>
      <point x="185.02601643995243" y="3.3403293417349573"/>
      <point x="340.1641758616378" y="-13.203216552734375" type="curve"/>
      <point x="297.4132069285323" y="-102.6370849609375" type="line"/>
      <point x="309.5025977604598" y="-96.67204823283657"/>
      <point x="324.18579058065177" y="-92.60579844647992"/>
      <point x="340.92328843122607" y="-92.60579844647994" type="curve"/>
      <point x="388.7200236776438" y="-92.60579844647992"/>
      <point x="427.49581819313084" y="-123.96649007414328"/>
    </contour>
  </outline>
</glyph>
